%TF.GenerationSoftware,KiCad,Pcbnew,10.0.1*%
%TF.CreationDate,2026-04-30T19:11:56-05:00*%
%TF.ProjectId,KC_proj,4b435f70-726f-46a2-9e6b-696361645f70,rev?*%
%TF.SameCoordinates,Original*%
%TF.FileFunction,Legend,Top*%
%TF.FilePolarity,Positive*%
%FSLAX46Y46*%
G04 Gerber Fmt 4.6, Leading zero omitted, Abs format (unit mm)*
G04 Created by KiCad (PCBNEW 10.0.1) date 2026-04-30 19:11:56*
%MOMM*%
%LPD*%
G01*
G04 APERTURE LIST*
G04 Aperture macros list*
%AMRoundRect*
0 Rectangle with rounded corners*
0 $1 Rounding radius*
0 $2 $3 $4 $5 $6 $7 $8 $9 X,Y pos of 4 corners*
0 Add a 4 corners polygon primitive as box body*
4,1,4,$2,$3,$4,$5,$6,$7,$8,$9,$2,$3,0*
0 Add four circle primitives for the rounded corners*
1,1,$1+$1,$2,$3*
1,1,$1+$1,$4,$5*
1,1,$1+$1,$6,$7*
1,1,$1+$1,$8,$9*
0 Add four rect primitives between the rounded corners*
20,1,$1+$1,$2,$3,$4,$5,0*
20,1,$1+$1,$4,$5,$6,$7,0*
20,1,$1+$1,$6,$7,$8,$9,0*
20,1,$1+$1,$8,$9,$2,$3,0*%
G04 Aperture macros list end*
%ADD10C,0.100000*%
%ADD11C,0.150000*%
%ADD12C,0.120000*%
%ADD13R,1.800000X0.900000*%
%ADD14RoundRect,0.200000X0.275000X-0.200000X0.275000X0.200000X-0.275000X0.200000X-0.275000X-0.200000X0*%
%ADD15C,2.200000*%
%ADD16RoundRect,0.375000X-0.625000X-0.375000X0.625000X-0.375000X0.625000X0.375000X-0.625000X0.375000X0*%
%ADD17RoundRect,0.500000X-0.500000X-1.400000X0.500000X-1.400000X0.500000X1.400000X-0.500000X1.400000X0*%
%ADD18R,2.000000X2.000000*%
%ADD19C,2.000000*%
%ADD20RoundRect,0.250000X-1.150000X-0.250000X1.150000X-0.250000X1.150000X0.250000X-1.150000X0.250000X0*%
%ADD21C,0.650000*%
%ADD22RoundRect,0.150000X-0.150000X-0.575000X0.150000X-0.575000X0.150000X0.575000X-0.150000X0.575000X0*%
%ADD23RoundRect,0.075000X-0.075000X-0.650000X0.075000X-0.650000X0.075000X0.650000X-0.075000X0.650000X0*%
%ADD24O,1.000000X2.100000*%
%ADD25O,1.000000X1.600000*%
%ADD26RoundRect,0.050000X-0.285000X-0.100000X0.285000X-0.100000X0.285000X0.100000X-0.285000X0.100000X0*%
%ADD27RoundRect,0.200000X-0.200000X-0.275000X0.200000X-0.275000X0.200000X0.275000X-0.200000X0.275000X0*%
%ADD28RoundRect,0.225000X0.225000X0.250000X-0.225000X0.250000X-0.225000X-0.250000X0.225000X-0.250000X0*%
%ADD29RoundRect,0.200100X-0.949900X-0.949900X0.949900X-0.949900X0.949900X0.949900X-0.949900X0.949900X0*%
%ADD30C,2.500000*%
%ADD31RoundRect,0.200000X-0.275000X0.200000X-0.275000X-0.200000X0.275000X-0.200000X0.275000X0.200000X0*%
%ADD32RoundRect,0.250000X-0.375000X-0.625000X0.375000X-0.625000X0.375000X0.625000X-0.375000X0.625000X0*%
%ADD33R,1.700000X1.700000*%
%ADD34C,1.700000*%
%ADD35RoundRect,0.225000X-0.225000X-0.250000X0.225000X-0.250000X0.225000X0.250000X-0.225000X0.250000X0*%
%ADD36RoundRect,0.125000X-0.625000X-0.125000X0.625000X-0.125000X0.625000X0.125000X-0.625000X0.125000X0*%
%ADD37RoundRect,0.125000X-0.125000X-0.625000X0.125000X-0.625000X0.125000X0.625000X-0.125000X0.625000X0*%
%ADD38RoundRect,0.225000X-0.250000X0.225000X-0.250000X-0.225000X0.250000X-0.225000X0.250000X0.225000X0*%
G04 APERTURE END LIST*
D10*
X131438095Y-59507419D02*
X131438095Y-60316942D01*
X131438095Y-60316942D02*
X131485714Y-60412180D01*
X131485714Y-60412180D02*
X131533333Y-60459800D01*
X131533333Y-60459800D02*
X131628571Y-60507419D01*
X131628571Y-60507419D02*
X131819047Y-60507419D01*
X131819047Y-60507419D02*
X131914285Y-60459800D01*
X131914285Y-60459800D02*
X131961904Y-60412180D01*
X131961904Y-60412180D02*
X132009523Y-60316942D01*
X132009523Y-60316942D02*
X132009523Y-59507419D01*
X132390476Y-59507419D02*
X133009523Y-59507419D01*
X133009523Y-59507419D02*
X132676190Y-59888371D01*
X132676190Y-59888371D02*
X132819047Y-59888371D01*
X132819047Y-59888371D02*
X132914285Y-59935990D01*
X132914285Y-59935990D02*
X132961904Y-59983609D01*
X132961904Y-59983609D02*
X133009523Y-60078847D01*
X133009523Y-60078847D02*
X133009523Y-60316942D01*
X133009523Y-60316942D02*
X132961904Y-60412180D01*
X132961904Y-60412180D02*
X132914285Y-60459800D01*
X132914285Y-60459800D02*
X132819047Y-60507419D01*
X132819047Y-60507419D02*
X132533333Y-60507419D01*
X132533333Y-60507419D02*
X132438095Y-60459800D01*
X132438095Y-60459800D02*
X132390476Y-60412180D01*
D11*
X134333333Y-102104819D02*
X134000000Y-101628628D01*
X133761905Y-102104819D02*
X133761905Y-101104819D01*
X133761905Y-101104819D02*
X134142857Y-101104819D01*
X134142857Y-101104819D02*
X134238095Y-101152438D01*
X134238095Y-101152438D02*
X134285714Y-101200057D01*
X134285714Y-101200057D02*
X134333333Y-101295295D01*
X134333333Y-101295295D02*
X134333333Y-101438152D01*
X134333333Y-101438152D02*
X134285714Y-101533390D01*
X134285714Y-101533390D02*
X134238095Y-101581009D01*
X134238095Y-101581009D02*
X134142857Y-101628628D01*
X134142857Y-101628628D02*
X133761905Y-101628628D01*
X135238095Y-101104819D02*
X134761905Y-101104819D01*
X134761905Y-101104819D02*
X134714286Y-101581009D01*
X134714286Y-101581009D02*
X134761905Y-101533390D01*
X134761905Y-101533390D02*
X134857143Y-101485771D01*
X134857143Y-101485771D02*
X135095238Y-101485771D01*
X135095238Y-101485771D02*
X135190476Y-101533390D01*
X135190476Y-101533390D02*
X135238095Y-101581009D01*
X135238095Y-101581009D02*
X135285714Y-101676247D01*
X135285714Y-101676247D02*
X135285714Y-101914342D01*
X135285714Y-101914342D02*
X135238095Y-102009580D01*
X135238095Y-102009580D02*
X135190476Y-102057200D01*
X135190476Y-102057200D02*
X135095238Y-102104819D01*
X135095238Y-102104819D02*
X134857143Y-102104819D01*
X134857143Y-102104819D02*
X134761905Y-102057200D01*
X134761905Y-102057200D02*
X134714286Y-102009580D01*
X123388095Y-60304819D02*
X123388095Y-59304819D01*
X123388095Y-59781009D02*
X123959523Y-59781009D01*
X123959523Y-60304819D02*
X123959523Y-59304819D01*
X124959523Y-60304819D02*
X124388095Y-60304819D01*
X124673809Y-60304819D02*
X124673809Y-59304819D01*
X124673809Y-59304819D02*
X124578571Y-59447676D01*
X124578571Y-59447676D02*
X124483333Y-59542914D01*
X124483333Y-59542914D02*
X124388095Y-59590533D01*
X151338095Y-81804819D02*
X151338095Y-82614342D01*
X151338095Y-82614342D02*
X151385714Y-82709580D01*
X151385714Y-82709580D02*
X151433333Y-82757200D01*
X151433333Y-82757200D02*
X151528571Y-82804819D01*
X151528571Y-82804819D02*
X151719047Y-82804819D01*
X151719047Y-82804819D02*
X151814285Y-82757200D01*
X151814285Y-82757200D02*
X151861904Y-82709580D01*
X151861904Y-82709580D02*
X151909523Y-82614342D01*
X151909523Y-82614342D02*
X151909523Y-81804819D01*
X152338095Y-81900057D02*
X152385714Y-81852438D01*
X152385714Y-81852438D02*
X152480952Y-81804819D01*
X152480952Y-81804819D02*
X152719047Y-81804819D01*
X152719047Y-81804819D02*
X152814285Y-81852438D01*
X152814285Y-81852438D02*
X152861904Y-81900057D01*
X152861904Y-81900057D02*
X152909523Y-81995295D01*
X152909523Y-81995295D02*
X152909523Y-82090533D01*
X152909523Y-82090533D02*
X152861904Y-82233390D01*
X152861904Y-82233390D02*
X152290476Y-82804819D01*
X152290476Y-82804819D02*
X152909523Y-82804819D01*
X124919047Y-83481009D02*
X125061904Y-83528628D01*
X125061904Y-83528628D02*
X125109523Y-83576247D01*
X125109523Y-83576247D02*
X125157142Y-83671485D01*
X125157142Y-83671485D02*
X125157142Y-83814342D01*
X125157142Y-83814342D02*
X125109523Y-83909580D01*
X125109523Y-83909580D02*
X125061904Y-83957200D01*
X125061904Y-83957200D02*
X124966666Y-84004819D01*
X124966666Y-84004819D02*
X124585714Y-84004819D01*
X124585714Y-84004819D02*
X124585714Y-83004819D01*
X124585714Y-83004819D02*
X124919047Y-83004819D01*
X124919047Y-83004819D02*
X125014285Y-83052438D01*
X125014285Y-83052438D02*
X125061904Y-83100057D01*
X125061904Y-83100057D02*
X125109523Y-83195295D01*
X125109523Y-83195295D02*
X125109523Y-83290533D01*
X125109523Y-83290533D02*
X125061904Y-83385771D01*
X125061904Y-83385771D02*
X125014285Y-83433390D01*
X125014285Y-83433390D02*
X124919047Y-83481009D01*
X124919047Y-83481009D02*
X124585714Y-83481009D01*
X125490476Y-83004819D02*
X126157142Y-83004819D01*
X126157142Y-83004819D02*
X125490476Y-84004819D01*
X125490476Y-84004819D02*
X126157142Y-84004819D01*
X127061904Y-84004819D02*
X126490476Y-84004819D01*
X126776190Y-84004819D02*
X126776190Y-83004819D01*
X126776190Y-83004819D02*
X126680952Y-83147676D01*
X126680952Y-83147676D02*
X126585714Y-83242914D01*
X126585714Y-83242914D02*
X126490476Y-83290533D01*
X129229048Y-78963866D02*
X129990953Y-78963866D01*
X129610000Y-79344819D02*
X129610000Y-78582914D01*
X131316667Y-90357200D02*
X131459524Y-90404819D01*
X131459524Y-90404819D02*
X131697619Y-90404819D01*
X131697619Y-90404819D02*
X131792857Y-90357200D01*
X131792857Y-90357200D02*
X131840476Y-90309580D01*
X131840476Y-90309580D02*
X131888095Y-90214342D01*
X131888095Y-90214342D02*
X131888095Y-90119104D01*
X131888095Y-90119104D02*
X131840476Y-90023866D01*
X131840476Y-90023866D02*
X131792857Y-89976247D01*
X131792857Y-89976247D02*
X131697619Y-89928628D01*
X131697619Y-89928628D02*
X131507143Y-89881009D01*
X131507143Y-89881009D02*
X131411905Y-89833390D01*
X131411905Y-89833390D02*
X131364286Y-89785771D01*
X131364286Y-89785771D02*
X131316667Y-89690533D01*
X131316667Y-89690533D02*
X131316667Y-89595295D01*
X131316667Y-89595295D02*
X131364286Y-89500057D01*
X131364286Y-89500057D02*
X131411905Y-89452438D01*
X131411905Y-89452438D02*
X131507143Y-89404819D01*
X131507143Y-89404819D02*
X131745238Y-89404819D01*
X131745238Y-89404819D02*
X131888095Y-89452438D01*
X132221429Y-89404819D02*
X132459524Y-90404819D01*
X132459524Y-90404819D02*
X132650000Y-89690533D01*
X132650000Y-89690533D02*
X132840476Y-90404819D01*
X132840476Y-90404819D02*
X133078572Y-89404819D01*
X133983333Y-90404819D02*
X133411905Y-90404819D01*
X133697619Y-90404819D02*
X133697619Y-89404819D01*
X133697619Y-89404819D02*
X133602381Y-89547676D01*
X133602381Y-89547676D02*
X133507143Y-89642914D01*
X133507143Y-89642914D02*
X133411905Y-89690533D01*
X152911666Y-96054819D02*
X152911666Y-96769104D01*
X152911666Y-96769104D02*
X152864047Y-96911961D01*
X152864047Y-96911961D02*
X152768809Y-97007200D01*
X152768809Y-97007200D02*
X152625952Y-97054819D01*
X152625952Y-97054819D02*
X152530714Y-97054819D01*
X153292619Y-96054819D02*
X153911666Y-96054819D01*
X153911666Y-96054819D02*
X153578333Y-96435771D01*
X153578333Y-96435771D02*
X153721190Y-96435771D01*
X153721190Y-96435771D02*
X153816428Y-96483390D01*
X153816428Y-96483390D02*
X153864047Y-96531009D01*
X153864047Y-96531009D02*
X153911666Y-96626247D01*
X153911666Y-96626247D02*
X153911666Y-96864342D01*
X153911666Y-96864342D02*
X153864047Y-96959580D01*
X153864047Y-96959580D02*
X153816428Y-97007200D01*
X153816428Y-97007200D02*
X153721190Y-97054819D01*
X153721190Y-97054819D02*
X153435476Y-97054819D01*
X153435476Y-97054819D02*
X153340238Y-97007200D01*
X153340238Y-97007200D02*
X153292619Y-96959580D01*
X155398095Y-79004819D02*
X155398095Y-79814342D01*
X155398095Y-79814342D02*
X155445714Y-79909580D01*
X155445714Y-79909580D02*
X155493333Y-79957200D01*
X155493333Y-79957200D02*
X155588571Y-80004819D01*
X155588571Y-80004819D02*
X155779047Y-80004819D01*
X155779047Y-80004819D02*
X155874285Y-79957200D01*
X155874285Y-79957200D02*
X155921904Y-79909580D01*
X155921904Y-79909580D02*
X155969523Y-79814342D01*
X155969523Y-79814342D02*
X155969523Y-79004819D01*
X156874285Y-79338152D02*
X156874285Y-80004819D01*
X156636190Y-78957200D02*
X156398095Y-79671485D01*
X156398095Y-79671485D02*
X157017142Y-79671485D01*
X134533333Y-97804819D02*
X134200000Y-97328628D01*
X133961905Y-97804819D02*
X133961905Y-96804819D01*
X133961905Y-96804819D02*
X134342857Y-96804819D01*
X134342857Y-96804819D02*
X134438095Y-96852438D01*
X134438095Y-96852438D02*
X134485714Y-96900057D01*
X134485714Y-96900057D02*
X134533333Y-96995295D01*
X134533333Y-96995295D02*
X134533333Y-97138152D01*
X134533333Y-97138152D02*
X134485714Y-97233390D01*
X134485714Y-97233390D02*
X134438095Y-97281009D01*
X134438095Y-97281009D02*
X134342857Y-97328628D01*
X134342857Y-97328628D02*
X133961905Y-97328628D01*
X135485714Y-97804819D02*
X134914286Y-97804819D01*
X135200000Y-97804819D02*
X135200000Y-96804819D01*
X135200000Y-96804819D02*
X135104762Y-96947676D01*
X135104762Y-96947676D02*
X135009524Y-97042914D01*
X135009524Y-97042914D02*
X134914286Y-97090533D01*
X128988095Y-103554819D02*
X128988095Y-102554819D01*
X128988095Y-103031009D02*
X129559523Y-103031009D01*
X129559523Y-103554819D02*
X129559523Y-102554819D01*
X129940476Y-102554819D02*
X130559523Y-102554819D01*
X130559523Y-102554819D02*
X130226190Y-102935771D01*
X130226190Y-102935771D02*
X130369047Y-102935771D01*
X130369047Y-102935771D02*
X130464285Y-102983390D01*
X130464285Y-102983390D02*
X130511904Y-103031009D01*
X130511904Y-103031009D02*
X130559523Y-103126247D01*
X130559523Y-103126247D02*
X130559523Y-103364342D01*
X130559523Y-103364342D02*
X130511904Y-103459580D01*
X130511904Y-103459580D02*
X130464285Y-103507200D01*
X130464285Y-103507200D02*
X130369047Y-103554819D01*
X130369047Y-103554819D02*
X130083333Y-103554819D01*
X130083333Y-103554819D02*
X129988095Y-103507200D01*
X129988095Y-103507200D02*
X129940476Y-103459580D01*
X122833333Y-67592319D02*
X122500000Y-67116128D01*
X122261905Y-67592319D02*
X122261905Y-66592319D01*
X122261905Y-66592319D02*
X122642857Y-66592319D01*
X122642857Y-66592319D02*
X122738095Y-66639938D01*
X122738095Y-66639938D02*
X122785714Y-66687557D01*
X122785714Y-66687557D02*
X122833333Y-66782795D01*
X122833333Y-66782795D02*
X122833333Y-66925652D01*
X122833333Y-66925652D02*
X122785714Y-67020890D01*
X122785714Y-67020890D02*
X122738095Y-67068509D01*
X122738095Y-67068509D02*
X122642857Y-67116128D01*
X122642857Y-67116128D02*
X122261905Y-67116128D01*
X123690476Y-66592319D02*
X123500000Y-66592319D01*
X123500000Y-66592319D02*
X123404762Y-66639938D01*
X123404762Y-66639938D02*
X123357143Y-66687557D01*
X123357143Y-66687557D02*
X123261905Y-66830414D01*
X123261905Y-66830414D02*
X123214286Y-67020890D01*
X123214286Y-67020890D02*
X123214286Y-67401842D01*
X123214286Y-67401842D02*
X123261905Y-67497080D01*
X123261905Y-67497080D02*
X123309524Y-67544700D01*
X123309524Y-67544700D02*
X123404762Y-67592319D01*
X123404762Y-67592319D02*
X123595238Y-67592319D01*
X123595238Y-67592319D02*
X123690476Y-67544700D01*
X123690476Y-67544700D02*
X123738095Y-67497080D01*
X123738095Y-67497080D02*
X123785714Y-67401842D01*
X123785714Y-67401842D02*
X123785714Y-67163747D01*
X123785714Y-67163747D02*
X123738095Y-67068509D01*
X123738095Y-67068509D02*
X123690476Y-67020890D01*
X123690476Y-67020890D02*
X123595238Y-66973271D01*
X123595238Y-66973271D02*
X123404762Y-66973271D01*
X123404762Y-66973271D02*
X123309524Y-67020890D01*
X123309524Y-67020890D02*
X123261905Y-67068509D01*
X123261905Y-67068509D02*
X123214286Y-67163747D01*
X147183333Y-98754819D02*
X146850000Y-98278628D01*
X146611905Y-98754819D02*
X146611905Y-97754819D01*
X146611905Y-97754819D02*
X146992857Y-97754819D01*
X146992857Y-97754819D02*
X147088095Y-97802438D01*
X147088095Y-97802438D02*
X147135714Y-97850057D01*
X147135714Y-97850057D02*
X147183333Y-97945295D01*
X147183333Y-97945295D02*
X147183333Y-98088152D01*
X147183333Y-98088152D02*
X147135714Y-98183390D01*
X147135714Y-98183390D02*
X147088095Y-98231009D01*
X147088095Y-98231009D02*
X146992857Y-98278628D01*
X146992857Y-98278628D02*
X146611905Y-98278628D01*
X148040476Y-98088152D02*
X148040476Y-98754819D01*
X147802381Y-97707200D02*
X147564286Y-98421485D01*
X147564286Y-98421485D02*
X148183333Y-98421485D01*
X152183333Y-94359580D02*
X152135714Y-94407200D01*
X152135714Y-94407200D02*
X151992857Y-94454819D01*
X151992857Y-94454819D02*
X151897619Y-94454819D01*
X151897619Y-94454819D02*
X151754762Y-94407200D01*
X151754762Y-94407200D02*
X151659524Y-94311961D01*
X151659524Y-94311961D02*
X151611905Y-94216723D01*
X151611905Y-94216723D02*
X151564286Y-94026247D01*
X151564286Y-94026247D02*
X151564286Y-93883390D01*
X151564286Y-93883390D02*
X151611905Y-93692914D01*
X151611905Y-93692914D02*
X151659524Y-93597676D01*
X151659524Y-93597676D02*
X151754762Y-93502438D01*
X151754762Y-93502438D02*
X151897619Y-93454819D01*
X151897619Y-93454819D02*
X151992857Y-93454819D01*
X151992857Y-93454819D02*
X152135714Y-93502438D01*
X152135714Y-93502438D02*
X152183333Y-93550057D01*
X152516667Y-93454819D02*
X153135714Y-93454819D01*
X153135714Y-93454819D02*
X152802381Y-93835771D01*
X152802381Y-93835771D02*
X152945238Y-93835771D01*
X152945238Y-93835771D02*
X153040476Y-93883390D01*
X153040476Y-93883390D02*
X153088095Y-93931009D01*
X153088095Y-93931009D02*
X153135714Y-94026247D01*
X153135714Y-94026247D02*
X153135714Y-94264342D01*
X153135714Y-94264342D02*
X153088095Y-94359580D01*
X153088095Y-94359580D02*
X153040476Y-94407200D01*
X153040476Y-94407200D02*
X152945238Y-94454819D01*
X152945238Y-94454819D02*
X152659524Y-94454819D01*
X152659524Y-94454819D02*
X152564286Y-94407200D01*
X152564286Y-94407200D02*
X152516667Y-94359580D01*
X157183333Y-68119104D02*
X157659523Y-68119104D01*
X157088095Y-68404819D02*
X157421428Y-67404819D01*
X157421428Y-67404819D02*
X157754761Y-68404819D01*
X158088095Y-67881009D02*
X158421428Y-67881009D01*
X158564285Y-68404819D02*
X158088095Y-68404819D01*
X158088095Y-68404819D02*
X158088095Y-67404819D01*
X158088095Y-67404819D02*
X158564285Y-67404819D01*
X159516666Y-68404819D02*
X158945238Y-68404819D01*
X159230952Y-68404819D02*
X159230952Y-67404819D01*
X159230952Y-67404819D02*
X159135714Y-67547676D01*
X159135714Y-67547676D02*
X159040476Y-67642914D01*
X159040476Y-67642914D02*
X158945238Y-67690533D01*
X152183333Y-92809580D02*
X152135714Y-92857200D01*
X152135714Y-92857200D02*
X151992857Y-92904819D01*
X151992857Y-92904819D02*
X151897619Y-92904819D01*
X151897619Y-92904819D02*
X151754762Y-92857200D01*
X151754762Y-92857200D02*
X151659524Y-92761961D01*
X151659524Y-92761961D02*
X151611905Y-92666723D01*
X151611905Y-92666723D02*
X151564286Y-92476247D01*
X151564286Y-92476247D02*
X151564286Y-92333390D01*
X151564286Y-92333390D02*
X151611905Y-92142914D01*
X151611905Y-92142914D02*
X151659524Y-92047676D01*
X151659524Y-92047676D02*
X151754762Y-91952438D01*
X151754762Y-91952438D02*
X151897619Y-91904819D01*
X151897619Y-91904819D02*
X151992857Y-91904819D01*
X151992857Y-91904819D02*
X152135714Y-91952438D01*
X152135714Y-91952438D02*
X152183333Y-92000057D01*
X152564286Y-92000057D02*
X152611905Y-91952438D01*
X152611905Y-91952438D02*
X152707143Y-91904819D01*
X152707143Y-91904819D02*
X152945238Y-91904819D01*
X152945238Y-91904819D02*
X153040476Y-91952438D01*
X153040476Y-91952438D02*
X153088095Y-92000057D01*
X153088095Y-92000057D02*
X153135714Y-92095295D01*
X153135714Y-92095295D02*
X153135714Y-92190533D01*
X153135714Y-92190533D02*
X153088095Y-92333390D01*
X153088095Y-92333390D02*
X152516667Y-92904819D01*
X152516667Y-92904819D02*
X153135714Y-92904819D01*
X160314819Y-83741666D02*
X159838628Y-84074999D01*
X160314819Y-84313094D02*
X159314819Y-84313094D01*
X159314819Y-84313094D02*
X159314819Y-83932142D01*
X159314819Y-83932142D02*
X159362438Y-83836904D01*
X159362438Y-83836904D02*
X159410057Y-83789285D01*
X159410057Y-83789285D02*
X159505295Y-83741666D01*
X159505295Y-83741666D02*
X159648152Y-83741666D01*
X159648152Y-83741666D02*
X159743390Y-83789285D01*
X159743390Y-83789285D02*
X159791009Y-83836904D01*
X159791009Y-83836904D02*
X159838628Y-83932142D01*
X159838628Y-83932142D02*
X159838628Y-84313094D01*
X160314819Y-83265475D02*
X160314819Y-83074999D01*
X160314819Y-83074999D02*
X160267200Y-82979761D01*
X160267200Y-82979761D02*
X160219580Y-82932142D01*
X160219580Y-82932142D02*
X160076723Y-82836904D01*
X160076723Y-82836904D02*
X159886247Y-82789285D01*
X159886247Y-82789285D02*
X159505295Y-82789285D01*
X159505295Y-82789285D02*
X159410057Y-82836904D01*
X159410057Y-82836904D02*
X159362438Y-82884523D01*
X159362438Y-82884523D02*
X159314819Y-82979761D01*
X159314819Y-82979761D02*
X159314819Y-83170237D01*
X159314819Y-83170237D02*
X159362438Y-83265475D01*
X159362438Y-83265475D02*
X159410057Y-83313094D01*
X159410057Y-83313094D02*
X159505295Y-83360713D01*
X159505295Y-83360713D02*
X159743390Y-83360713D01*
X159743390Y-83360713D02*
X159838628Y-83313094D01*
X159838628Y-83313094D02*
X159886247Y-83265475D01*
X159886247Y-83265475D02*
X159933866Y-83170237D01*
X159933866Y-83170237D02*
X159933866Y-82979761D01*
X159933866Y-82979761D02*
X159886247Y-82884523D01*
X159886247Y-82884523D02*
X159838628Y-82836904D01*
X159838628Y-82836904D02*
X159743390Y-82789285D01*
X129461905Y-102604819D02*
X129461905Y-101604819D01*
X129461905Y-101604819D02*
X129700000Y-101604819D01*
X129700000Y-101604819D02*
X129842857Y-101652438D01*
X129842857Y-101652438D02*
X129938095Y-101747676D01*
X129938095Y-101747676D02*
X129985714Y-101842914D01*
X129985714Y-101842914D02*
X130033333Y-102033390D01*
X130033333Y-102033390D02*
X130033333Y-102176247D01*
X130033333Y-102176247D02*
X129985714Y-102366723D01*
X129985714Y-102366723D02*
X129938095Y-102461961D01*
X129938095Y-102461961D02*
X129842857Y-102557200D01*
X129842857Y-102557200D02*
X129700000Y-102604819D01*
X129700000Y-102604819D02*
X129461905Y-102604819D01*
X130985714Y-102604819D02*
X130414286Y-102604819D01*
X130700000Y-102604819D02*
X130700000Y-101604819D01*
X130700000Y-101604819D02*
X130604762Y-101747676D01*
X130604762Y-101747676D02*
X130509524Y-101842914D01*
X130509524Y-101842914D02*
X130414286Y-101890533D01*
X158033333Y-92909580D02*
X157985714Y-92957200D01*
X157985714Y-92957200D02*
X157842857Y-93004819D01*
X157842857Y-93004819D02*
X157747619Y-93004819D01*
X157747619Y-93004819D02*
X157604762Y-92957200D01*
X157604762Y-92957200D02*
X157509524Y-92861961D01*
X157509524Y-92861961D02*
X157461905Y-92766723D01*
X157461905Y-92766723D02*
X157414286Y-92576247D01*
X157414286Y-92576247D02*
X157414286Y-92433390D01*
X157414286Y-92433390D02*
X157461905Y-92242914D01*
X157461905Y-92242914D02*
X157509524Y-92147676D01*
X157509524Y-92147676D02*
X157604762Y-92052438D01*
X157604762Y-92052438D02*
X157747619Y-92004819D01*
X157747619Y-92004819D02*
X157842857Y-92004819D01*
X157842857Y-92004819D02*
X157985714Y-92052438D01*
X157985714Y-92052438D02*
X158033333Y-92100057D01*
X158890476Y-92004819D02*
X158700000Y-92004819D01*
X158700000Y-92004819D02*
X158604762Y-92052438D01*
X158604762Y-92052438D02*
X158557143Y-92100057D01*
X158557143Y-92100057D02*
X158461905Y-92242914D01*
X158461905Y-92242914D02*
X158414286Y-92433390D01*
X158414286Y-92433390D02*
X158414286Y-92814342D01*
X158414286Y-92814342D02*
X158461905Y-92909580D01*
X158461905Y-92909580D02*
X158509524Y-92957200D01*
X158509524Y-92957200D02*
X158604762Y-93004819D01*
X158604762Y-93004819D02*
X158795238Y-93004819D01*
X158795238Y-93004819D02*
X158890476Y-92957200D01*
X158890476Y-92957200D02*
X158938095Y-92909580D01*
X158938095Y-92909580D02*
X158985714Y-92814342D01*
X158985714Y-92814342D02*
X158985714Y-92576247D01*
X158985714Y-92576247D02*
X158938095Y-92481009D01*
X158938095Y-92481009D02*
X158890476Y-92433390D01*
X158890476Y-92433390D02*
X158795238Y-92385771D01*
X158795238Y-92385771D02*
X158604762Y-92385771D01*
X158604762Y-92385771D02*
X158509524Y-92433390D01*
X158509524Y-92433390D02*
X158461905Y-92481009D01*
X158461905Y-92481009D02*
X158414286Y-92576247D01*
X154514819Y-77566666D02*
X154038628Y-77899999D01*
X154514819Y-78138094D02*
X153514819Y-78138094D01*
X153514819Y-78138094D02*
X153514819Y-77757142D01*
X153514819Y-77757142D02*
X153562438Y-77661904D01*
X153562438Y-77661904D02*
X153610057Y-77614285D01*
X153610057Y-77614285D02*
X153705295Y-77566666D01*
X153705295Y-77566666D02*
X153848152Y-77566666D01*
X153848152Y-77566666D02*
X153943390Y-77614285D01*
X153943390Y-77614285D02*
X153991009Y-77661904D01*
X153991009Y-77661904D02*
X154038628Y-77757142D01*
X154038628Y-77757142D02*
X154038628Y-78138094D01*
X153514819Y-77233332D02*
X153514819Y-76566666D01*
X153514819Y-76566666D02*
X154514819Y-76995237D01*
X153704819Y-79841666D02*
X153228628Y-80174999D01*
X153704819Y-80413094D02*
X152704819Y-80413094D01*
X152704819Y-80413094D02*
X152704819Y-80032142D01*
X152704819Y-80032142D02*
X152752438Y-79936904D01*
X152752438Y-79936904D02*
X152800057Y-79889285D01*
X152800057Y-79889285D02*
X152895295Y-79841666D01*
X152895295Y-79841666D02*
X153038152Y-79841666D01*
X153038152Y-79841666D02*
X153133390Y-79889285D01*
X153133390Y-79889285D02*
X153181009Y-79936904D01*
X153181009Y-79936904D02*
X153228628Y-80032142D01*
X153228628Y-80032142D02*
X153228628Y-80413094D01*
X153133390Y-79270237D02*
X153085771Y-79365475D01*
X153085771Y-79365475D02*
X153038152Y-79413094D01*
X153038152Y-79413094D02*
X152942914Y-79460713D01*
X152942914Y-79460713D02*
X152895295Y-79460713D01*
X152895295Y-79460713D02*
X152800057Y-79413094D01*
X152800057Y-79413094D02*
X152752438Y-79365475D01*
X152752438Y-79365475D02*
X152704819Y-79270237D01*
X152704819Y-79270237D02*
X152704819Y-79079761D01*
X152704819Y-79079761D02*
X152752438Y-78984523D01*
X152752438Y-78984523D02*
X152800057Y-78936904D01*
X152800057Y-78936904D02*
X152895295Y-78889285D01*
X152895295Y-78889285D02*
X152942914Y-78889285D01*
X152942914Y-78889285D02*
X153038152Y-78936904D01*
X153038152Y-78936904D02*
X153085771Y-78984523D01*
X153085771Y-78984523D02*
X153133390Y-79079761D01*
X153133390Y-79079761D02*
X153133390Y-79270237D01*
X153133390Y-79270237D02*
X153181009Y-79365475D01*
X153181009Y-79365475D02*
X153228628Y-79413094D01*
X153228628Y-79413094D02*
X153323866Y-79460713D01*
X153323866Y-79460713D02*
X153514342Y-79460713D01*
X153514342Y-79460713D02*
X153609580Y-79413094D01*
X153609580Y-79413094D02*
X153657200Y-79365475D01*
X153657200Y-79365475D02*
X153704819Y-79270237D01*
X153704819Y-79270237D02*
X153704819Y-79079761D01*
X153704819Y-79079761D02*
X153657200Y-78984523D01*
X153657200Y-78984523D02*
X153609580Y-78936904D01*
X153609580Y-78936904D02*
X153514342Y-78889285D01*
X153514342Y-78889285D02*
X153323866Y-78889285D01*
X153323866Y-78889285D02*
X153228628Y-78936904D01*
X153228628Y-78936904D02*
X153181009Y-78984523D01*
X153181009Y-78984523D02*
X153133390Y-79079761D01*
X120816666Y-89004819D02*
X120816666Y-89719104D01*
X120816666Y-89719104D02*
X120769047Y-89861961D01*
X120769047Y-89861961D02*
X120673809Y-89957200D01*
X120673809Y-89957200D02*
X120530952Y-90004819D01*
X120530952Y-90004819D02*
X120435714Y-90004819D01*
X121816666Y-90004819D02*
X121245238Y-90004819D01*
X121530952Y-90004819D02*
X121530952Y-89004819D01*
X121530952Y-89004819D02*
X121435714Y-89147676D01*
X121435714Y-89147676D02*
X121340476Y-89242914D01*
X121340476Y-89242914D02*
X121245238Y-89290533D01*
X136283333Y-91029580D02*
X136235714Y-91077200D01*
X136235714Y-91077200D02*
X136092857Y-91124819D01*
X136092857Y-91124819D02*
X135997619Y-91124819D01*
X135997619Y-91124819D02*
X135854762Y-91077200D01*
X135854762Y-91077200D02*
X135759524Y-90981961D01*
X135759524Y-90981961D02*
X135711905Y-90886723D01*
X135711905Y-90886723D02*
X135664286Y-90696247D01*
X135664286Y-90696247D02*
X135664286Y-90553390D01*
X135664286Y-90553390D02*
X135711905Y-90362914D01*
X135711905Y-90362914D02*
X135759524Y-90267676D01*
X135759524Y-90267676D02*
X135854762Y-90172438D01*
X135854762Y-90172438D02*
X135997619Y-90124819D01*
X135997619Y-90124819D02*
X136092857Y-90124819D01*
X136092857Y-90124819D02*
X136235714Y-90172438D01*
X136235714Y-90172438D02*
X136283333Y-90220057D01*
X137140476Y-90458152D02*
X137140476Y-91124819D01*
X136902381Y-90077200D02*
X136664286Y-90791485D01*
X136664286Y-90791485D02*
X137283333Y-90791485D01*
X137216667Y-97857200D02*
X137359524Y-97904819D01*
X137359524Y-97904819D02*
X137597619Y-97904819D01*
X137597619Y-97904819D02*
X137692857Y-97857200D01*
X137692857Y-97857200D02*
X137740476Y-97809580D01*
X137740476Y-97809580D02*
X137788095Y-97714342D01*
X137788095Y-97714342D02*
X137788095Y-97619104D01*
X137788095Y-97619104D02*
X137740476Y-97523866D01*
X137740476Y-97523866D02*
X137692857Y-97476247D01*
X137692857Y-97476247D02*
X137597619Y-97428628D01*
X137597619Y-97428628D02*
X137407143Y-97381009D01*
X137407143Y-97381009D02*
X137311905Y-97333390D01*
X137311905Y-97333390D02*
X137264286Y-97285771D01*
X137264286Y-97285771D02*
X137216667Y-97190533D01*
X137216667Y-97190533D02*
X137216667Y-97095295D01*
X137216667Y-97095295D02*
X137264286Y-97000057D01*
X137264286Y-97000057D02*
X137311905Y-96952438D01*
X137311905Y-96952438D02*
X137407143Y-96904819D01*
X137407143Y-96904819D02*
X137645238Y-96904819D01*
X137645238Y-96904819D02*
X137788095Y-96952438D01*
X138121429Y-96904819D02*
X138359524Y-97904819D01*
X138359524Y-97904819D02*
X138550000Y-97190533D01*
X138550000Y-97190533D02*
X138740476Y-97904819D01*
X138740476Y-97904819D02*
X138978572Y-96904819D01*
X139311905Y-97000057D02*
X139359524Y-96952438D01*
X139359524Y-96952438D02*
X139454762Y-96904819D01*
X139454762Y-96904819D02*
X139692857Y-96904819D01*
X139692857Y-96904819D02*
X139788095Y-96952438D01*
X139788095Y-96952438D02*
X139835714Y-97000057D01*
X139835714Y-97000057D02*
X139883333Y-97095295D01*
X139883333Y-97095295D02*
X139883333Y-97190533D01*
X139883333Y-97190533D02*
X139835714Y-97333390D01*
X139835714Y-97333390D02*
X139264286Y-97904819D01*
X139264286Y-97904819D02*
X139883333Y-97904819D01*
X147083333Y-101154819D02*
X146750000Y-100678628D01*
X146511905Y-101154819D02*
X146511905Y-100154819D01*
X146511905Y-100154819D02*
X146892857Y-100154819D01*
X146892857Y-100154819D02*
X146988095Y-100202438D01*
X146988095Y-100202438D02*
X147035714Y-100250057D01*
X147035714Y-100250057D02*
X147083333Y-100345295D01*
X147083333Y-100345295D02*
X147083333Y-100488152D01*
X147083333Y-100488152D02*
X147035714Y-100583390D01*
X147035714Y-100583390D02*
X146988095Y-100631009D01*
X146988095Y-100631009D02*
X146892857Y-100678628D01*
X146892857Y-100678628D02*
X146511905Y-100678628D01*
X147416667Y-100154819D02*
X148035714Y-100154819D01*
X148035714Y-100154819D02*
X147702381Y-100535771D01*
X147702381Y-100535771D02*
X147845238Y-100535771D01*
X147845238Y-100535771D02*
X147940476Y-100583390D01*
X147940476Y-100583390D02*
X147988095Y-100631009D01*
X147988095Y-100631009D02*
X148035714Y-100726247D01*
X148035714Y-100726247D02*
X148035714Y-100964342D01*
X148035714Y-100964342D02*
X147988095Y-101059580D01*
X147988095Y-101059580D02*
X147940476Y-101107200D01*
X147940476Y-101107200D02*
X147845238Y-101154819D01*
X147845238Y-101154819D02*
X147559524Y-101154819D01*
X147559524Y-101154819D02*
X147464286Y-101107200D01*
X147464286Y-101107200D02*
X147416667Y-101059580D01*
X138688095Y-87204819D02*
X138688095Y-88014342D01*
X138688095Y-88014342D02*
X138735714Y-88109580D01*
X138735714Y-88109580D02*
X138783333Y-88157200D01*
X138783333Y-88157200D02*
X138878571Y-88204819D01*
X138878571Y-88204819D02*
X139069047Y-88204819D01*
X139069047Y-88204819D02*
X139164285Y-88157200D01*
X139164285Y-88157200D02*
X139211904Y-88109580D01*
X139211904Y-88109580D02*
X139259523Y-88014342D01*
X139259523Y-88014342D02*
X139259523Y-87204819D01*
X140259523Y-88204819D02*
X139688095Y-88204819D01*
X139973809Y-88204819D02*
X139973809Y-87204819D01*
X139973809Y-87204819D02*
X139878571Y-87347676D01*
X139878571Y-87347676D02*
X139783333Y-87442914D01*
X139783333Y-87442914D02*
X139688095Y-87490533D01*
X136283333Y-92529580D02*
X136235714Y-92577200D01*
X136235714Y-92577200D02*
X136092857Y-92624819D01*
X136092857Y-92624819D02*
X135997619Y-92624819D01*
X135997619Y-92624819D02*
X135854762Y-92577200D01*
X135854762Y-92577200D02*
X135759524Y-92481961D01*
X135759524Y-92481961D02*
X135711905Y-92386723D01*
X135711905Y-92386723D02*
X135664286Y-92196247D01*
X135664286Y-92196247D02*
X135664286Y-92053390D01*
X135664286Y-92053390D02*
X135711905Y-91862914D01*
X135711905Y-91862914D02*
X135759524Y-91767676D01*
X135759524Y-91767676D02*
X135854762Y-91672438D01*
X135854762Y-91672438D02*
X135997619Y-91624819D01*
X135997619Y-91624819D02*
X136092857Y-91624819D01*
X136092857Y-91624819D02*
X136235714Y-91672438D01*
X136235714Y-91672438D02*
X136283333Y-91720057D01*
X137188095Y-91624819D02*
X136711905Y-91624819D01*
X136711905Y-91624819D02*
X136664286Y-92101009D01*
X136664286Y-92101009D02*
X136711905Y-92053390D01*
X136711905Y-92053390D02*
X136807143Y-92005771D01*
X136807143Y-92005771D02*
X137045238Y-92005771D01*
X137045238Y-92005771D02*
X137140476Y-92053390D01*
X137140476Y-92053390D02*
X137188095Y-92101009D01*
X137188095Y-92101009D02*
X137235714Y-92196247D01*
X137235714Y-92196247D02*
X137235714Y-92434342D01*
X137235714Y-92434342D02*
X137188095Y-92529580D01*
X137188095Y-92529580D02*
X137140476Y-92577200D01*
X137140476Y-92577200D02*
X137045238Y-92624819D01*
X137045238Y-92624819D02*
X136807143Y-92624819D01*
X136807143Y-92624819D02*
X136711905Y-92577200D01*
X136711905Y-92577200D02*
X136664286Y-92529580D01*
X156438095Y-70704819D02*
X156438095Y-69704819D01*
X156438095Y-70181009D02*
X157009523Y-70181009D01*
X157009523Y-70704819D02*
X157009523Y-69704819D01*
X157438095Y-69800057D02*
X157485714Y-69752438D01*
X157485714Y-69752438D02*
X157580952Y-69704819D01*
X157580952Y-69704819D02*
X157819047Y-69704819D01*
X157819047Y-69704819D02*
X157914285Y-69752438D01*
X157914285Y-69752438D02*
X157961904Y-69800057D01*
X157961904Y-69800057D02*
X158009523Y-69895295D01*
X158009523Y-69895295D02*
X158009523Y-69990533D01*
X158009523Y-69990533D02*
X157961904Y-70133390D01*
X157961904Y-70133390D02*
X157390476Y-70704819D01*
X157390476Y-70704819D02*
X158009523Y-70704819D01*
X131933333Y-86109580D02*
X131885714Y-86157200D01*
X131885714Y-86157200D02*
X131742857Y-86204819D01*
X131742857Y-86204819D02*
X131647619Y-86204819D01*
X131647619Y-86204819D02*
X131504762Y-86157200D01*
X131504762Y-86157200D02*
X131409524Y-86061961D01*
X131409524Y-86061961D02*
X131361905Y-85966723D01*
X131361905Y-85966723D02*
X131314286Y-85776247D01*
X131314286Y-85776247D02*
X131314286Y-85633390D01*
X131314286Y-85633390D02*
X131361905Y-85442914D01*
X131361905Y-85442914D02*
X131409524Y-85347676D01*
X131409524Y-85347676D02*
X131504762Y-85252438D01*
X131504762Y-85252438D02*
X131647619Y-85204819D01*
X131647619Y-85204819D02*
X131742857Y-85204819D01*
X131742857Y-85204819D02*
X131885714Y-85252438D01*
X131885714Y-85252438D02*
X131933333Y-85300057D01*
X132885714Y-86204819D02*
X132314286Y-86204819D01*
X132600000Y-86204819D02*
X132600000Y-85204819D01*
X132600000Y-85204819D02*
X132504762Y-85347676D01*
X132504762Y-85347676D02*
X132409524Y-85442914D01*
X132409524Y-85442914D02*
X132314286Y-85490533D01*
X126683333Y-100154819D02*
X126350000Y-99678628D01*
X126111905Y-100154819D02*
X126111905Y-99154819D01*
X126111905Y-99154819D02*
X126492857Y-99154819D01*
X126492857Y-99154819D02*
X126588095Y-99202438D01*
X126588095Y-99202438D02*
X126635714Y-99250057D01*
X126635714Y-99250057D02*
X126683333Y-99345295D01*
X126683333Y-99345295D02*
X126683333Y-99488152D01*
X126683333Y-99488152D02*
X126635714Y-99583390D01*
X126635714Y-99583390D02*
X126588095Y-99631009D01*
X126588095Y-99631009D02*
X126492857Y-99678628D01*
X126492857Y-99678628D02*
X126111905Y-99678628D01*
X127064286Y-99250057D02*
X127111905Y-99202438D01*
X127111905Y-99202438D02*
X127207143Y-99154819D01*
X127207143Y-99154819D02*
X127445238Y-99154819D01*
X127445238Y-99154819D02*
X127540476Y-99202438D01*
X127540476Y-99202438D02*
X127588095Y-99250057D01*
X127588095Y-99250057D02*
X127635714Y-99345295D01*
X127635714Y-99345295D02*
X127635714Y-99440533D01*
X127635714Y-99440533D02*
X127588095Y-99583390D01*
X127588095Y-99583390D02*
X127016667Y-100154819D01*
X127016667Y-100154819D02*
X127635714Y-100154819D01*
X149933333Y-89339580D02*
X149885714Y-89387200D01*
X149885714Y-89387200D02*
X149742857Y-89434819D01*
X149742857Y-89434819D02*
X149647619Y-89434819D01*
X149647619Y-89434819D02*
X149504762Y-89387200D01*
X149504762Y-89387200D02*
X149409524Y-89291961D01*
X149409524Y-89291961D02*
X149361905Y-89196723D01*
X149361905Y-89196723D02*
X149314286Y-89006247D01*
X149314286Y-89006247D02*
X149314286Y-88863390D01*
X149314286Y-88863390D02*
X149361905Y-88672914D01*
X149361905Y-88672914D02*
X149409524Y-88577676D01*
X149409524Y-88577676D02*
X149504762Y-88482438D01*
X149504762Y-88482438D02*
X149647619Y-88434819D01*
X149647619Y-88434819D02*
X149742857Y-88434819D01*
X149742857Y-88434819D02*
X149885714Y-88482438D01*
X149885714Y-88482438D02*
X149933333Y-88530057D01*
X150266667Y-88434819D02*
X150933333Y-88434819D01*
X150933333Y-88434819D02*
X150504762Y-89434819D01*
%TO.C,U3*%
D10*
X145000000Y-60940000D02*
X148000000Y-60940000D01*
X148000000Y-63940000D01*
X145000000Y-63940000D01*
X145000000Y-60940000D01*
X133500000Y-60190000D02*
X149500000Y-60190000D01*
X149500000Y-86190000D01*
X133500000Y-86190000D01*
X133500000Y-60190000D01*
X144000000Y-64940000D02*
X148000000Y-64940000D01*
X148000000Y-85440000D01*
X135000000Y-85440000D01*
X135000000Y-60940000D01*
X144000000Y-60940000D01*
X144000000Y-64940000D01*
%TO.C,R5*%
D12*
X134427500Y-99737258D02*
X134427500Y-99262742D01*
X135472500Y-99737258D02*
X135472500Y-99262742D01*
%TO.C,U2*%
X154150000Y-83290000D02*
X157910000Y-83290000D01*
X154150000Y-90110000D02*
X157910000Y-90110000D01*
X157910000Y-83290000D02*
X157910000Y-84550000D01*
X157910000Y-90110000D02*
X157910000Y-88850000D01*
X152870000Y-83390000D02*
X152630000Y-83060000D01*
X153110000Y-83060000D01*
X152870000Y-83390000D01*
G36*
X152870000Y-83390000D02*
G01*
X152630000Y-83060000D01*
X153110000Y-83060000D01*
X152870000Y-83390000D01*
G37*
%TO.C,BZ1*%
X131900000Y-76350000D02*
G75*
G02*
X119700000Y-76350000I-6100000J0D01*
G01*
X119700000Y-76350000D02*
G75*
G02*
X131900000Y-76350000I6100000J0D01*
G01*
%TO.C,SW1*%
X127190000Y-90615000D02*
X127190000Y-91050000D01*
X127190000Y-92650000D02*
X127190000Y-95050000D01*
X127190000Y-96650000D02*
X127190000Y-97085000D01*
X127190000Y-97085000D02*
X133610000Y-97085000D01*
X133610000Y-90615000D02*
X127190000Y-90615000D01*
X133610000Y-91050000D02*
X133610000Y-90615000D01*
X133610000Y-95050000D02*
X133610000Y-92650000D01*
X133610000Y-97085000D02*
X133610000Y-96780000D01*
%TO.C,J3*%
X148545000Y-100345000D02*
X148545000Y-102345000D01*
X148545000Y-104245000D02*
X148545000Y-106145000D01*
X148545000Y-106145000D02*
X157945000Y-106145000D01*
X157945000Y-100345000D02*
X157945000Y-102345000D01*
X157945000Y-104245000D02*
X157945000Y-106145000D01*
%TO.C,U4*%
X156810000Y-80590000D02*
X155760000Y-80590000D01*
X156810000Y-82910000D02*
X155510000Y-82910000D01*
X155400000Y-80590000D02*
X155120000Y-80590000D01*
X155400000Y-80310000D01*
X155400000Y-80590000D01*
G36*
X155400000Y-80590000D02*
G01*
X155120000Y-80590000D01*
X155400000Y-80310000D01*
X155400000Y-80590000D01*
G37*
%TO.C,R1*%
X131462742Y-97667500D02*
X131937258Y-97667500D01*
X131462742Y-98712500D02*
X131937258Y-98712500D01*
%TO.C,R6*%
X120777500Y-69574758D02*
X120777500Y-69100242D01*
X121822500Y-69574758D02*
X121822500Y-69100242D01*
%TO.C,R4*%
X145127500Y-99187258D02*
X145127500Y-98712742D01*
X146172500Y-99187258D02*
X146172500Y-98712742D01*
%TO.C,C3*%
X155040580Y-93440000D02*
X154759420Y-93440000D01*
X155040580Y-94460000D02*
X154759420Y-94460000D01*
%TO.C,AE1*%
X151150000Y-58750000D02*
X151150000Y-66950000D01*
X151150000Y-58750000D02*
X159350000Y-58750000D01*
X151150000Y-63350000D02*
X151650000Y-62850000D01*
X151150000Y-66950000D02*
X159350000Y-66950000D01*
X151650000Y-62850000D02*
X151150000Y-62350000D01*
X159350000Y-58750000D02*
X159350000Y-66950000D01*
%TO.C,C2*%
X155015580Y-91940000D02*
X154734420Y-91940000D01*
X155015580Y-92960000D02*
X154734420Y-92960000D01*
%TO.C,R9*%
X158877500Y-80862742D02*
X158877500Y-81337258D01*
X159922500Y-80862742D02*
X159922500Y-81337258D01*
%TO.C,D1*%
X129315000Y-99015000D02*
X129315000Y-101285000D01*
X129315000Y-101285000D02*
X133200000Y-101285000D01*
X133200000Y-99015000D02*
X129315000Y-99015000D01*
%TO.C,C6*%
X159040580Y-90590000D02*
X158759420Y-90590000D01*
X159040580Y-91610000D02*
X158759420Y-91610000D01*
%TO.C,R7*%
X153477500Y-80462258D02*
X153477500Y-79987742D01*
X154522500Y-80462258D02*
X154522500Y-79987742D01*
%TO.C,R8*%
X153477500Y-77437258D02*
X153477500Y-76962742D01*
X154522500Y-77437258D02*
X154522500Y-76962742D01*
%TO.C,J1*%
X120770000Y-90690000D02*
X122150000Y-90690000D01*
X120770000Y-92070000D02*
X120770000Y-90690000D01*
X120770000Y-93340000D02*
X120770000Y-103610000D01*
X120770000Y-93340000D02*
X123530000Y-93340000D01*
X120770000Y-103610000D02*
X123530000Y-103610000D01*
X123530000Y-93340000D02*
X123530000Y-103610000D01*
%TO.C,C4*%
X136309420Y-91590000D02*
X136590580Y-91590000D01*
X136309420Y-92610000D02*
X136590580Y-92610000D01*
%TO.C,SW2*%
X137090000Y-98165000D02*
X137090000Y-98600000D01*
X137090000Y-100200000D02*
X137090000Y-102600000D01*
X137090000Y-104200000D02*
X137090000Y-104635000D01*
X137090000Y-104635000D02*
X143510000Y-104635000D01*
X143510000Y-98165000D02*
X137090000Y-98165000D01*
X143510000Y-98600000D02*
X143510000Y-98165000D01*
X143510000Y-102600000D02*
X143510000Y-100200000D01*
X143510000Y-104635000D02*
X143510000Y-104330000D01*
%TO.C,R3*%
X145127500Y-102187258D02*
X145127500Y-101712742D01*
X146172500Y-102187258D02*
X146172500Y-101712742D01*
%TO.C,U1*%
X139540000Y-88665000D02*
X139840000Y-88665000D01*
X139540000Y-88965000D02*
X139540000Y-88665000D01*
X139540000Y-95885000D02*
X139540000Y-95585000D01*
X139840000Y-95885000D02*
X139540000Y-95885000D01*
X146460000Y-88665000D02*
X146760000Y-88665000D01*
X146760000Y-88665000D02*
X146760000Y-88965000D01*
X146760000Y-95585000D02*
X146760000Y-95885000D01*
X146760000Y-95885000D02*
X146460000Y-95885000D01*
X138900000Y-88955000D02*
X138560000Y-88485000D01*
X139240000Y-88485000D01*
X138900000Y-88955000D01*
G36*
X138900000Y-88955000D02*
G01*
X138560000Y-88485000D01*
X139240000Y-88485000D01*
X138900000Y-88955000D01*
G37*
%TO.C,C5*%
X136309420Y-93090000D02*
X136590580Y-93090000D01*
X136309420Y-94110000D02*
X136590580Y-94110000D01*
%TO.C,C1*%
X130790000Y-83409420D02*
X130790000Y-83690580D01*
X131810000Y-83409420D02*
X131810000Y-83690580D01*
%TO.C,R2*%
X128462742Y-97677500D02*
X128937258Y-97677500D01*
X128462742Y-98722500D02*
X128937258Y-98722500D01*
%TO.C,C7*%
X150240580Y-87040000D02*
X149959420Y-87040000D01*
X150240580Y-88060000D02*
X149959420Y-88060000D01*
%TD*%
%LPC*%
D13*
%TO.C,U3*%
X149500000Y-84190000D03*
X149500000Y-82920000D03*
X149500000Y-81650000D03*
X149500000Y-80380000D03*
X149500000Y-79110000D03*
X149500000Y-77840000D03*
X149500000Y-76570000D03*
X149500000Y-75300000D03*
X149450000Y-64100000D03*
X149450000Y-62830000D03*
X149450000Y-61560000D03*
X133450000Y-61560000D03*
X133450000Y-62830000D03*
X133450000Y-64100000D03*
X133500000Y-75300000D03*
X133500000Y-76570000D03*
X133500000Y-77840000D03*
X133500000Y-79110000D03*
X133500000Y-80380000D03*
X133500000Y-81650000D03*
X133500000Y-82920000D03*
X133500000Y-84190000D03*
%TD*%
D14*
%TO.C,R5*%
X134950000Y-100325000D03*
X134950000Y-98675000D03*
%TD*%
D15*
%TO.C,H1*%
X124150000Y-63000000D03*
%TD*%
D16*
%TO.C,U2*%
X152850000Y-84400000D03*
X152850000Y-86700000D03*
D17*
X159150000Y-86700000D03*
D16*
X152850000Y-89000000D03*
%TD*%
D18*
%TO.C,BZ1*%
X129600000Y-76350000D03*
D19*
X122000000Y-76350000D03*
%TD*%
D20*
%TO.C,SW1*%
X127500000Y-91850000D03*
X133300000Y-91850000D03*
X127500000Y-95850000D03*
X133300000Y-95850000D03*
%TD*%
D21*
%TO.C,J3*%
X150355000Y-99645000D03*
X156135000Y-99645000D03*
D22*
X149995000Y-98200000D03*
X150795000Y-98200000D03*
D23*
X151995000Y-98200000D03*
X152995000Y-98200000D03*
X153495000Y-98200000D03*
X154495000Y-98200000D03*
D22*
X155695000Y-98200000D03*
X156495000Y-98200000D03*
X156495000Y-98200000D03*
X155695000Y-98200000D03*
D23*
X154995000Y-98200000D03*
X153995000Y-98200000D03*
X152495000Y-98200000D03*
X151495000Y-98200000D03*
D22*
X150795000Y-98200000D03*
X149995000Y-98200000D03*
D24*
X148925000Y-99115000D03*
D25*
X148925000Y-103295000D03*
D24*
X157565000Y-99115000D03*
D25*
X157565000Y-103295000D03*
%TD*%
D26*
%TO.C,U4*%
X155420000Y-81000000D03*
X155420000Y-81500000D03*
X155420000Y-82000000D03*
X155420000Y-82500000D03*
X156900000Y-82500000D03*
X156900000Y-82000000D03*
X156900000Y-81500000D03*
X156900000Y-81000000D03*
%TD*%
D27*
%TO.C,R1*%
X130875000Y-98190000D03*
X132525000Y-98190000D03*
%TD*%
D15*
%TO.C,H3*%
X126500000Y-101400000D03*
%TD*%
D14*
%TO.C,R6*%
X121300000Y-70162500D03*
X121300000Y-68512500D03*
%TD*%
%TO.C,R4*%
X145650000Y-99775000D03*
X145650000Y-98125000D03*
%TD*%
D28*
%TO.C,C3*%
X155675000Y-93950000D03*
X154125000Y-93950000D03*
%TD*%
D29*
%TO.C,AE1*%
X155250000Y-62850000D03*
D30*
X152710000Y-60310000D03*
X152710000Y-65390000D03*
X157790000Y-60310000D03*
X157790000Y-65390000D03*
%TD*%
D28*
%TO.C,C2*%
X155650000Y-92450000D03*
X154100000Y-92450000D03*
%TD*%
D31*
%TO.C,R9*%
X159400000Y-80275000D03*
X159400000Y-81925000D03*
%TD*%
D32*
%TO.C,D1*%
X130200000Y-100150000D03*
X133000000Y-100150000D03*
%TD*%
D28*
%TO.C,C6*%
X159675000Y-91100000D03*
X158125000Y-91100000D03*
%TD*%
D14*
%TO.C,R7*%
X154000000Y-81050000D03*
X154000000Y-79400000D03*
%TD*%
%TO.C,R8*%
X154000000Y-78025000D03*
X154000000Y-76375000D03*
%TD*%
D33*
%TO.C,J1*%
X122150000Y-92070000D03*
D34*
X122150000Y-94610000D03*
X122150000Y-97150000D03*
X122150000Y-99690000D03*
X122150000Y-102230000D03*
%TD*%
D35*
%TO.C,C4*%
X135675000Y-92100000D03*
X137225000Y-92100000D03*
%TD*%
D20*
%TO.C,SW2*%
X137400000Y-99400000D03*
X143200000Y-99400000D03*
X137400000Y-103400000D03*
X143200000Y-103400000D03*
%TD*%
D14*
%TO.C,R3*%
X145650000Y-102775000D03*
X145650000Y-101125000D03*
%TD*%
D36*
%TO.C,U1*%
X138975000Y-89475000D03*
X138975000Y-90275000D03*
X138975000Y-91075000D03*
X138975000Y-91875000D03*
X138975000Y-92675000D03*
X138975000Y-93475000D03*
X138975000Y-94275000D03*
X138975000Y-95075000D03*
D37*
X140350000Y-96450000D03*
X141150000Y-96450000D03*
X141950000Y-96450000D03*
X142750000Y-96450000D03*
X143550000Y-96450000D03*
X144350000Y-96450000D03*
X145150000Y-96450000D03*
X145950000Y-96450000D03*
D36*
X147325000Y-95075000D03*
X147325000Y-94275000D03*
X147325000Y-93475000D03*
X147325000Y-92675000D03*
X147325000Y-91875000D03*
X147325000Y-91075000D03*
X147325000Y-90275000D03*
X147325000Y-89475000D03*
D37*
X145950000Y-88100000D03*
X145150000Y-88100000D03*
X144350000Y-88100000D03*
X143550000Y-88100000D03*
X142750000Y-88100000D03*
X141950000Y-88100000D03*
X141150000Y-88100000D03*
X140350000Y-88100000D03*
%TD*%
D35*
%TO.C,C5*%
X135675000Y-93600000D03*
X137225000Y-93600000D03*
%TD*%
D15*
%TO.C,H2*%
X157200000Y-73400000D03*
%TD*%
D38*
%TO.C,C1*%
X131300000Y-82775000D03*
X131300000Y-84325000D03*
%TD*%
D27*
%TO.C,R2*%
X127875000Y-98200000D03*
X129525000Y-98200000D03*
%TD*%
D28*
%TO.C,C7*%
X150875000Y-87550000D03*
X149325000Y-87550000D03*
%TD*%
%LPD*%
M02*
