M48
; DRILL file KiCad 10.0.1 date 2026-04-30T19:11:56
; FORMAT={-:-/ absolute / inch / decimal}
; #@! TF.CreationDate,2026-04-30T19:11:56-05:00
; #@! TF.GenerationSoftware,Kicad,Pcbnew,10.0.1
; #@! TF.FileFunction,Plated,1,4,PTH
FMAT,2
INCH
; #@! TA.AperFunction,Plated,PTH,ViaDrill
T1C0.0236
; #@! TA.AperFunction,Plated,PTH,ComponentDrill
T2C0.0236
; #@! TA.AperFunction,Plated,PTH,ViaDrill
T3C0.0315
; #@! TA.AperFunction,Plated,PTH,ComponentDrill
T4C0.0394
; #@! TA.AperFunction,Plated,PTH,ComponentDrill
T5C0.0591
; #@! TA.AperFunction,Plated,PTH,ComponentDrill
T6C0.0669
%
G90
G05
T1
X4.7756Y-2.6314
X4.8169Y-3.2539
X4.878Y-3.437
X4.9862Y-3.8622
X5.0Y-2.6102
X5.0591Y-3.2165
X5.0591Y-3.9232
X5.0945Y-2.4331
X5.1004Y-3.437
X5.1535Y-2.7303
X5.1713Y-3.2087
X5.1752Y-2.9685
X5.2677Y-3.8543
X5.2776Y-3.6909
X5.2933Y-3.998
X5.3406Y-3.8406
X5.3799Y-3.8031
X5.3878Y-3.748
X5.3927Y-3.5226
X5.3976Y-3.4134
X5.4016Y-2.8524
X5.5278Y-3.6819
X5.565Y-2.6535
X5.5669Y-3.0531
X5.7126Y-3.5275
X5.7303Y-3.2402
X5.7343Y-4.0866
X5.7382Y-2.8524
X5.7413Y-3.5544
X5.8012Y-3.9665
X5.9291Y-3.7657
X5.935Y-3.5571
X5.9803Y-3.1398
X6.0098Y-2.9469
X6.0197Y-2.7441
X6.0709Y-3.2579
X6.1102Y-3.4843
X6.1122Y-2.374
X6.1142Y-3.3071
X6.1161Y-3.1004
X6.1614Y-3.1417
X6.1831Y-3.7972
X6.2146Y-2.7421
X6.2229Y-3.2382
X6.2323Y-3.0276
X6.2815Y-3.685
X6.313Y-3.1929
T3
X5.5453Y-3.628
T4
X4.8031Y-3.0059
X4.8091Y-3.6248
X4.8091Y-3.7248
X4.8091Y-3.8248
X4.8091Y-3.9248
X4.8091Y-4.0248
X5.1024Y-3.0059
T5
X6.1122Y-2.4744
T6
X6.0122Y-2.3744
X6.0122Y-2.5744
X6.2122Y-2.3744
X6.2122Y-2.5744
T2
G00X5.8632Y-3.8805
M15
G01X5.8632Y-3.9238
M16
G05
G00X5.8632Y-4.0549
M15
G01X5.8632Y-4.0785
M16
G05
G00X6.2033Y-3.8805
M15
G01X6.2033Y-3.9238
M16
G05
G00X6.2033Y-4.0549
M15
G01X6.2033Y-4.0785
M16
G05
M30
