%TF.GenerationSoftware,KiCad,Pcbnew,10.0.1*%
%TF.CreationDate,2026-05-04T19:00:33-05:00*%
%TF.ProjectId,KC_proj,4b435f70-726f-46a2-9e6b-696361645f70,rev?*%
%TF.SameCoordinates,Original*%
%TF.FileFunction,Legend,Bot*%
%TF.FilePolarity,Positive*%
%FSLAX46Y46*%
G04 Gerber Fmt 4.6, Leading zero omitted, Abs format (unit mm)*
G04 Created by KiCad (PCBNEW 10.0.1) date 2026-05-04 19:00:33*
%MOMM*%
%LPD*%
G01*
G04 APERTURE LIST*
G04 Aperture macros list*
%AMRoundRect*
0 Rectangle with rounded corners*
0 $1 Rounding radius*
0 $2 $3 $4 $5 $6 $7 $8 $9 X,Y pos of 4 corners*
0 Add a 4 corners polygon primitive as box body*
4,1,4,$2,$3,$4,$5,$6,$7,$8,$9,$2,$3,0*
0 Add four circle primitives for the rounded corners*
1,1,$1+$1,$2,$3*
1,1,$1+$1,$4,$5*
1,1,$1+$1,$6,$7*
1,1,$1+$1,$8,$9*
0 Add four rect primitives between the rounded corners*
20,1,$1+$1,$2,$3,$4,$5,0*
20,1,$1+$1,$4,$5,$6,$7,0*
20,1,$1+$1,$6,$7,$8,$9,0*
20,1,$1+$1,$8,$9,$2,$3,0*%
G04 Aperture macros list end*
%ADD10C,0.100000*%
%ADD11C,0.650000*%
%ADD12O,1.000000X2.100000*%
%ADD13O,1.000000X1.600000*%
%ADD14C,2.200000*%
%ADD15R,2.000000X2.000000*%
%ADD16C,2.000000*%
%ADD17RoundRect,0.200100X-0.949900X-0.949900X0.949900X-0.949900X0.949900X0.949900X-0.949900X0.949900X0*%
%ADD18C,2.500000*%
%ADD19R,1.700000X1.700000*%
%ADD20C,1.700000*%
G04 APERTURE END LIST*
D10*
X149069925Y-60592587D02*
X149546115Y-60592587D01*
X149546115Y-60592587D02*
X149546115Y-59592587D01*
X148736591Y-60592587D02*
X148736591Y-59925920D01*
X148736591Y-59592587D02*
X148784210Y-59640206D01*
X148784210Y-59640206D02*
X148736591Y-59687825D01*
X148736591Y-59687825D02*
X148688972Y-59640206D01*
X148688972Y-59640206D02*
X148736591Y-59592587D01*
X148736591Y-59592587D02*
X148736591Y-59687825D01*
X147831830Y-59925920D02*
X147831830Y-60925920D01*
X147831830Y-60544968D02*
X147927068Y-60592587D01*
X147927068Y-60592587D02*
X148117544Y-60592587D01*
X148117544Y-60592587D02*
X148212782Y-60544968D01*
X148212782Y-60544968D02*
X148260401Y-60497348D01*
X148260401Y-60497348D02*
X148308020Y-60402110D01*
X148308020Y-60402110D02*
X148308020Y-60116396D01*
X148308020Y-60116396D02*
X148260401Y-60021158D01*
X148260401Y-60021158D02*
X148212782Y-59973539D01*
X148212782Y-59973539D02*
X148117544Y-59925920D01*
X148117544Y-59925920D02*
X147927068Y-59925920D01*
X147927068Y-59925920D02*
X147831830Y-59973539D01*
X146927068Y-59925920D02*
X146927068Y-60592587D01*
X147355639Y-59925920D02*
X147355639Y-60449729D01*
X147355639Y-60449729D02*
X147308020Y-60544968D01*
X147308020Y-60544968D02*
X147212782Y-60592587D01*
X147212782Y-60592587D02*
X147069925Y-60592587D01*
X147069925Y-60592587D02*
X146974687Y-60544968D01*
X146974687Y-60544968D02*
X146927068Y-60497348D01*
X146450877Y-60592587D02*
X146450877Y-59925920D01*
X146450877Y-59592587D02*
X146498496Y-59640206D01*
X146498496Y-59640206D02*
X146450877Y-59687825D01*
X146450877Y-59687825D02*
X146403258Y-59640206D01*
X146403258Y-59640206D02*
X146450877Y-59592587D01*
X146450877Y-59592587D02*
X146450877Y-59687825D01*
X145546116Y-60592587D02*
X145546116Y-59592587D01*
X145546116Y-60544968D02*
X145641354Y-60592587D01*
X145641354Y-60592587D02*
X145831830Y-60592587D01*
X145831830Y-60592587D02*
X145927068Y-60544968D01*
X145927068Y-60544968D02*
X145974687Y-60497348D01*
X145974687Y-60497348D02*
X146022306Y-60402110D01*
X146022306Y-60402110D02*
X146022306Y-60116396D01*
X146022306Y-60116396D02*
X145974687Y-60021158D01*
X145974687Y-60021158D02*
X145927068Y-59973539D01*
X145927068Y-59973539D02*
X145831830Y-59925920D01*
X145831830Y-59925920D02*
X145641354Y-59925920D01*
X145641354Y-59925920D02*
X145546116Y-59973539D01*
X143736592Y-60592587D02*
X144069925Y-60116396D01*
X144308020Y-60592587D02*
X144308020Y-59592587D01*
X144308020Y-59592587D02*
X143927068Y-59592587D01*
X143927068Y-59592587D02*
X143831830Y-59640206D01*
X143831830Y-59640206D02*
X143784211Y-59687825D01*
X143784211Y-59687825D02*
X143736592Y-59783063D01*
X143736592Y-59783063D02*
X143736592Y-59925920D01*
X143736592Y-59925920D02*
X143784211Y-60021158D01*
X143784211Y-60021158D02*
X143831830Y-60068777D01*
X143831830Y-60068777D02*
X143927068Y-60116396D01*
X143927068Y-60116396D02*
X144308020Y-60116396D01*
X143165163Y-60592587D02*
X143260401Y-60544968D01*
X143260401Y-60544968D02*
X143308020Y-60497348D01*
X143308020Y-60497348D02*
X143355639Y-60402110D01*
X143355639Y-60402110D02*
X143355639Y-60116396D01*
X143355639Y-60116396D02*
X143308020Y-60021158D01*
X143308020Y-60021158D02*
X143260401Y-59973539D01*
X143260401Y-59973539D02*
X143165163Y-59925920D01*
X143165163Y-59925920D02*
X143022306Y-59925920D01*
X143022306Y-59925920D02*
X142927068Y-59973539D01*
X142927068Y-59973539D02*
X142879449Y-60021158D01*
X142879449Y-60021158D02*
X142831830Y-60116396D01*
X142831830Y-60116396D02*
X142831830Y-60402110D01*
X142831830Y-60402110D02*
X142879449Y-60497348D01*
X142879449Y-60497348D02*
X142927068Y-60544968D01*
X142927068Y-60544968D02*
X143022306Y-60592587D01*
X143022306Y-60592587D02*
X143165163Y-60592587D01*
X141974687Y-60544968D02*
X142069925Y-60592587D01*
X142069925Y-60592587D02*
X142260401Y-60592587D01*
X142260401Y-60592587D02*
X142355639Y-60544968D01*
X142355639Y-60544968D02*
X142403258Y-60497348D01*
X142403258Y-60497348D02*
X142450877Y-60402110D01*
X142450877Y-60402110D02*
X142450877Y-60116396D01*
X142450877Y-60116396D02*
X142403258Y-60021158D01*
X142403258Y-60021158D02*
X142355639Y-59973539D01*
X142355639Y-59973539D02*
X142260401Y-59925920D01*
X142260401Y-59925920D02*
X142069925Y-59925920D01*
X142069925Y-59925920D02*
X141974687Y-59973539D01*
X141546115Y-60592587D02*
X141546115Y-59592587D01*
X141450877Y-60211634D02*
X141165163Y-60592587D01*
X141165163Y-59925920D02*
X141546115Y-60306872D01*
X140355639Y-60544968D02*
X140450877Y-60592587D01*
X140450877Y-60592587D02*
X140641353Y-60592587D01*
X140641353Y-60592587D02*
X140736591Y-60544968D01*
X140736591Y-60544968D02*
X140784210Y-60449729D01*
X140784210Y-60449729D02*
X140784210Y-60068777D01*
X140784210Y-60068777D02*
X140736591Y-59973539D01*
X140736591Y-59973539D02*
X140641353Y-59925920D01*
X140641353Y-59925920D02*
X140450877Y-59925920D01*
X140450877Y-59925920D02*
X140355639Y-59973539D01*
X140355639Y-59973539D02*
X140308020Y-60068777D01*
X140308020Y-60068777D02*
X140308020Y-60164015D01*
X140308020Y-60164015D02*
X140784210Y-60259253D01*
X140022305Y-59925920D02*
X139641353Y-59925920D01*
X139879448Y-59592587D02*
X139879448Y-60449729D01*
X139879448Y-60449729D02*
X139831829Y-60544968D01*
X139831829Y-60544968D02*
X139736591Y-60592587D01*
X139736591Y-60592587D02*
X139641353Y-60592587D01*
X139308019Y-60592587D02*
X139308019Y-59925920D01*
X139308019Y-60116396D02*
X139260400Y-60021158D01*
X139260400Y-60021158D02*
X139212781Y-59973539D01*
X139212781Y-59973539D02*
X139117543Y-59925920D01*
X139117543Y-59925920D02*
X139022305Y-59925920D01*
X138784209Y-59925920D02*
X138546114Y-60592587D01*
X138308019Y-59925920D02*
X138546114Y-60592587D01*
X138546114Y-60592587D02*
X138641352Y-60830682D01*
X138641352Y-60830682D02*
X138688971Y-60878301D01*
X138688971Y-60878301D02*
X138784209Y-60925920D01*
X136736590Y-60592587D02*
X136736590Y-60068777D01*
X136736590Y-60068777D02*
X136784209Y-59973539D01*
X136784209Y-59973539D02*
X136879447Y-59925920D01*
X136879447Y-59925920D02*
X137069923Y-59925920D01*
X137069923Y-59925920D02*
X137165161Y-59973539D01*
X136736590Y-60544968D02*
X136831828Y-60592587D01*
X136831828Y-60592587D02*
X137069923Y-60592587D01*
X137069923Y-60592587D02*
X137165161Y-60544968D01*
X137165161Y-60544968D02*
X137212780Y-60449729D01*
X137212780Y-60449729D02*
X137212780Y-60354491D01*
X137212780Y-60354491D02*
X137165161Y-60259253D01*
X137165161Y-60259253D02*
X137069923Y-60211634D01*
X137069923Y-60211634D02*
X136831828Y-60211634D01*
X136831828Y-60211634D02*
X136736590Y-60164015D01*
X136403256Y-59925920D02*
X136022304Y-59925920D01*
X136260399Y-59592587D02*
X136260399Y-60449729D01*
X136260399Y-60449729D02*
X136212780Y-60544968D01*
X136212780Y-60544968D02*
X136117542Y-60592587D01*
X136117542Y-60592587D02*
X136022304Y-60592587D01*
X149546115Y-62202531D02*
X149546115Y-61202531D01*
X148927068Y-62202531D02*
X149022306Y-62154912D01*
X149022306Y-62154912D02*
X149069925Y-62059673D01*
X149069925Y-62059673D02*
X149069925Y-61202531D01*
X148403258Y-62202531D02*
X148498496Y-62154912D01*
X148498496Y-62154912D02*
X148546115Y-62059673D01*
X148546115Y-62059673D02*
X148546115Y-61202531D01*
X148022305Y-62202531D02*
X148022305Y-61535864D01*
X148022305Y-61202531D02*
X148069924Y-61250150D01*
X148069924Y-61250150D02*
X148022305Y-61297769D01*
X148022305Y-61297769D02*
X147974686Y-61250150D01*
X147974686Y-61250150D02*
X148022305Y-61202531D01*
X148022305Y-61202531D02*
X148022305Y-61297769D01*
X147546115Y-61535864D02*
X147546115Y-62202531D01*
X147546115Y-61631102D02*
X147498496Y-61583483D01*
X147498496Y-61583483D02*
X147403258Y-61535864D01*
X147403258Y-61535864D02*
X147260401Y-61535864D01*
X147260401Y-61535864D02*
X147165163Y-61583483D01*
X147165163Y-61583483D02*
X147117544Y-61678721D01*
X147117544Y-61678721D02*
X147117544Y-62202531D01*
X146498496Y-62202531D02*
X146593734Y-62154912D01*
X146593734Y-62154912D02*
X146641353Y-62107292D01*
X146641353Y-62107292D02*
X146688972Y-62012054D01*
X146688972Y-62012054D02*
X146688972Y-61726340D01*
X146688972Y-61726340D02*
X146641353Y-61631102D01*
X146641353Y-61631102D02*
X146593734Y-61583483D01*
X146593734Y-61583483D02*
X146498496Y-61535864D01*
X146498496Y-61535864D02*
X146355639Y-61535864D01*
X146355639Y-61535864D02*
X146260401Y-61583483D01*
X146260401Y-61583483D02*
X146212782Y-61631102D01*
X146212782Y-61631102D02*
X146165163Y-61726340D01*
X146165163Y-61726340D02*
X146165163Y-62012054D01*
X146165163Y-62012054D02*
X146212782Y-62107292D01*
X146212782Y-62107292D02*
X146260401Y-62154912D01*
X146260401Y-62154912D02*
X146355639Y-62202531D01*
X146355639Y-62202531D02*
X146498496Y-62202531D01*
X145736591Y-62202531D02*
X145736591Y-61535864D01*
X145736591Y-61202531D02*
X145784210Y-61250150D01*
X145784210Y-61250150D02*
X145736591Y-61297769D01*
X145736591Y-61297769D02*
X145688972Y-61250150D01*
X145688972Y-61250150D02*
X145736591Y-61202531D01*
X145736591Y-61202531D02*
X145736591Y-61297769D01*
X145308020Y-62154912D02*
X145212782Y-62202531D01*
X145212782Y-62202531D02*
X145022306Y-62202531D01*
X145022306Y-62202531D02*
X144927068Y-62154912D01*
X144927068Y-62154912D02*
X144879449Y-62059673D01*
X144879449Y-62059673D02*
X144879449Y-62012054D01*
X144879449Y-62012054D02*
X144927068Y-61916816D01*
X144927068Y-61916816D02*
X145022306Y-61869197D01*
X145022306Y-61869197D02*
X145165163Y-61869197D01*
X145165163Y-61869197D02*
X145260401Y-61821578D01*
X145260401Y-61821578D02*
X145308020Y-61726340D01*
X145308020Y-61726340D02*
X145308020Y-61678721D01*
X145308020Y-61678721D02*
X145260401Y-61583483D01*
X145260401Y-61583483D02*
X145165163Y-61535864D01*
X145165163Y-61535864D02*
X145022306Y-61535864D01*
X145022306Y-61535864D02*
X144927068Y-61583483D01*
X149546115Y-65422419D02*
X149546115Y-64422419D01*
X149546115Y-64898609D02*
X148974687Y-64898609D01*
X148974687Y-65422419D02*
X148974687Y-64422419D01*
X148546115Y-65136704D02*
X148069925Y-65136704D01*
X148641353Y-65422419D02*
X148308020Y-64422419D01*
X148308020Y-64422419D02*
X147974687Y-65422419D01*
X147165163Y-65422419D02*
X147641353Y-65422419D01*
X147641353Y-65422419D02*
X147641353Y-64422419D01*
X146831829Y-65041466D02*
X146069925Y-65041466D01*
X145069925Y-65422419D02*
X145641353Y-65422419D01*
X145355639Y-65422419D02*
X145355639Y-64422419D01*
X145355639Y-64422419D02*
X145450877Y-64565276D01*
X145450877Y-64565276D02*
X145546115Y-64660514D01*
X145546115Y-64660514D02*
X145641353Y-64708133D01*
X144641353Y-65041466D02*
X143879449Y-65041466D01*
X142879449Y-64470038D02*
X142974687Y-64422419D01*
X142974687Y-64422419D02*
X143117544Y-64422419D01*
X143117544Y-64422419D02*
X143260401Y-64470038D01*
X143260401Y-64470038D02*
X143355639Y-64565276D01*
X143355639Y-64565276D02*
X143403258Y-64660514D01*
X143403258Y-64660514D02*
X143450877Y-64850990D01*
X143450877Y-64850990D02*
X143450877Y-64993847D01*
X143450877Y-64993847D02*
X143403258Y-65184323D01*
X143403258Y-65184323D02*
X143355639Y-65279561D01*
X143355639Y-65279561D02*
X143260401Y-65374800D01*
X143260401Y-65374800D02*
X143117544Y-65422419D01*
X143117544Y-65422419D02*
X143022306Y-65422419D01*
X143022306Y-65422419D02*
X142879449Y-65374800D01*
X142879449Y-65374800D02*
X142831830Y-65327180D01*
X142831830Y-65327180D02*
X142831830Y-64993847D01*
X142831830Y-64993847D02*
X143022306Y-64993847D01*
X142403258Y-65422419D02*
X142403258Y-64422419D01*
X142403258Y-64422419D02*
X141831830Y-65422419D01*
X141831830Y-65422419D02*
X141831830Y-64422419D01*
X141355639Y-65422419D02*
X141355639Y-64422419D01*
X141355639Y-64422419D02*
X141117544Y-64422419D01*
X141117544Y-64422419D02*
X140974687Y-64470038D01*
X140974687Y-64470038D02*
X140879449Y-64565276D01*
X140879449Y-64565276D02*
X140831830Y-64660514D01*
X140831830Y-64660514D02*
X140784211Y-64850990D01*
X140784211Y-64850990D02*
X140784211Y-64993847D01*
X140784211Y-64993847D02*
X140831830Y-65184323D01*
X140831830Y-65184323D02*
X140879449Y-65279561D01*
X140879449Y-65279561D02*
X140974687Y-65374800D01*
X140974687Y-65374800D02*
X141117544Y-65422419D01*
X141117544Y-65422419D02*
X141355639Y-65422419D01*
X139593734Y-65422419D02*
X139593734Y-64422419D01*
X139593734Y-64422419D02*
X139260401Y-65136704D01*
X139260401Y-65136704D02*
X138927068Y-64422419D01*
X138927068Y-64422419D02*
X138927068Y-65422419D01*
X138450877Y-65422419D02*
X138450877Y-64422419D01*
X137879449Y-65422419D02*
X138308020Y-64850990D01*
X137879449Y-64422419D02*
X138450877Y-64993847D01*
X137450877Y-65422419D02*
X137450877Y-64422419D01*
%LPC*%
D11*
%TO.C,J2*%
X150355000Y-99645000D03*
X156135000Y-99645000D03*
D12*
X148925000Y-99115000D03*
D13*
X148925000Y-103295000D03*
D12*
X157565000Y-99115000D03*
D13*
X157565000Y-103295000D03*
%TD*%
D14*
%TO.C,H1*%
X124150000Y-63000000D03*
%TD*%
D15*
%TO.C,BZ1*%
X129550000Y-78000000D03*
D16*
X121950000Y-78000000D03*
%TD*%
D14*
%TO.C,H3*%
X126500000Y-101400000D03*
%TD*%
D17*
%TO.C,AE1*%
X155250000Y-62850000D03*
D18*
X152710000Y-60310000D03*
X152710000Y-65390000D03*
X157790000Y-60310000D03*
X157790000Y-65390000D03*
%TD*%
D19*
%TO.C,J1*%
X122150000Y-92070000D03*
D20*
X122150000Y-94610000D03*
X122150000Y-97150000D03*
X122150000Y-99690000D03*
X122150000Y-102230000D03*
%TD*%
D14*
%TO.C,H2*%
X157200000Y-73400000D03*
%TD*%
%LPD*%
M02*
