%TF.GenerationSoftware,KiCad,Pcbnew,10.0.1*%
%TF.CreationDate,2026-05-04T19:00:33-05:00*%
%TF.ProjectId,KC_proj,4b435f70-726f-46a2-9e6b-696361645f70,rev?*%
%TF.SameCoordinates,Original*%
%TF.FileFunction,Copper,L1,Top*%
%TF.FilePolarity,Positive*%
%FSLAX46Y46*%
G04 Gerber Fmt 4.6, Leading zero omitted, Abs format (unit mm)*
G04 Created by KiCad (PCBNEW 10.0.1) date 2026-05-04 19:00:33*
%MOMM*%
%LPD*%
G01*
G04 APERTURE LIST*
G04 Aperture macros list*
%AMRoundRect*
0 Rectangle with rounded corners*
0 $1 Rounding radius*
0 $2 $3 $4 $5 $6 $7 $8 $9 X,Y pos of 4 corners*
0 Add a 4 corners polygon primitive as box body*
4,1,4,$2,$3,$4,$5,$6,$7,$8,$9,$2,$3,0*
0 Add four circle primitives for the rounded corners*
1,1,$1+$1,$2,$3*
1,1,$1+$1,$4,$5*
1,1,$1+$1,$6,$7*
1,1,$1+$1,$8,$9*
0 Add four rect primitives between the rounded corners*
20,1,$1+$1,$2,$3,$4,$5,0*
20,1,$1+$1,$4,$5,$6,$7,0*
20,1,$1+$1,$6,$7,$8,$9,0*
20,1,$1+$1,$8,$9,$2,$3,0*%
G04 Aperture macros list end*
%TA.AperFunction,SMDPad,CuDef*%
%ADD10RoundRect,0.150000X-0.150000X-0.575000X0.150000X-0.575000X0.150000X0.575000X-0.150000X0.575000X0*%
%TD*%
%TA.AperFunction,SMDPad,CuDef*%
%ADD11RoundRect,0.075000X-0.075000X-0.650000X0.075000X-0.650000X0.075000X0.650000X-0.075000X0.650000X0*%
%TD*%
%TA.AperFunction,ComponentPad*%
%ADD12O,1.000000X2.100000*%
%TD*%
%TA.AperFunction,ComponentPad*%
%ADD13O,1.000000X1.600000*%
%TD*%
%TA.AperFunction,SMDPad,CuDef*%
%ADD14RoundRect,0.218750X-0.218750X-0.256250X0.218750X-0.256250X0.218750X0.256250X-0.218750X0.256250X0*%
%TD*%
%TA.AperFunction,SMDPad,CuDef*%
%ADD15RoundRect,0.225000X-0.250000X0.225000X-0.250000X-0.225000X0.250000X-0.225000X0.250000X0.225000X0*%
%TD*%
%TA.AperFunction,SMDPad,CuDef*%
%ADD16R,1.800000X0.900000*%
%TD*%
%TA.AperFunction,SMDPad,CuDef*%
%ADD17RoundRect,0.200000X0.275000X-0.200000X0.275000X0.200000X-0.275000X0.200000X-0.275000X-0.200000X0*%
%TD*%
%TA.AperFunction,SMDPad,CuDef*%
%ADD18RoundRect,0.375000X-0.625000X-0.375000X0.625000X-0.375000X0.625000X0.375000X-0.625000X0.375000X0*%
%TD*%
%TA.AperFunction,SMDPad,CuDef*%
%ADD19RoundRect,0.500000X-0.500000X-1.400000X0.500000X-1.400000X0.500000X1.400000X-0.500000X1.400000X0*%
%TD*%
%TA.AperFunction,ComponentPad*%
%ADD20R,2.000000X2.000000*%
%TD*%
%TA.AperFunction,ComponentPad*%
%ADD21C,2.000000*%
%TD*%
%TA.AperFunction,SMDPad,CuDef*%
%ADD22RoundRect,0.250000X-1.150000X-0.250000X1.150000X-0.250000X1.150000X0.250000X-1.150000X0.250000X0*%
%TD*%
%TA.AperFunction,SMDPad,CuDef*%
%ADD23RoundRect,0.050000X-0.285000X-0.100000X0.285000X-0.100000X0.285000X0.100000X-0.285000X0.100000X0*%
%TD*%
%TA.AperFunction,SMDPad,CuDef*%
%ADD24RoundRect,0.200000X-0.200000X-0.275000X0.200000X-0.275000X0.200000X0.275000X-0.200000X0.275000X0*%
%TD*%
%TA.AperFunction,SMDPad,CuDef*%
%ADD25RoundRect,0.225000X0.225000X0.250000X-0.225000X0.250000X-0.225000X-0.250000X0.225000X-0.250000X0*%
%TD*%
%TA.AperFunction,ComponentPad*%
%ADD26RoundRect,0.200100X-0.949900X-0.949900X0.949900X-0.949900X0.949900X0.949900X-0.949900X0.949900X0*%
%TD*%
%TA.AperFunction,ComponentPad*%
%ADD27C,2.500000*%
%TD*%
%TA.AperFunction,SMDPad,CuDef*%
%ADD28RoundRect,0.200000X-0.275000X0.200000X-0.275000X-0.200000X0.275000X-0.200000X0.275000X0.200000X0*%
%TD*%
%TA.AperFunction,ComponentPad*%
%ADD29R,1.700000X1.700000*%
%TD*%
%TA.AperFunction,ComponentPad*%
%ADD30C,1.700000*%
%TD*%
%TA.AperFunction,SMDPad,CuDef*%
%ADD31RoundRect,0.225000X-0.225000X-0.250000X0.225000X-0.250000X0.225000X0.250000X-0.225000X0.250000X0*%
%TD*%
%TA.AperFunction,SMDPad,CuDef*%
%ADD32RoundRect,0.125000X-0.625000X-0.125000X0.625000X-0.125000X0.625000X0.125000X-0.625000X0.125000X0*%
%TD*%
%TA.AperFunction,SMDPad,CuDef*%
%ADD33RoundRect,0.125000X-0.125000X-0.625000X0.125000X-0.625000X0.125000X0.625000X-0.125000X0.625000X0*%
%TD*%
%TA.AperFunction,ViaPad*%
%ADD34C,1.000000*%
%TD*%
%TA.AperFunction,ViaPad*%
%ADD35C,0.600000*%
%TD*%
%TA.AperFunction,ViaPad*%
%ADD36C,0.800000*%
%TD*%
%TA.AperFunction,Conductor*%
%ADD37C,0.200000*%
%TD*%
%TA.AperFunction,Conductor*%
%ADD38C,0.300000*%
%TD*%
%TA.AperFunction,Conductor*%
%ADD39C,0.500000*%
%TD*%
%TA.AperFunction,Conductor*%
%ADD40C,0.600000*%
%TD*%
%TA.AperFunction,Conductor*%
%ADD41C,0.800000*%
%TD*%
%TA.AperFunction,Conductor*%
%ADD42C,1.000000*%
%TD*%
%TA.AperFunction,Conductor*%
%ADD43C,0.900000*%
%TD*%
%TA.AperFunction,Conductor*%
%ADD44C,0.700000*%
%TD*%
%TA.AperFunction,Conductor*%
%ADD45C,0.400000*%
%TD*%
G04 APERTURE END LIST*
D10*
%TO.P,J2,A1,GND_A1*%
%TO.N,GND*%
X149995000Y-98200000D03*
%TO.P,J2,A4,VBUS_A4*%
%TO.N,Net-(U2-VI)*%
X150795000Y-98200000D03*
D11*
%TO.P,J2,A5,CC1_A5*%
%TO.N,unconnected-(J2-CC1-PadA5)*%
X151995000Y-98200000D03*
%TO.P,J2,A6,D+_A6*%
%TO.N,Net-(J2-D+-PadA6)*%
X152995000Y-98200000D03*
%TO.P,J2,A7,D-_A7*%
%TO.N,Net-(J2-D--PadA7)*%
X153495000Y-98200000D03*
%TO.P,J2,A8*%
%TO.N,N/C*%
X154495000Y-98200000D03*
D10*
%TO.P,J2,A9,VBUS_A9*%
%TO.N,Net-(U2-VI)*%
X155695000Y-98200000D03*
%TO.P,J2,A12,GND_A12*%
%TO.N,GND*%
X156495000Y-98200000D03*
%TO.P,J2,B1,GND_B1*%
X156495000Y-98200000D03*
%TO.P,J2,B4,VBUS_B4*%
%TO.N,Net-(U2-VI)*%
X155695000Y-98200000D03*
D11*
%TO.P,J2,B5,CC2_B5*%
%TO.N,unconnected-(J2-CC2-PadB5)*%
X154995000Y-98200000D03*
%TO.P,J2,B6,D+_B6*%
%TO.N,Net-(J2-D+-PadA6)*%
X153995000Y-98200000D03*
%TO.P,J2,B7,D-_B7*%
%TO.N,Net-(J2-D--PadA7)*%
X152495000Y-98200000D03*
%TO.P,J2,B8*%
%TO.N,N/C*%
X151495000Y-98200000D03*
D10*
%TO.P,J2,B9,VBUS_B9*%
%TO.N,Net-(U2-VI)*%
X150795000Y-98200000D03*
%TO.P,J2,B12,GND_B12*%
%TO.N,GND*%
X149995000Y-98200000D03*
D12*
%TO.P,J2,SH,SHIELD_SH*%
%TO.N,unconnected-(J2-SHIELD-PadSH)_2*%
X148925000Y-99115000D03*
D13*
%TO.N,unconnected-(J2-SHIELD-PadSH)*%
X148925000Y-103295000D03*
D12*
%TO.N,unconnected-(J2-SHIELD-PadSH)_3*%
X157565000Y-99115000D03*
D13*
%TO.N,unconnected-(J2-SHIELD-PadSH)_1*%
X157565000Y-103295000D03*
%TD*%
D14*
%TO.P,D1,1,K_1*%
%TO.N,GND*%
X131512500Y-100300000D03*
%TO.P,D1,2,A_2*%
%TO.N,Net-(D1-A)*%
X133087500Y-100300000D03*
%TD*%
D15*
%TO.P,C9,1*%
%TO.N,GND*%
X153200000Y-72125000D03*
%TO.P,C9,2*%
%TO.N,/STLink_3v3*%
X153200000Y-73675000D03*
%TD*%
D16*
%TO.P,U3,1,RESET_1*%
%TO.N,/RADIO_RST*%
X149500000Y-84190000D03*
%TO.P,U3,2,GND_2*%
%TO.N,GND*%
X149500000Y-82920000D03*
%TO.P,U3,3*%
%TO.N,N/C*%
X149500000Y-81650000D03*
%TO.P,U3,4*%
X149500000Y-80380000D03*
%TO.P,U3,5*%
X149500000Y-79110000D03*
%TO.P,U3,6*%
X149500000Y-77840000D03*
%TO.P,U3,7*%
X149500000Y-76570000D03*
%TO.P,U3,8,GND_8*%
%TO.N,GND*%
X149500000Y-75300000D03*
%TO.P,U3,11,GND_11*%
X149450000Y-64100000D03*
%TO.P,U3,12,ANT_12*%
%TO.N,Net-(AE1-A)*%
X149450000Y-62830000D03*
%TO.P,U3,13,GND_13*%
%TO.N,GND*%
X149450000Y-61560000D03*
%TO.P,U3,14,GND_14*%
X133450000Y-61560000D03*
%TO.P,U3,15,GND_15*%
X133450000Y-62830000D03*
%TO.P,U3,16,GND_16*%
X133450000Y-64100000D03*
%TO.P,U3,19,GND_19*%
X133500000Y-75300000D03*
%TO.P,U3,20,M0_20*%
%TO.N,/M0*%
X133500000Y-76570000D03*
%TO.P,U3,21,M1_21*%
%TO.N,/M1*%
X133500000Y-77840000D03*
%TO.P,U3,22,RX_22*%
%TO.N,/MCU_TX*%
X133500000Y-79110000D03*
%TO.P,U3,23,TX_23*%
%TO.N,/MCU_RX*%
X133500000Y-80380000D03*
%TO.P,U3,24,AUX_24*%
%TO.N,/AUX*%
X133500000Y-81650000D03*
%TO.P,U3,25,VCC_25*%
%TO.N,+3V3*%
X133500000Y-82920000D03*
%TO.P,U3,26,GND_26*%
%TO.N,GND*%
X133500000Y-84190000D03*
%TD*%
D17*
%TO.P,R5,1*%
%TO.N,Net-(D1-A)*%
X134950000Y-100325000D03*
%TO.P,R5,2*%
%TO.N,/USR_LED*%
X134950000Y-98675000D03*
%TD*%
D18*
%TO.P,U2,1,GND_1*%
%TO.N,GND*%
X152850000Y-84400000D03*
%TO.P,U2,2,VO_2*%
%TO.N,/BUCK_OUT*%
X152850000Y-86700000D03*
D19*
X159150000Y-86700000D03*
D18*
%TO.P,U2,3,VI_3*%
%TO.N,Net-(U2-VI)*%
X152850000Y-89000000D03*
%TD*%
D20*
%TO.P,BZ1,1,+_1*%
%TO.N,/BZR*%
X129550000Y-78000000D03*
D21*
%TO.P,BZ1,2,-_2*%
%TO.N,Net-(BZ1--)*%
X121950000Y-78000000D03*
%TD*%
D22*
%TO.P,SW1,1,1_1*%
%TO.N,GND*%
X127500000Y-91850000D03*
X133300000Y-91850000D03*
%TO.P,SW1,2,2_2*%
%TO.N,Net-(R1-Pad1)*%
X127500000Y-95850000D03*
X133300000Y-95850000D03*
%TD*%
D23*
%TO.P,U4,1,GND_1*%
%TO.N,GND*%
X155420000Y-81000000D03*
%TO.P,U4,2,VOUT_2*%
%TO.N,+3V3*%
X155420000Y-81500000D03*
%TO.P,U4,3,VIN1_3*%
%TO.N,/BUCK_OUT*%
X155420000Y-82000000D03*
%TO.P,U4,4,PR1_4*%
%TO.N,Net-(U4-PR1)*%
X155420000Y-82500000D03*
%TO.P,U4,5,MODE_5*%
%TO.N,/BUCK_OUT*%
X156900000Y-82500000D03*
%TO.P,U4,6,VIN2_6*%
%TO.N,/STLink_3v3*%
X156900000Y-82000000D03*
%TO.P,U4,7,VOUT_7*%
%TO.N,+3V3*%
X156900000Y-81500000D03*
%TO.P,U4,8,ST_8*%
%TO.N,Net-(U4-ST)*%
X156900000Y-81000000D03*
%TD*%
D24*
%TO.P,R1,1*%
%TO.N,Net-(R1-Pad1)*%
X130875000Y-98190000D03*
%TO.P,R1,2*%
%TO.N,/MCU_NRST*%
X132525000Y-98190000D03*
%TD*%
D17*
%TO.P,R6,1*%
%TO.N,Net-(BZ1--)*%
X120900000Y-72525000D03*
%TO.P,R6,2*%
%TO.N,GND*%
X120900000Y-70875000D03*
%TD*%
%TO.P,R4,1*%
%TO.N,Net-(R3-Pad2)*%
X145650000Y-99775000D03*
%TO.P,R4,2*%
%TO.N,/BTN_ABORT*%
X145650000Y-98125000D03*
%TD*%
D25*
%TO.P,C3,1*%
%TO.N,Net-(U2-VI)*%
X155675000Y-93950000D03*
%TO.P,C3,2*%
%TO.N,GND*%
X154125000Y-93950000D03*
%TD*%
D26*
%TO.P,AE1,1,A_1*%
%TO.N,Net-(AE1-A)*%
X155250000Y-62850000D03*
D27*
%TO.P,AE1,2*%
%TO.N,N/C*%
X152710000Y-60310000D03*
X152710000Y-65390000D03*
X157790000Y-60310000D03*
X157790000Y-65390000D03*
%TD*%
D15*
%TO.P,C8,1*%
%TO.N,GND*%
X151700000Y-72150000D03*
%TO.P,C8,2*%
%TO.N,/STLink_3v3*%
X151700000Y-73700000D03*
%TD*%
D17*
%TO.P,R11,1*%
%TO.N,Net-(J2-D+-PadA6)*%
X152600000Y-95675000D03*
%TO.P,R11,2*%
%TO.N,/USB_D+*%
X152600000Y-94025000D03*
%TD*%
D25*
%TO.P,C2,1*%
%TO.N,Net-(U2-VI)*%
X155650000Y-92450000D03*
%TO.P,C2,2*%
%TO.N,GND*%
X154100000Y-92450000D03*
%TD*%
D28*
%TO.P,R9,1*%
%TO.N,Net-(U4-ST)*%
X159400000Y-80275000D03*
%TO.P,R9,2*%
%TO.N,/BUCK_OUT*%
X159400000Y-81925000D03*
%TD*%
D25*
%TO.P,C6,1*%
%TO.N,/BUCK_OUT*%
X159675000Y-91100000D03*
%TO.P,C6,2*%
%TO.N,GND*%
X158125000Y-91100000D03*
%TD*%
D17*
%TO.P,R7,1*%
%TO.N,/BUCK_OUT*%
X154000000Y-81050000D03*
%TO.P,R7,2*%
%TO.N,Net-(U4-PR1)*%
X154000000Y-79400000D03*
%TD*%
%TO.P,R8,1*%
%TO.N,Net-(U4-PR1)*%
X154000000Y-78025000D03*
%TO.P,R8,2*%
%TO.N,GND*%
X154000000Y-76375000D03*
%TD*%
D29*
%TO.P,J1,1,Pin_1_1*%
%TO.N,/STLink_3v3*%
X122150000Y-92070000D03*
D30*
%TO.P,J1,2,Pin_2_2*%
%TO.N,/SWCLK*%
X122150000Y-94610000D03*
%TO.P,J1,3,Pin_3_3*%
%TO.N,GND*%
X122150000Y-97150000D03*
%TO.P,J1,4,Pin_4_4*%
%TO.N,/SWDIO*%
X122150000Y-99690000D03*
%TO.P,J1,5,Pin_5_5*%
%TO.N,/MCU_NRST*%
X122150000Y-102230000D03*
%TD*%
D31*
%TO.P,C4,1*%
%TO.N,GND*%
X135675000Y-92100000D03*
%TO.P,C4,2*%
%TO.N,+3V3*%
X137225000Y-92100000D03*
%TD*%
D22*
%TO.P,SW2,1,1_1*%
%TO.N,GND*%
X137400000Y-99400000D03*
X143200000Y-99400000D03*
%TO.P,SW2,2,2_2*%
%TO.N,Net-(R3-Pad2)*%
X137400000Y-103400000D03*
X143200000Y-103400000D03*
%TD*%
D17*
%TO.P,R3,1*%
%TO.N,+3V3*%
X145650000Y-102775000D03*
%TO.P,R3,2*%
%TO.N,Net-(R3-Pad2)*%
X145650000Y-101125000D03*
%TD*%
D32*
%TO.P,U1,1,PB9_1*%
%TO.N,/USR_LED*%
X138975000Y-89475000D03*
%TO.P,U1,2,PC14_2*%
%TO.N,unconnected-(U1-PC14-Pad2)*%
X138975000Y-90275000D03*
%TO.P,U1,3,PC15_3*%
%TO.N,/BZR*%
X138975000Y-91075000D03*
%TO.P,U1,4,VDD_4*%
%TO.N,+3V3*%
X138975000Y-91875000D03*
%TO.P,U1,5,VSS_5*%
%TO.N,GND*%
X138975000Y-92675000D03*
%TO.P,U1,6,PF2_6*%
%TO.N,/MCU_NRST*%
X138975000Y-93475000D03*
%TO.P,U1,7,PA0_7*%
%TO.N,unconnected-(U1-PA0-Pad7)*%
X138975000Y-94275000D03*
%TO.P,U1,8,PA1_8*%
%TO.N,unconnected-(U1-PA1-Pad8)*%
X138975000Y-95075000D03*
D33*
%TO.P,U1,9,PA2_9*%
%TO.N,unconnected-(U1-PA2-Pad9)*%
X140350000Y-96450000D03*
%TO.P,U1,10,PA3_10*%
%TO.N,unconnected-(U1-PA3-Pad10)*%
X141150000Y-96450000D03*
%TO.P,U1,11,PA4_11*%
%TO.N,unconnected-(U1-PA4-Pad11)*%
X141950000Y-96450000D03*
%TO.P,U1,12,PA5_12*%
%TO.N,unconnected-(U1-PA5-Pad12)*%
X142750000Y-96450000D03*
%TO.P,U1,13,PA6_13*%
%TO.N,unconnected-(U1-PA6-Pad13)*%
X143550000Y-96450000D03*
%TO.P,U1,14,PA7_14*%
%TO.N,unconnected-(U1-PA7-Pad14)*%
X144350000Y-96450000D03*
%TO.P,U1,15,PB0_15*%
%TO.N,unconnected-(U1-PB0-Pad15)*%
X145150000Y-96450000D03*
%TO.P,U1,16,PB1_16*%
%TO.N,unconnected-(U1-PB1-Pad16)*%
X145950000Y-96450000D03*
D32*
%TO.P,U1,17,PB2_17*%
%TO.N,unconnected-(U1-PB2-Pad17)*%
X147325000Y-95075000D03*
%TO.P,U1,18,PA8_18*%
%TO.N,unconnected-(U1-PA8-Pad18)*%
X147325000Y-94275000D03*
%TO.P,U1,19,PA9_19*%
%TO.N,/BTN_ABORT*%
X147325000Y-93475000D03*
%TO.P,U1,20,PC6_20*%
%TO.N,unconnected-(U1-PC6-Pad20)*%
X147325000Y-92675000D03*
%TO.P,U1,21,PA10_21*%
%TO.N,unconnected-(U1-PA10-Pad21)*%
X147325000Y-91875000D03*
%TO.P,U1,22,PA11_22*%
%TO.N,/USB_D-*%
X147325000Y-91075000D03*
%TO.P,U1,23,PA12_23*%
%TO.N,/USB_D+*%
X147325000Y-90275000D03*
%TO.P,U1,24,PA13_24*%
%TO.N,/SWDIO*%
X147325000Y-89475000D03*
D33*
%TO.P,U1,25,PA14_25*%
%TO.N,/SWCLK*%
X145950000Y-88100000D03*
%TO.P,U1,26,PA15_26*%
%TO.N,/RADIO_RST*%
X145150000Y-88100000D03*
%TO.P,U1,27,PB3_27*%
%TO.N,unconnected-(U1-PB3-Pad27)*%
X144350000Y-88100000D03*
%TO.P,U1,28,PB4_28*%
%TO.N,/M0*%
X143550000Y-88100000D03*
%TO.P,U1,29,PB5_29*%
%TO.N,/M1*%
X142750000Y-88100000D03*
%TO.P,U1,30,PB6_30*%
%TO.N,/MCU_TX*%
X141950000Y-88100000D03*
%TO.P,U1,31,PB7_31*%
%TO.N,/MCU_RX*%
X141150000Y-88100000D03*
%TO.P,U1,32,PB8_32*%
%TO.N,/AUX*%
X140350000Y-88100000D03*
%TD*%
D31*
%TO.P,C5,1*%
%TO.N,GND*%
X135675000Y-93600000D03*
%TO.P,C5,2*%
%TO.N,+3V3*%
X137225000Y-93600000D03*
%TD*%
D15*
%TO.P,C1,1*%
%TO.N,+3V3*%
X131300000Y-82775000D03*
%TO.P,C1,2*%
%TO.N,GND*%
X131300000Y-84325000D03*
%TD*%
D24*
%TO.P,R2,1*%
%TO.N,+3V3*%
X127875000Y-98200000D03*
%TO.P,R2,2*%
%TO.N,Net-(R1-Pad1)*%
X129525000Y-98200000D03*
%TD*%
D17*
%TO.P,R10,1*%
%TO.N,Net-(J2-D--PadA7)*%
X151100000Y-95675000D03*
%TO.P,R10,2*%
%TO.N,/USB_D-*%
X151100000Y-94025000D03*
%TD*%
D25*
%TO.P,C7,1*%
%TO.N,/BUCK_OUT*%
X150875000Y-87550000D03*
%TO.P,C7,2*%
%TO.N,GND*%
X149325000Y-87550000D03*
%TD*%
D34*
%TO.N,GND*%
X137100000Y-86700000D03*
X141350000Y-67400000D03*
X150750000Y-90350000D03*
X134450000Y-101550000D03*
X145750000Y-72450000D03*
X145550000Y-82300000D03*
X152350000Y-75500000D03*
X149995000Y-96650000D03*
X131450000Y-75400000D03*
X123900000Y-87300000D03*
X129550000Y-87300000D03*
X120900000Y-69200000D03*
X158300000Y-76900000D03*
X127000000Y-66300000D03*
X152900000Y-69700000D03*
X129400000Y-61800000D03*
X148200000Y-67800000D03*
D35*
X147675000Y-87775000D03*
D34*
X157850000Y-69650000D03*
X130900000Y-69350000D03*
X141400000Y-77550000D03*
X147350000Y-100750000D03*
X147500000Y-62800000D03*
X157050000Y-96450000D03*
X155200000Y-88500000D03*
X140850000Y-92150000D03*
X134050000Y-93750000D03*
D36*
X156500000Y-79800000D03*
D34*
X137200000Y-72450000D03*
X128500000Y-99650000D03*
D35*
X145500000Y-91400000D03*
D34*
X159550000Y-93600000D03*
X155300000Y-84000000D03*
X159500000Y-63000000D03*
X151900000Y-79750000D03*
X155250000Y-60300000D03*
D36*
%TO.N,/STLink_3v3*%
X158060659Y-82250000D03*
X147000000Y-73750000D03*
X154300000Y-74700000D03*
%TO.N,+3V3*%
X126650000Y-98100000D03*
X160350000Y-81100000D03*
X136850000Y-95200000D03*
X145650000Y-103800000D03*
X136600000Y-85150000D03*
%TO.N,/USR_LED*%
X136975000Y-89475000D03*
X135650000Y-97550000D03*
%TO.N,Net-(U4-PR1)*%
X154200000Y-82750000D03*
X155350000Y-78750000D03*
%TO.N,/MCU_NRST*%
X137825000Y-96025000D03*
X133800000Y-97900000D03*
X140406876Y-93521048D03*
%TO.N,/SWCLK*%
X145098959Y-89598959D03*
%TO.N,/SWDIO*%
X145830176Y-90281107D03*
%TD*%
%TO.N,Net-(J2-D+-PadA6)*%
D37*
X153262590Y-97175000D02*
X153727410Y-97175000D01*
X152995000Y-97442590D02*
X153262590Y-97175000D01*
X153727410Y-97175000D02*
X153995000Y-97442590D01*
X152995000Y-98200000D02*
X152995000Y-97442590D01*
D38*
X152995000Y-96070000D02*
X152995000Y-98200000D01*
D37*
X153995000Y-97442590D02*
X153995000Y-98200000D01*
D38*
X152600000Y-95675000D02*
X152995000Y-96070000D01*
%TO.N,Net-(J2-D--PadA7)*%
X151100000Y-95675000D02*
X152495000Y-97070000D01*
X152495000Y-97070000D02*
X152495000Y-98200000D01*
D37*
X152495000Y-98957410D02*
X152495000Y-98200000D01*
X152762590Y-99225000D02*
X152495000Y-98957410D01*
X153227410Y-99225000D02*
X152762590Y-99225000D01*
X153495000Y-98957410D02*
X153227410Y-99225000D01*
X153495000Y-98200000D02*
X153495000Y-98957410D01*
%TO.N,GND*%
D39*
X138975000Y-92675000D02*
X140325000Y-92675000D01*
D40*
X156495000Y-97005000D02*
X157050000Y-96450000D01*
D37*
X147675000Y-87775000D02*
X147600000Y-87850000D01*
X153490000Y-61860000D02*
X149750000Y-61860000D01*
X155050000Y-60300000D02*
X153490000Y-61860000D01*
D41*
X152850000Y-84400000D02*
X154900000Y-84400000D01*
X154900000Y-84400000D02*
X155300000Y-84000000D01*
D37*
X155420000Y-81000000D02*
X155550000Y-81000000D01*
D40*
X156800000Y-96700000D02*
X157050000Y-96450000D01*
D37*
X149750000Y-61860000D02*
X149450000Y-61560000D01*
X156500000Y-80050000D02*
X156500000Y-79800000D01*
D40*
X149995000Y-96650000D02*
X149995000Y-98200000D01*
D37*
X133550000Y-92100000D02*
X133300000Y-91850000D01*
X155250000Y-60300000D02*
X155050000Y-60300000D01*
D39*
X140325000Y-92675000D02*
X140850000Y-92150000D01*
D37*
X155550000Y-81000000D02*
X156500000Y-80050000D01*
X135425000Y-91850000D02*
X135675000Y-92100000D01*
X149325000Y-87550000D02*
X147900000Y-87550000D01*
D40*
X156495000Y-98200000D02*
X156495000Y-97005000D01*
D39*
X135675000Y-92100000D02*
X133550000Y-92100000D01*
D37*
X155250000Y-60300000D02*
X155312592Y-60300000D01*
X147900000Y-87550000D02*
X147675000Y-87775000D01*
%TO.N,/STLink_3v3*%
D42*
X153350000Y-73750000D02*
X147000000Y-73750000D01*
D37*
X158060659Y-82110659D02*
X157950000Y-82000000D01*
D38*
X157950000Y-82000000D02*
X156900000Y-82000000D01*
D42*
X154300000Y-74700000D02*
X153350000Y-73750000D01*
D37*
X158060659Y-82250000D02*
X158060659Y-82110659D01*
%TO.N,/RADIO_RST*%
D39*
X145150000Y-86950000D02*
X147910000Y-84190000D01*
X147910000Y-84190000D02*
X149500000Y-84190000D01*
X145150000Y-88100000D02*
X145150000Y-86950000D01*
%TO.N,Net-(AE1-A)*%
D37*
X155230000Y-62830000D02*
X155250000Y-62850000D01*
D43*
X149450000Y-62830000D02*
X155230000Y-62830000D01*
%TO.N,/M0*%
D39*
X143550000Y-85220000D02*
X134900000Y-76570000D01*
X143550000Y-88100000D02*
X143550000Y-85220000D01*
X134900000Y-76570000D02*
X133500000Y-76570000D01*
%TO.N,/M1*%
X142750000Y-88100000D02*
X142750000Y-85550000D01*
X142750000Y-85550000D02*
X135040000Y-77840000D01*
X135040000Y-77840000D02*
X133500000Y-77840000D01*
%TO.N,/MCU_TX*%
X141950000Y-88100000D02*
X141950000Y-86250000D01*
X134810000Y-79110000D02*
X133500000Y-79110000D01*
X141950000Y-86250000D02*
X134810000Y-79110000D01*
%TO.N,/MCU_RX*%
X134830000Y-80380000D02*
X141150000Y-86700000D01*
X141150000Y-86700000D02*
X141150000Y-88100000D01*
X133500000Y-80380000D02*
X134830000Y-80380000D01*
%TO.N,/AUX*%
X134649999Y-81650000D02*
X133500000Y-81650000D01*
X140350000Y-88100000D02*
X140350000Y-87350001D01*
X140350000Y-87350001D02*
X134649999Y-81650000D01*
%TO.N,+3V3*%
D41*
X137225000Y-94825000D02*
X136850000Y-95200000D01*
D44*
X134650000Y-82900000D02*
X136600000Y-84850000D01*
D38*
X160350000Y-81100000D02*
X158657106Y-81100000D01*
D44*
X136600000Y-84850000D02*
X136600000Y-85150000D01*
D38*
X156900000Y-81500000D02*
X155420000Y-81500000D01*
D37*
X137450000Y-91875000D02*
X137225000Y-92100000D01*
D43*
X131325000Y-82900000D02*
X133480000Y-82900000D01*
D38*
X158657106Y-81100000D02*
X158257106Y-81500000D01*
D41*
X137225000Y-92100000D02*
X137225000Y-94825000D01*
D38*
X157352072Y-81500000D02*
X156900000Y-81500000D01*
D37*
X133480000Y-82900000D02*
X133500000Y-82920000D01*
X133480000Y-82900000D02*
X134350000Y-82900000D01*
D41*
X145650000Y-102775000D02*
X145650000Y-103800000D01*
D38*
X158257106Y-81500000D02*
X157352072Y-81500000D01*
D43*
X127875000Y-98200000D02*
X126750000Y-98200000D01*
D39*
X138975000Y-91875000D02*
X137450000Y-91875000D01*
D44*
X134350000Y-82900000D02*
X134650000Y-82900000D01*
D37*
X126750000Y-98200000D02*
X126650000Y-98100000D01*
%TO.N,Net-(D1-A)*%
X133175000Y-100325000D02*
X133000000Y-100150000D01*
D41*
X134950000Y-100325000D02*
X133175000Y-100325000D01*
%TO.N,/USR_LED*%
D39*
X134950000Y-98675000D02*
X134950000Y-98250000D01*
X138975000Y-89475000D02*
X136975000Y-89475000D01*
X134950000Y-98250000D02*
X135650000Y-97550000D01*
%TO.N,/BUCK_OUT*%
D38*
X157449998Y-82700000D02*
X157574999Y-82825001D01*
D37*
X159675000Y-87225000D02*
X159150000Y-86700000D01*
D43*
X150875000Y-87550000D02*
X150875000Y-87475000D01*
D38*
X156900000Y-82500000D02*
X157249998Y-82500000D01*
D43*
X152750000Y-86600000D02*
X152850000Y-86700000D01*
D38*
X152850000Y-86700000D02*
X151350000Y-85200000D01*
X159150000Y-84400000D02*
X158600000Y-83850000D01*
X158450000Y-83700000D02*
X158750000Y-83700000D01*
X155420000Y-82000000D02*
X155947928Y-82000000D01*
X153700000Y-82000000D02*
X155420000Y-82000000D01*
X153375000Y-81675000D02*
X154000000Y-81050000D01*
D44*
X159150000Y-83300000D02*
X159150000Y-82175000D01*
D38*
X156900000Y-82500000D02*
X156447928Y-82500000D01*
X153700000Y-82000000D02*
X153375000Y-81675000D01*
X153100000Y-82000000D02*
X153700000Y-82000000D01*
X157574999Y-82825001D02*
X157950000Y-83200000D01*
X158750000Y-83700000D02*
X159150000Y-83300000D01*
X151350000Y-85200000D02*
X151350000Y-83750000D01*
X151350000Y-83750000D02*
X153100000Y-82000000D01*
X158600000Y-83850000D02*
X158450000Y-83700000D01*
X153100000Y-82000000D02*
X153100000Y-81950000D01*
D44*
X159150000Y-83300000D02*
X159150000Y-86700000D01*
D43*
X151750000Y-86600000D02*
X152750000Y-86600000D01*
D38*
X158450000Y-83700000D02*
X157950000Y-83200000D01*
X153100000Y-81950000D02*
X153375000Y-81675000D01*
D43*
X159675000Y-91100000D02*
X159675000Y-87225000D01*
D38*
X158600000Y-83850000D02*
X158750000Y-83700000D01*
X159400000Y-82200000D02*
X159400000Y-81925000D01*
X159150000Y-86700000D02*
X159150000Y-84400000D01*
D43*
X150875000Y-87475000D02*
X151750000Y-86600000D01*
D38*
X157249998Y-82500000D02*
X157449998Y-82700000D01*
D44*
X159150000Y-82175000D02*
X159400000Y-81925000D01*
D38*
X155947928Y-82000000D02*
X156447928Y-82500000D01*
%TO.N,Net-(U2-VI)*%
D40*
X155695000Y-98200000D02*
X155695000Y-91582040D01*
D38*
X150795000Y-98924999D02*
X150795000Y-98200000D01*
X155695000Y-98924999D02*
X154769999Y-99850000D01*
D41*
X153322960Y-89000000D02*
X152850000Y-89000000D01*
D38*
X151720001Y-99850000D02*
X150795000Y-98924999D01*
X155695000Y-98200000D02*
X155695000Y-98924999D01*
D40*
X155695000Y-91372040D02*
X153322960Y-89000000D01*
X155695000Y-91582040D02*
X155695000Y-91372040D01*
D38*
X154769999Y-99850000D02*
X151720001Y-99850000D01*
%TO.N,/BZR*%
D39*
X135425000Y-91075000D02*
X129800000Y-85450000D01*
X129800000Y-85450000D02*
X129800000Y-81400000D01*
X138975000Y-91075000D02*
X135425000Y-91075000D01*
X129800000Y-81400000D02*
X129550000Y-81150000D01*
X129550000Y-81150000D02*
X129550000Y-78000000D01*
%TO.N,Net-(BZ1--)*%
D45*
X120900000Y-74425000D02*
X120900000Y-72525000D01*
X121950000Y-78000000D02*
X121950000Y-75475000D01*
X121950000Y-75475000D02*
X120900000Y-74425000D01*
%TO.N,Net-(R1-Pad1)*%
D42*
X127500000Y-95850000D02*
X133300000Y-95850000D01*
X133300000Y-95850000D02*
X131900000Y-95850000D01*
D37*
X130865000Y-98200000D02*
X130875000Y-98190000D01*
D43*
X129525000Y-98200000D02*
X130865000Y-98200000D01*
D42*
X131900000Y-95850000D02*
X130875000Y-96875000D01*
X130875000Y-96875000D02*
X130875000Y-98190000D01*
%TO.N,Net-(U4-PR1)*%
D41*
X154000000Y-79400000D02*
X154000000Y-78025000D01*
X155350000Y-78650000D02*
X154725000Y-78025000D01*
D38*
X155350000Y-78750000D02*
X155350000Y-78650000D01*
D41*
X154725000Y-78025000D02*
X154000000Y-78025000D01*
D38*
X154200000Y-82750000D02*
X154450000Y-82500000D01*
X154450000Y-82500000D02*
X155420000Y-82500000D01*
%TO.N,Net-(U4-ST)*%
X158775000Y-80275000D02*
X159400000Y-80275000D01*
X156900000Y-81000000D02*
X158050000Y-81000000D01*
X158050000Y-81000000D02*
X158775000Y-80275000D01*
%TO.N,/MCU_NRST*%
D39*
X140375000Y-93475000D02*
X138975000Y-93475000D01*
X137825000Y-96025000D02*
X137250000Y-96600000D01*
X135350000Y-96600000D02*
X133760000Y-98190000D01*
X140406876Y-93506876D02*
X140375000Y-93475000D01*
X133760000Y-98190000D02*
X132525000Y-98190000D01*
X137250000Y-96600000D02*
X135350000Y-96600000D01*
X140406876Y-93521048D02*
X140406876Y-93506876D01*
%TO.N,Net-(R3-Pad2)*%
D41*
X144175000Y-102425000D02*
X145475000Y-101125000D01*
D37*
X145475000Y-101125000D02*
X145650000Y-101125000D01*
D41*
X143200000Y-103400000D02*
X144175000Y-102425000D01*
X144175000Y-102425000D02*
X144175000Y-103325000D01*
X145650000Y-101125000D02*
X145650000Y-99775000D01*
D42*
X137400000Y-103400000D02*
X143200000Y-103400000D01*
%TO.N,/BTN_ABORT*%
D45*
X146825000Y-98125000D02*
X148950000Y-96000000D01*
D37*
X148025000Y-93475000D02*
X147325000Y-93475000D01*
D45*
X145650000Y-98125000D02*
X146825000Y-98125000D01*
X148950000Y-96000000D02*
X148950000Y-93950000D01*
X148950000Y-93950000D02*
X148475000Y-93475000D01*
X148475000Y-93475000D02*
X148025000Y-93475000D01*
%TO.N,/USB_D+*%
D39*
X147325000Y-90275000D02*
X148850000Y-90275000D01*
X148850000Y-90275000D02*
X152600000Y-94025000D01*
%TO.N,/SWCLK*%
X145850000Y-88949999D02*
X145950000Y-88849999D01*
X145201040Y-89598959D02*
X145499999Y-89300000D01*
X145516638Y-89300000D02*
X145850000Y-88966638D01*
X145950000Y-88849999D02*
X145950000Y-88100000D01*
X145499999Y-89300000D02*
X145516638Y-89300000D01*
X145098959Y-89598959D02*
X145201040Y-89598959D01*
X145850000Y-88966638D02*
X145850000Y-88949999D01*
%TO.N,/SWDIO*%
X145830176Y-90069824D02*
X146425000Y-89475000D01*
X146425000Y-89475000D02*
X147325000Y-89475000D01*
X145830176Y-90281107D02*
X145830176Y-90069824D01*
%TO.N,/USB_D-*%
X148467894Y-91075000D02*
X151100000Y-93707106D01*
X151100000Y-93707106D02*
X151100000Y-94025000D01*
X147325000Y-91075000D02*
X148467894Y-91075000D01*
%TD*%
%TA.AperFunction,Conductor*%
%TO.N,GND*%
G36*
X151461596Y-58870185D02*
G01*
X151507351Y-58922989D01*
X151517295Y-58992147D01*
X151488270Y-59055703D01*
X151482238Y-59062181D01*
X151391081Y-59153338D01*
X151251392Y-59335382D01*
X151136657Y-59534109D01*
X151136650Y-59534123D01*
X151048842Y-59746112D01*
X150989453Y-59967759D01*
X150989451Y-59967770D01*
X150959500Y-60195258D01*
X150959500Y-60424741D01*
X150983891Y-60610000D01*
X150989452Y-60652238D01*
X151010475Y-60730700D01*
X151016399Y-60752809D01*
X151048842Y-60873887D01*
X151084624Y-60960272D01*
X151136653Y-61085881D01*
X151136657Y-61085890D01*
X151251392Y-61284617D01*
X151391081Y-61466661D01*
X151391089Y-61466670D01*
X151553330Y-61628911D01*
X151553336Y-61628916D01*
X151553339Y-61628919D01*
X151590097Y-61657125D01*
X151631300Y-61713552D01*
X151635455Y-61783298D01*
X151601243Y-61844218D01*
X151539525Y-61876971D01*
X151514611Y-61879500D01*
X150970862Y-61879500D01*
X150903823Y-61859815D01*
X150883181Y-61843181D01*
X150850000Y-61810000D01*
X148050000Y-61810000D01*
X148050000Y-62057844D01*
X148056401Y-62117372D01*
X148056403Y-62117379D01*
X148068925Y-62150952D01*
X148073909Y-62220643D01*
X148068925Y-62237617D01*
X148055909Y-62272514D01*
X148055908Y-62272516D01*
X148049501Y-62332116D01*
X148049500Y-62332135D01*
X148049500Y-63327870D01*
X148049501Y-63327876D01*
X148055908Y-63387483D01*
X148068925Y-63422381D01*
X148073909Y-63492072D01*
X148068925Y-63509047D01*
X148056403Y-63542619D01*
X148056401Y-63542627D01*
X148050000Y-63602155D01*
X148050000Y-63850000D01*
X150850000Y-63850000D01*
X150883181Y-63816819D01*
X150944504Y-63783334D01*
X150970862Y-63780500D01*
X151566739Y-63780500D01*
X151633778Y-63800185D01*
X151679533Y-63852989D01*
X151689477Y-63922147D01*
X151660452Y-63985703D01*
X151642226Y-64002875D01*
X151553338Y-64071081D01*
X151391081Y-64233338D01*
X151251392Y-64415382D01*
X151136657Y-64614109D01*
X151136650Y-64614123D01*
X151048842Y-64826112D01*
X151027118Y-64907190D01*
X150989452Y-65047762D01*
X150989157Y-65050000D01*
X150959500Y-65275258D01*
X150959500Y-65504741D01*
X150984446Y-65694215D01*
X150989452Y-65732238D01*
X150989453Y-65732240D01*
X151048842Y-65953887D01*
X151136650Y-66165876D01*
X151136657Y-66165890D01*
X151251392Y-66364617D01*
X151391081Y-66546661D01*
X151391089Y-66546670D01*
X151553330Y-66708911D01*
X151553338Y-66708918D01*
X151735382Y-66848607D01*
X151735385Y-66848608D01*
X151735388Y-66848611D01*
X151934112Y-66963344D01*
X151934117Y-66963346D01*
X151934123Y-66963349D01*
X152025480Y-67001190D01*
X152146113Y-67051158D01*
X152367762Y-67110548D01*
X152595266Y-67140500D01*
X152595273Y-67140500D01*
X152824727Y-67140500D01*
X152824734Y-67140500D01*
X153052238Y-67110548D01*
X153273887Y-67051158D01*
X153485888Y-66963344D01*
X153684612Y-66848611D01*
X153866661Y-66708919D01*
X153866665Y-66708914D01*
X153866670Y-66708911D01*
X154028911Y-66546670D01*
X154028914Y-66546665D01*
X154028919Y-66546661D01*
X154168611Y-66364612D01*
X154283344Y-66165888D01*
X154371158Y-65953887D01*
X154430548Y-65732238D01*
X154460500Y-65504734D01*
X154460500Y-65275266D01*
X154430548Y-65047762D01*
X154371158Y-64826113D01*
X154357064Y-64792086D01*
X154307303Y-64671952D01*
X154299834Y-64602483D01*
X154331109Y-64540004D01*
X154391199Y-64504352D01*
X154421864Y-64500500D01*
X156078136Y-64500500D01*
X156145175Y-64520185D01*
X156190930Y-64572989D01*
X156200874Y-64642147D01*
X156192697Y-64671952D01*
X156128842Y-64826111D01*
X156128842Y-64826112D01*
X156107118Y-64907190D01*
X156069452Y-65047762D01*
X156069157Y-65050000D01*
X156039500Y-65275258D01*
X156039500Y-65504741D01*
X156064446Y-65694215D01*
X156069452Y-65732238D01*
X156069453Y-65732240D01*
X156128842Y-65953887D01*
X156216650Y-66165876D01*
X156216657Y-66165890D01*
X156331392Y-66364617D01*
X156471081Y-66546661D01*
X156471089Y-66546670D01*
X156633330Y-66708911D01*
X156633338Y-66708918D01*
X156815382Y-66848607D01*
X156815385Y-66848608D01*
X156815388Y-66848611D01*
X157014112Y-66963344D01*
X157014117Y-66963346D01*
X157014123Y-66963349D01*
X157105480Y-67001190D01*
X157226113Y-67051158D01*
X157447762Y-67110548D01*
X157675266Y-67140500D01*
X157675273Y-67140500D01*
X157904727Y-67140500D01*
X157904734Y-67140500D01*
X158132238Y-67110548D01*
X158353887Y-67051158D01*
X158565888Y-66963344D01*
X158764612Y-66848611D01*
X158946661Y-66708919D01*
X158946665Y-66708914D01*
X158946670Y-66708911D01*
X159108911Y-66546670D01*
X159108914Y-66546665D01*
X159108919Y-66546661D01*
X159248611Y-66364612D01*
X159363344Y-66165888D01*
X159451158Y-65953887D01*
X159510548Y-65732238D01*
X159540500Y-65504734D01*
X159540500Y-65275266D01*
X159510548Y-65047762D01*
X159451158Y-64826113D01*
X159363344Y-64614112D01*
X159248611Y-64415388D01*
X159248608Y-64415385D01*
X159248607Y-64415382D01*
X159108918Y-64233338D01*
X159108911Y-64233330D01*
X158946670Y-64071089D01*
X158946661Y-64071081D01*
X158764617Y-63931392D01*
X158565890Y-63816657D01*
X158565876Y-63816650D01*
X158353887Y-63728842D01*
X158279092Y-63708801D01*
X158132238Y-63669452D01*
X158094215Y-63664446D01*
X157904741Y-63639500D01*
X157904734Y-63639500D01*
X157675266Y-63639500D01*
X157675258Y-63639500D01*
X157458715Y-63668009D01*
X157447762Y-63669452D01*
X157415353Y-63678136D01*
X157226112Y-63728842D01*
X157226111Y-63728842D01*
X157071952Y-63792697D01*
X157002483Y-63800166D01*
X156940004Y-63768891D01*
X156904352Y-63708801D01*
X156900500Y-63678136D01*
X156900500Y-62021863D01*
X156920185Y-61954824D01*
X156972989Y-61909069D01*
X157042147Y-61899125D01*
X157071948Y-61907300D01*
X157226113Y-61971158D01*
X157447762Y-62030548D01*
X157675266Y-62060500D01*
X157675273Y-62060500D01*
X157904727Y-62060500D01*
X157904734Y-62060500D01*
X158132238Y-62030548D01*
X158353887Y-61971158D01*
X158565888Y-61883344D01*
X158764612Y-61768611D01*
X158946661Y-61628919D01*
X158946665Y-61628914D01*
X158946670Y-61628911D01*
X159108911Y-61466670D01*
X159108914Y-61466665D01*
X159108919Y-61466661D01*
X159248611Y-61284612D01*
X159363344Y-61085888D01*
X159451158Y-60873887D01*
X159510548Y-60652238D01*
X159540500Y-60424734D01*
X159540500Y-60195266D01*
X159510548Y-59967762D01*
X159451158Y-59746113D01*
X159363344Y-59534112D01*
X159248611Y-59335388D01*
X159248608Y-59335385D01*
X159248607Y-59335382D01*
X159108918Y-59153338D01*
X159108911Y-59153330D01*
X159017762Y-59062181D01*
X158984277Y-59000858D01*
X158989261Y-58931166D01*
X159031133Y-58875233D01*
X159096597Y-58850816D01*
X159105443Y-58850500D01*
X159615892Y-58850500D01*
X160875500Y-58850500D01*
X160942539Y-58870185D01*
X160988294Y-58922989D01*
X160999500Y-58974500D01*
X160999500Y-80218971D01*
X160979815Y-80286010D01*
X160927011Y-80331765D01*
X160857853Y-80341709D01*
X160806610Y-80322073D01*
X160776558Y-80301993D01*
X160776540Y-80301983D01*
X160612667Y-80234106D01*
X160612659Y-80234104D01*
X160475308Y-80206783D01*
X160413397Y-80174398D01*
X160378823Y-80113682D01*
X160375500Y-80085166D01*
X160375500Y-80018386D01*
X160369086Y-79947807D01*
X160369086Y-79947804D01*
X160318478Y-79785394D01*
X160230472Y-79639815D01*
X160230470Y-79639813D01*
X160230469Y-79639811D01*
X160110188Y-79519530D01*
X160078705Y-79500498D01*
X159964606Y-79431522D01*
X159802196Y-79380914D01*
X159802194Y-79380913D01*
X159802192Y-79380913D01*
X159752778Y-79376423D01*
X159731616Y-79374500D01*
X159068384Y-79374500D01*
X159049145Y-79376248D01*
X158997807Y-79380913D01*
X158835393Y-79431522D01*
X158689813Y-79519529D01*
X158651883Y-79557460D01*
X158569528Y-79639815D01*
X158569526Y-79639817D01*
X158564226Y-79645118D01*
X158563123Y-79644015D01*
X158520665Y-79676252D01*
X158466872Y-79698535D01*
X158360326Y-79769726D01*
X158360325Y-79769727D01*
X157816873Y-80313181D01*
X157755550Y-80346666D01*
X157729192Y-80349500D01*
X157228102Y-80349500D01*
X156571898Y-80349500D01*
X156532853Y-80354188D01*
X156483438Y-80360122D01*
X156342656Y-80415639D01*
X156230674Y-80500558D01*
X156165362Y-80525381D01*
X156147289Y-80525465D01*
X156109266Y-80522864D01*
X155818951Y-80813181D01*
X155792023Y-80827884D01*
X155766205Y-80844477D01*
X155760004Y-80845368D01*
X155757628Y-80846666D01*
X155731270Y-80849500D01*
X155657730Y-80849500D01*
X155590691Y-80829815D01*
X155544936Y-80777011D01*
X155534992Y-80707853D01*
X155564017Y-80644297D01*
X155570049Y-80637819D01*
X155844197Y-80363670D01*
X155836444Y-80360614D01*
X155836445Y-80360614D01*
X155748053Y-80350000D01*
X155091946Y-80350000D01*
X155003556Y-80360613D01*
X154916212Y-80395058D01*
X154897329Y-80396762D01*
X154879568Y-80403387D01*
X154863253Y-80399838D01*
X154846625Y-80401339D01*
X154829819Y-80392564D01*
X154811295Y-80388535D01*
X154786385Y-80369887D01*
X154784689Y-80369002D01*
X154783041Y-80367384D01*
X154728338Y-80312681D01*
X154694853Y-80251358D01*
X154699837Y-80181666D01*
X154728336Y-80137320D01*
X154830472Y-80035185D01*
X154918478Y-79889606D01*
X154969086Y-79727196D01*
X154969087Y-79727188D01*
X154970366Y-79720761D01*
X154972907Y-79721266D01*
X154994309Y-79667080D01*
X155051034Y-79626288D01*
X155116326Y-79621661D01*
X155130594Y-79624499D01*
X155261306Y-79650500D01*
X155261309Y-79650500D01*
X155438693Y-79650500D01*
X155438694Y-79650499D01*
X155496682Y-79638964D01*
X155612658Y-79615896D01*
X155612661Y-79615894D01*
X155612666Y-79615894D01*
X155776547Y-79548013D01*
X155924035Y-79449464D01*
X156049464Y-79324035D01*
X156148013Y-79176547D01*
X156215894Y-79012666D01*
X156250500Y-78838691D01*
X156250500Y-78661309D01*
X156250500Y-78656199D01*
X156250499Y-78656173D01*
X156250499Y-78561307D01*
X156250498Y-78561303D01*
X156241240Y-78514759D01*
X156215894Y-78387334D01*
X156148012Y-78223453D01*
X156148011Y-78223452D01*
X156148008Y-78223446D01*
X156049463Y-78075964D01*
X156049460Y-78075960D01*
X155299039Y-77325538D01*
X155299034Y-77325534D01*
X155240114Y-77286166D01*
X155234653Y-77282517D01*
X155151547Y-77226987D01*
X155041784Y-77181522D01*
X155036595Y-77179372D01*
X155036592Y-77179371D01*
X154987666Y-77159105D01*
X154987658Y-77159103D01*
X154939838Y-77149591D01*
X154877927Y-77117206D01*
X154843353Y-77056491D01*
X154847092Y-76986721D01*
X154857913Y-76963823D01*
X154918018Y-76864398D01*
X154918019Y-76864396D01*
X154968590Y-76702106D01*
X154975000Y-76631572D01*
X154975000Y-76625000D01*
X153025001Y-76625000D01*
X153025001Y-76631582D01*
X153031408Y-76702102D01*
X153031409Y-76702107D01*
X153081981Y-76864396D01*
X153169927Y-77009877D01*
X153272015Y-77111965D01*
X153305500Y-77173288D01*
X153300516Y-77242980D01*
X153272015Y-77287327D01*
X153169531Y-77389810D01*
X153169530Y-77389811D01*
X153081522Y-77535393D01*
X153030913Y-77697807D01*
X153024500Y-77768386D01*
X153024500Y-78281613D01*
X153030913Y-78352192D01*
X153030913Y-78352194D01*
X153030914Y-78352196D01*
X153081522Y-78514606D01*
X153081615Y-78514760D01*
X153081654Y-78514900D01*
X153084600Y-78521445D01*
X153083603Y-78521893D01*
X153099500Y-78578912D01*
X153099500Y-78846086D01*
X153083607Y-78903104D01*
X153084601Y-78903552D01*
X153081662Y-78910082D01*
X153081621Y-78910230D01*
X153081523Y-78910391D01*
X153030913Y-79072807D01*
X153024500Y-79143386D01*
X153024500Y-79656613D01*
X153030913Y-79727192D01*
X153030913Y-79727194D01*
X153030914Y-79727196D01*
X153081522Y-79889606D01*
X153159371Y-80018384D01*
X153169530Y-80035188D01*
X153271661Y-80137319D01*
X153305146Y-80198642D01*
X153300162Y-80268334D01*
X153271661Y-80312681D01*
X153169531Y-80414810D01*
X153169530Y-80414811D01*
X153081522Y-80560393D01*
X153030913Y-80722807D01*
X153024500Y-80793386D01*
X153024500Y-81054192D01*
X153015855Y-81083632D01*
X153009332Y-81113619D01*
X153005577Y-81118634D01*
X153004815Y-81121231D01*
X152988181Y-81141873D01*
X152960331Y-81169723D01*
X152594727Y-81535325D01*
X152594724Y-81535328D01*
X152540238Y-81616874D01*
X152523534Y-81641872D01*
X152523531Y-81641878D01*
X152522612Y-81644098D01*
X152521278Y-81646093D01*
X152520663Y-81647245D01*
X152520549Y-81647184D01*
X152495737Y-81684315D01*
X151042707Y-83137345D01*
X150981384Y-83170830D01*
X150951362Y-83168682D01*
X150951362Y-83170000D01*
X148100000Y-83170000D01*
X148100000Y-83315500D01*
X148080315Y-83382539D01*
X148027511Y-83428294D01*
X147976000Y-83439500D01*
X147836080Y-83439500D01*
X147691092Y-83468340D01*
X147691082Y-83468343D01*
X147554511Y-83524912D01*
X147554498Y-83524919D01*
X147431584Y-83607048D01*
X147431580Y-83607051D01*
X144567050Y-86471580D01*
X144567044Y-86471588D01*
X144527602Y-86530618D01*
X144473990Y-86575424D01*
X144404665Y-86584131D01*
X144341638Y-86553977D01*
X144304918Y-86494534D01*
X144300500Y-86461728D01*
X144300500Y-85146079D01*
X144271659Y-85001092D01*
X144271658Y-85001091D01*
X144271658Y-85001087D01*
X144270043Y-84997187D01*
X144215087Y-84864511D01*
X144215080Y-84864498D01*
X144132952Y-84741585D01*
X144132951Y-84741584D01*
X144028416Y-84637049D01*
X141935163Y-82543796D01*
X135547856Y-76156487D01*
X135463496Y-76072127D01*
X148099500Y-76072127D01*
X148099500Y-76081236D01*
X148099500Y-76081237D01*
X148099500Y-77067870D01*
X148099501Y-77067876D01*
X148105908Y-77127481D01*
X148118659Y-77161669D01*
X148123642Y-77231361D01*
X148118659Y-77248331D01*
X148105909Y-77282517D01*
X148105908Y-77282517D01*
X148099501Y-77342116D01*
X148099501Y-77342123D01*
X148099500Y-77342135D01*
X148099500Y-78337870D01*
X148099501Y-78337876D01*
X148105908Y-78397481D01*
X148118659Y-78431669D01*
X148123642Y-78501361D01*
X148118659Y-78518331D01*
X148105908Y-78552518D01*
X148103071Y-78578912D01*
X148099501Y-78612123D01*
X148099500Y-78612135D01*
X148099500Y-79607870D01*
X148099501Y-79607876D01*
X148105908Y-79667481D01*
X148118659Y-79701669D01*
X148123642Y-79771361D01*
X148118659Y-79788331D01*
X148105908Y-79822518D01*
X148099501Y-79882116D01*
X148099501Y-79882123D01*
X148099500Y-79882135D01*
X148099500Y-80877870D01*
X148099501Y-80877876D01*
X148105908Y-80937481D01*
X148118659Y-80971669D01*
X148123642Y-81041361D01*
X148118659Y-81058331D01*
X148105908Y-81092518D01*
X148100602Y-81141873D01*
X148099501Y-81152123D01*
X148099500Y-81152135D01*
X148099500Y-82147870D01*
X148099501Y-82147876D01*
X148105908Y-82207483D01*
X148118925Y-82242381D01*
X148123909Y-82312072D01*
X148118925Y-82329047D01*
X148106403Y-82362619D01*
X148106401Y-82362627D01*
X148100000Y-82422155D01*
X148100000Y-82670000D01*
X150900000Y-82670000D01*
X150900000Y-82422172D01*
X150899999Y-82422155D01*
X150893597Y-82362622D01*
X150893597Y-82362620D01*
X150881075Y-82329048D01*
X150876089Y-82259356D01*
X150881071Y-82242390D01*
X150894091Y-82207483D01*
X150900500Y-82147873D01*
X150900499Y-81152128D01*
X150894091Y-81092517D01*
X150881340Y-81058332D01*
X150876357Y-80988642D01*
X150881340Y-80971669D01*
X150894091Y-80937483D01*
X150900500Y-80877873D01*
X150900499Y-79882128D01*
X150894091Y-79822517D01*
X150881340Y-79788332D01*
X150876357Y-79718642D01*
X150881340Y-79701669D01*
X150894091Y-79667483D01*
X150900500Y-79607873D01*
X150900499Y-78612128D01*
X150894091Y-78552517D01*
X150881340Y-78518332D01*
X150876357Y-78448642D01*
X150881340Y-78431669D01*
X150894091Y-78397483D01*
X150900500Y-78337873D01*
X150900499Y-77342128D01*
X150894091Y-77282517D01*
X150881340Y-77248332D01*
X150876357Y-77178642D01*
X150881340Y-77161669D01*
X150894091Y-77127483D01*
X150900500Y-77067873D01*
X150900499Y-76072128D01*
X150894091Y-76012517D01*
X150881073Y-75977616D01*
X150876090Y-75907926D01*
X150881075Y-75890949D01*
X150893597Y-75857375D01*
X150893598Y-75857372D01*
X150899999Y-75797844D01*
X150900000Y-75797827D01*
X150900000Y-75550000D01*
X148100000Y-75550000D01*
X148100000Y-75797844D01*
X148106401Y-75857372D01*
X148106403Y-75857379D01*
X148118925Y-75890952D01*
X148120134Y-75907863D01*
X148126287Y-75923661D01*
X148124276Y-75958898D01*
X148122337Y-75968469D01*
X148105909Y-76012517D01*
X148099500Y-76072127D01*
X135463496Y-76072127D01*
X135378421Y-75987052D01*
X135378414Y-75987046D01*
X135280379Y-75921542D01*
X135280378Y-75921542D01*
X135255495Y-75904916D01*
X135255488Y-75904912D01*
X135118917Y-75848343D01*
X135118907Y-75848340D01*
X134999808Y-75824649D01*
X134937897Y-75792263D01*
X134903323Y-75731547D01*
X134900000Y-75703032D01*
X134900000Y-75550000D01*
X132100000Y-75550000D01*
X132100000Y-75797844D01*
X132106401Y-75857372D01*
X132106403Y-75857379D01*
X132118925Y-75890952D01*
X132123909Y-75960643D01*
X132118925Y-75977617D01*
X132105909Y-76012514D01*
X132105908Y-76012516D01*
X132102105Y-76047897D01*
X132099501Y-76072123D01*
X132099500Y-76072135D01*
X132099500Y-77067870D01*
X132099501Y-77067876D01*
X132105908Y-77127481D01*
X132118659Y-77161669D01*
X132123642Y-77231361D01*
X132118659Y-77248331D01*
X132105909Y-77282517D01*
X132105908Y-77282517D01*
X132099501Y-77342116D01*
X132099501Y-77342123D01*
X132099500Y-77342135D01*
X132099500Y-78337870D01*
X132099501Y-78337876D01*
X132105908Y-78397481D01*
X132118659Y-78431669D01*
X132123642Y-78501361D01*
X132118659Y-78518331D01*
X132105908Y-78552518D01*
X132103071Y-78578912D01*
X132099501Y-78612123D01*
X132099500Y-78612135D01*
X132099500Y-79607870D01*
X132099501Y-79607876D01*
X132105908Y-79667481D01*
X132118659Y-79701669D01*
X132123642Y-79771361D01*
X132118659Y-79788331D01*
X132105908Y-79822518D01*
X132099501Y-79882116D01*
X132099501Y-79882123D01*
X132099500Y-79882135D01*
X132099500Y-80877870D01*
X132099501Y-80877876D01*
X132105908Y-80937481D01*
X132118659Y-80971669D01*
X132123642Y-81041361D01*
X132118659Y-81058331D01*
X132105908Y-81092518D01*
X132100602Y-81141873D01*
X132099501Y-81152123D01*
X132099500Y-81152135D01*
X132099500Y-81814352D01*
X132079815Y-81881391D01*
X132027011Y-81927146D01*
X131957853Y-81937090D01*
X131910404Y-81919891D01*
X131874932Y-81898011D01*
X131858701Y-81887999D01*
X131858698Y-81887997D01*
X131858697Y-81887997D01*
X131838761Y-81881391D01*
X131697709Y-81834651D01*
X131598346Y-81824500D01*
X131001662Y-81824500D01*
X131001644Y-81824501D01*
X130902292Y-81834650D01*
X130902289Y-81834651D01*
X130741305Y-81887996D01*
X130741290Y-81888003D01*
X130739589Y-81889053D01*
X130738260Y-81889416D01*
X130734755Y-81891051D01*
X130734475Y-81890451D01*
X130672196Y-81907489D01*
X130605534Y-81886562D01*
X130560768Y-81832916D01*
X130550500Y-81783510D01*
X130550500Y-81326079D01*
X130521659Y-81181092D01*
X130521658Y-81181091D01*
X130521658Y-81181087D01*
X130509663Y-81152128D01*
X130465087Y-81044511D01*
X130465080Y-81044498D01*
X130382951Y-80921584D01*
X130382948Y-80921580D01*
X130336819Y-80875451D01*
X130303334Y-80814128D01*
X130300500Y-80787770D01*
X130300500Y-79624499D01*
X130320185Y-79557460D01*
X130372989Y-79511705D01*
X130424500Y-79500499D01*
X130597871Y-79500499D01*
X130597872Y-79500499D01*
X130657483Y-79494091D01*
X130792331Y-79443796D01*
X130907546Y-79357546D01*
X130993796Y-79242331D01*
X131044091Y-79107483D01*
X131050500Y-79047873D01*
X131050499Y-76952128D01*
X131044091Y-76892517D01*
X131033603Y-76864398D01*
X130993797Y-76757671D01*
X130993793Y-76757664D01*
X130907547Y-76642455D01*
X130907544Y-76642452D01*
X130792335Y-76556206D01*
X130792328Y-76556202D01*
X130657482Y-76505908D01*
X130657483Y-76505908D01*
X130597883Y-76499501D01*
X130597881Y-76499500D01*
X130597873Y-76499500D01*
X130597864Y-76499500D01*
X128502129Y-76499500D01*
X128502123Y-76499501D01*
X128442516Y-76505908D01*
X128307671Y-76556202D01*
X128307664Y-76556206D01*
X128192455Y-76642452D01*
X128192452Y-76642455D01*
X128106206Y-76757664D01*
X128106202Y-76757671D01*
X128055908Y-76892517D01*
X128049501Y-76952116D01*
X128049501Y-76952123D01*
X128049500Y-76952135D01*
X128049500Y-79047870D01*
X128049501Y-79047876D01*
X128055908Y-79107483D01*
X128106202Y-79242328D01*
X128106206Y-79242335D01*
X128192452Y-79357544D01*
X128192455Y-79357547D01*
X128307664Y-79443793D01*
X128307671Y-79443797D01*
X128352618Y-79460561D01*
X128442517Y-79494091D01*
X128502127Y-79500500D01*
X128675500Y-79500499D01*
X128742539Y-79520183D01*
X128788294Y-79572987D01*
X128799500Y-79624499D01*
X128799500Y-81223918D01*
X128799500Y-81223920D01*
X128799499Y-81223920D01*
X128828340Y-81368907D01*
X128828343Y-81368917D01*
X128884914Y-81505491D01*
X128884916Y-81505495D01*
X128904847Y-81535325D01*
X128915010Y-81550535D01*
X128967049Y-81628418D01*
X128967052Y-81628421D01*
X129013180Y-81674548D01*
X129046666Y-81735871D01*
X129049500Y-81762230D01*
X129049500Y-85523918D01*
X129049500Y-85523920D01*
X129049499Y-85523920D01*
X129078340Y-85668907D01*
X129078343Y-85668917D01*
X129134912Y-85805488D01*
X129134918Y-85805499D01*
X129146997Y-85823575D01*
X129146999Y-85823580D01*
X129217046Y-85928414D01*
X129217052Y-85928421D01*
X133926952Y-90638319D01*
X133960437Y-90699642D01*
X133955453Y-90769334D01*
X133913581Y-90825267D01*
X133848117Y-90849684D01*
X133839271Y-90850000D01*
X133550000Y-90850000D01*
X133550000Y-92849999D01*
X134499972Y-92849999D01*
X134499986Y-92849998D01*
X134602695Y-92839506D01*
X134669388Y-92817406D01*
X134739217Y-92815004D01*
X134799259Y-92850735D01*
X134830452Y-92913256D01*
X134822892Y-92982715D01*
X134813932Y-93000209D01*
X134788454Y-93041513D01*
X134788452Y-93041518D01*
X134735144Y-93202393D01*
X134725000Y-93301677D01*
X134725000Y-93350000D01*
X135425000Y-93350000D01*
X135425000Y-92224000D01*
X135444685Y-92156961D01*
X135497489Y-92111206D01*
X135549000Y-92100000D01*
X135801000Y-92100000D01*
X135868039Y-92119685D01*
X135913794Y-92172489D01*
X135925000Y-92224000D01*
X135925000Y-94574999D01*
X135951470Y-94574999D01*
X135951470Y-94576336D01*
X136014255Y-94591330D01*
X136062652Y-94641723D01*
X136076121Y-94710282D01*
X136065589Y-94750112D01*
X136061389Y-94759381D01*
X136051987Y-94773453D01*
X136020488Y-94849500D01*
X136019724Y-94851343D01*
X136019716Y-94851362D01*
X135984105Y-94937333D01*
X135984103Y-94937341D01*
X135949500Y-95111303D01*
X135949500Y-95288696D01*
X135981029Y-95447203D01*
X135984105Y-95462666D01*
X136009703Y-95524464D01*
X136051987Y-95626547D01*
X136076938Y-95663889D01*
X136080730Y-95671776D01*
X136085024Y-95697968D01*
X136092952Y-95723287D01*
X136090587Y-95731904D01*
X136092034Y-95740725D01*
X136081486Y-95765079D01*
X136074467Y-95790667D01*
X136067819Y-95796638D01*
X136064267Y-95804841D01*
X136042226Y-95819627D01*
X136022488Y-95837357D01*
X136012377Y-95839651D01*
X136006244Y-95843766D01*
X135993101Y-95844024D01*
X135968972Y-95849500D01*
X135324499Y-95849500D01*
X135257460Y-95829815D01*
X135211705Y-95777011D01*
X135200499Y-95725500D01*
X135200499Y-95549998D01*
X135200498Y-95549981D01*
X135189999Y-95447203D01*
X135189998Y-95447200D01*
X135157061Y-95347804D01*
X135134814Y-95280666D01*
X135042712Y-95131344D01*
X134918656Y-95007288D01*
X134806557Y-94938145D01*
X134769336Y-94915187D01*
X134769331Y-94915185D01*
X134767862Y-94914698D01*
X134602797Y-94860001D01*
X134602795Y-94860000D01*
X134500016Y-94849500D01*
X134500009Y-94849500D01*
X133398543Y-94849500D01*
X133398541Y-94849500D01*
X127401459Y-94849500D01*
X127401456Y-94849500D01*
X126299998Y-94849500D01*
X126299980Y-94849501D01*
X126197203Y-94860000D01*
X126197200Y-94860001D01*
X126030668Y-94915185D01*
X126030663Y-94915187D01*
X125881342Y-95007289D01*
X125757289Y-95131342D01*
X125665187Y-95280663D01*
X125665185Y-95280668D01*
X125652874Y-95317820D01*
X125610001Y-95447203D01*
X125610001Y-95447204D01*
X125610000Y-95447204D01*
X125599500Y-95549983D01*
X125599500Y-96150001D01*
X125599501Y-96150019D01*
X125610000Y-96252796D01*
X125610001Y-96252799D01*
X125665185Y-96419331D01*
X125665187Y-96419336D01*
X125681970Y-96446545D01*
X125757288Y-96568656D01*
X125881344Y-96692712D01*
X126030666Y-96784814D01*
X126197203Y-96839999D01*
X126299991Y-96850500D01*
X127391456Y-96850499D01*
X127391463Y-96850501D01*
X127391463Y-96850500D01*
X127401459Y-96850500D01*
X129750500Y-96850500D01*
X129817539Y-96870185D01*
X129863294Y-96922989D01*
X129874500Y-96974500D01*
X129874500Y-97100500D01*
X129854815Y-97167539D01*
X129802011Y-97213294D01*
X129750500Y-97224500D01*
X129268384Y-97224500D01*
X129249145Y-97226248D01*
X129197807Y-97230913D01*
X129035393Y-97281522D01*
X128889811Y-97369530D01*
X128889810Y-97369531D01*
X128787681Y-97471661D01*
X128726358Y-97505146D01*
X128656666Y-97500162D01*
X128612319Y-97471661D01*
X128510188Y-97369530D01*
X128502370Y-97364804D01*
X128364606Y-97281522D01*
X128202196Y-97230914D01*
X128202194Y-97230913D01*
X128202192Y-97230913D01*
X128152778Y-97226423D01*
X128131616Y-97224500D01*
X127618384Y-97224500D01*
X127565449Y-97229310D01*
X127547803Y-97230914D01*
X127506173Y-97243886D01*
X127469285Y-97249500D01*
X126974495Y-97249500D01*
X126927046Y-97240062D01*
X126912666Y-97234106D01*
X126912662Y-97234105D01*
X126912658Y-97234103D01*
X126738694Y-97199500D01*
X126738691Y-97199500D01*
X126561309Y-97199500D01*
X126561306Y-97199500D01*
X126387341Y-97234103D01*
X126387332Y-97234106D01*
X126223459Y-97301983D01*
X126223446Y-97301990D01*
X126075965Y-97400535D01*
X126075961Y-97400538D01*
X125950538Y-97525961D01*
X125950535Y-97525965D01*
X125851990Y-97673446D01*
X125851983Y-97673459D01*
X125784106Y-97837332D01*
X125784103Y-97837341D01*
X125749500Y-98011304D01*
X125749500Y-98188695D01*
X125784103Y-98362658D01*
X125784106Y-98362667D01*
X125791416Y-98380315D01*
X125851987Y-98526547D01*
X125851989Y-98526550D01*
X125851992Y-98526556D01*
X125856934Y-98533952D01*
X125868389Y-98555383D01*
X125907678Y-98650231D01*
X125907679Y-98650233D01*
X126011694Y-98805903D01*
X126011700Y-98805911D01*
X126144088Y-98938299D01*
X126144092Y-98938302D01*
X126299762Y-99042318D01*
X126299768Y-99042321D01*
X126299769Y-99042322D01*
X126472749Y-99113973D01*
X126615024Y-99142273D01*
X126656379Y-99150499D01*
X126656383Y-99150500D01*
X126656384Y-99150500D01*
X127469285Y-99150500D01*
X127506173Y-99156114D01*
X127515712Y-99159086D01*
X127547804Y-99169086D01*
X127618384Y-99175500D01*
X127618387Y-99175500D01*
X128131613Y-99175500D01*
X128131616Y-99175500D01*
X128202196Y-99169086D01*
X128364606Y-99118478D01*
X128510185Y-99030472D01*
X128558478Y-98982179D01*
X128612319Y-98928339D01*
X128673642Y-98894854D01*
X128743334Y-98899838D01*
X128787681Y-98928339D01*
X128889811Y-99030469D01*
X128889813Y-99030470D01*
X128889815Y-99030472D01*
X129035394Y-99118478D01*
X129197804Y-99169086D01*
X129268384Y-99175500D01*
X129268387Y-99175500D01*
X129781613Y-99175500D01*
X129781616Y-99175500D01*
X129852196Y-99169086D01*
X129884288Y-99159086D01*
X129893827Y-99156114D01*
X129930715Y-99150500D01*
X130501378Y-99150500D01*
X130514856Y-99151235D01*
X130526799Y-99152540D01*
X130547804Y-99159086D01*
X130618384Y-99165500D01*
X130645322Y-99165500D01*
X130652044Y-99166235D01*
X130653908Y-99167011D01*
X130662756Y-99167882D01*
X130681368Y-99171585D01*
X130776456Y-99190500D01*
X130870735Y-99190500D01*
X130937774Y-99210185D01*
X130983529Y-99262989D01*
X130993473Y-99332147D01*
X130964448Y-99395703D01*
X130935832Y-99420039D01*
X130844919Y-99476114D01*
X130726114Y-99594919D01*
X130637908Y-99737922D01*
X130637906Y-99737927D01*
X130585057Y-99897416D01*
X130575000Y-99995849D01*
X130575000Y-100050000D01*
X131262500Y-100050000D01*
X131262500Y-99321490D01*
X131233236Y-99267900D01*
X131238218Y-99198208D01*
X131280087Y-99142273D01*
X131317508Y-99123154D01*
X131364606Y-99108478D01*
X131510185Y-99020472D01*
X131554300Y-98976357D01*
X131612319Y-98918339D01*
X131673642Y-98884854D01*
X131743334Y-98889838D01*
X131787681Y-98918339D01*
X131889811Y-99020469D01*
X131889813Y-99020470D01*
X131889815Y-99020472D01*
X132035394Y-99108478D01*
X132197804Y-99159086D01*
X132268384Y-99165500D01*
X132268387Y-99165500D01*
X132485315Y-99165500D01*
X132516397Y-99174626D01*
X132547852Y-99182425D01*
X132549730Y-99184414D01*
X132552354Y-99185185D01*
X132573559Y-99209657D01*
X132595814Y-99233232D01*
X132596318Y-99235922D01*
X132598109Y-99237989D01*
X132602719Y-99270051D01*
X132608693Y-99301905D01*
X132607663Y-99304439D01*
X132608053Y-99307147D01*
X132594594Y-99336616D01*
X132582401Y-99366639D01*
X132579849Y-99368904D01*
X132579028Y-99370703D01*
X132556736Y-99390866D01*
X132553640Y-99393046D01*
X132419609Y-99475719D01*
X132379787Y-99515540D01*
X132371068Y-99521684D01*
X132347683Y-99529646D01*
X132326003Y-99541485D01*
X132315189Y-99540711D01*
X132304927Y-99544206D01*
X132280950Y-99538261D01*
X132256312Y-99536499D01*
X132245303Y-99529424D01*
X132237110Y-99527393D01*
X132229347Y-99519169D01*
X132211967Y-99508000D01*
X132180080Y-99476114D01*
X132037077Y-99387908D01*
X132037072Y-99387906D01*
X131877583Y-99335057D01*
X131779150Y-99325000D01*
X131762500Y-99325000D01*
X131762500Y-101274999D01*
X131779136Y-101274999D01*
X131779152Y-101274998D01*
X131877583Y-101264943D01*
X132037072Y-101212093D01*
X132037077Y-101212091D01*
X132180080Y-101123885D01*
X132211966Y-101092000D01*
X132273289Y-101058515D01*
X132342981Y-101063499D01*
X132387328Y-101092000D01*
X132419608Y-101124280D01*
X132419612Y-101124283D01*
X132562704Y-101212544D01*
X132562707Y-101212545D01*
X132562713Y-101212549D01*
X132722315Y-101265436D01*
X132820826Y-101275500D01*
X132820831Y-101275500D01*
X133354169Y-101275500D01*
X133354174Y-101275500D01*
X133452685Y-101265436D01*
X133528024Y-101240470D01*
X133554211Y-101231794D01*
X133593214Y-101225500D01*
X135281613Y-101225500D01*
X135281616Y-101225500D01*
X135352196Y-101219086D01*
X135514606Y-101168478D01*
X135660185Y-101080472D01*
X135780472Y-100960185D01*
X135868478Y-100814606D01*
X135919086Y-100652196D01*
X135925500Y-100581616D01*
X135925500Y-100504295D01*
X135945185Y-100437256D01*
X135997989Y-100391501D01*
X136067147Y-100381557D01*
X136088508Y-100386590D01*
X136097308Y-100389506D01*
X136200019Y-100399999D01*
X137149999Y-100399999D01*
X137650000Y-100399999D01*
X138599972Y-100399999D01*
X138599986Y-100399998D01*
X138702697Y-100389505D01*
X138869119Y-100334358D01*
X138869124Y-100334356D01*
X139018345Y-100242315D01*
X139142315Y-100118345D01*
X139234356Y-99969124D01*
X139234358Y-99969119D01*
X139289505Y-99802697D01*
X139289506Y-99802690D01*
X139299999Y-99699986D01*
X141300001Y-99699986D01*
X141310494Y-99802697D01*
X141365641Y-99969119D01*
X141365643Y-99969124D01*
X141457684Y-100118345D01*
X141581654Y-100242315D01*
X141730875Y-100334356D01*
X141730880Y-100334358D01*
X141897302Y-100389505D01*
X141897309Y-100389506D01*
X142000019Y-100399999D01*
X142949999Y-100399999D01*
X142950000Y-100399998D01*
X142950000Y-99650000D01*
X141300001Y-99650000D01*
X141300001Y-99699986D01*
X139299999Y-99699986D01*
X139300000Y-99699973D01*
X139300000Y-99650000D01*
X137650000Y-99650000D01*
X137650000Y-100399999D01*
X137149999Y-100399999D01*
X137150000Y-100399998D01*
X137150000Y-99150000D01*
X137650000Y-99150000D01*
X139299999Y-99150000D01*
X139299999Y-99100029D01*
X139299998Y-99100013D01*
X141300000Y-99100013D01*
X141300000Y-99150000D01*
X142950000Y-99150000D01*
X142950000Y-98400000D01*
X142000028Y-98400000D01*
X142000012Y-98400001D01*
X141897302Y-98410494D01*
X141730880Y-98465641D01*
X141730875Y-98465643D01*
X141581654Y-98557684D01*
X141457684Y-98681654D01*
X141365643Y-98830875D01*
X141365641Y-98830880D01*
X141310494Y-98997302D01*
X141310493Y-98997309D01*
X141300000Y-99100013D01*
X139299998Y-99100013D01*
X139299998Y-99100012D01*
X139289505Y-98997302D01*
X139234358Y-98830880D01*
X139234356Y-98830875D01*
X139142315Y-98681654D01*
X139018345Y-98557684D01*
X138869124Y-98465643D01*
X138869119Y-98465641D01*
X138702697Y-98410494D01*
X138702690Y-98410493D01*
X138599986Y-98400000D01*
X137650000Y-98400000D01*
X137650000Y-99150000D01*
X137150000Y-99150000D01*
X137150000Y-98400000D01*
X136372861Y-98400000D01*
X136305822Y-98380315D01*
X136260067Y-98327511D01*
X136250123Y-98258353D01*
X136279148Y-98194797D01*
X136285166Y-98188332D01*
X136349464Y-98124035D01*
X136448013Y-97976547D01*
X136515894Y-97812666D01*
X136518851Y-97797804D01*
X136546954Y-97656519D01*
X136550500Y-97638691D01*
X136550500Y-97474500D01*
X136570185Y-97407461D01*
X136622989Y-97361706D01*
X136674500Y-97350500D01*
X137323920Y-97350500D01*
X137450151Y-97325390D01*
X137468913Y-97321658D01*
X137605495Y-97265084D01*
X137651857Y-97234106D01*
X137656633Y-97230915D01*
X137656634Y-97230914D01*
X137667809Y-97223447D01*
X137728416Y-97182952D01*
X137977194Y-96934172D01*
X138038513Y-96900690D01*
X138040554Y-96900264D01*
X138087666Y-96890894D01*
X138251547Y-96823013D01*
X138399035Y-96724464D01*
X138524464Y-96599035D01*
X138623013Y-96451547D01*
X138626782Y-96442449D01*
X138649218Y-96388282D01*
X138690894Y-96287666D01*
X138725500Y-96113691D01*
X138725500Y-95949499D01*
X138745185Y-95882460D01*
X138797989Y-95836705D01*
X138849500Y-95825499D01*
X139475500Y-95825499D01*
X139542539Y-95845184D01*
X139588294Y-95897988D01*
X139599500Y-95949499D01*
X139599500Y-97138150D01*
X139599501Y-97138175D01*
X139602291Y-97173627D01*
X139646380Y-97325385D01*
X139646382Y-97325390D01*
X139726827Y-97461416D01*
X139726834Y-97461425D01*
X139838574Y-97573165D01*
X139838583Y-97573172D01*
X139867606Y-97590336D01*
X139974610Y-97653618D01*
X140126373Y-97697709D01*
X140161837Y-97700500D01*
X140538162Y-97700499D01*
X140573627Y-97697709D01*
X140715405Y-97656519D01*
X140784595Y-97656519D01*
X140859800Y-97678368D01*
X140926373Y-97697709D01*
X140961837Y-97700500D01*
X141338162Y-97700499D01*
X141373627Y-97697709D01*
X141515405Y-97656519D01*
X141584595Y-97656519D01*
X141659800Y-97678368D01*
X141726373Y-97697709D01*
X141761837Y-97700500D01*
X142138162Y-97700499D01*
X142173627Y-97697709D01*
X142315405Y-97656519D01*
X142384595Y-97656519D01*
X142459800Y-97678368D01*
X142526373Y-97697709D01*
X142561837Y-97700500D01*
X142938162Y-97700499D01*
X142973627Y-97697709D01*
X143115405Y-97656519D01*
X143184595Y-97656519D01*
X143259800Y-97678368D01*
X143326373Y-97697709D01*
X143361837Y-97700500D01*
X143738162Y-97700499D01*
X143773627Y-97697709D01*
X143915405Y-97656519D01*
X143984595Y-97656519D01*
X144059800Y-97678368D01*
X144126373Y-97697709D01*
X144161837Y-97700500D01*
X144538162Y-97700499D01*
X144544321Y-97700014D01*
X144612698Y-97714374D01*
X144662458Y-97763423D01*
X144677801Y-97831587D01*
X144677547Y-97834852D01*
X144674500Y-97868385D01*
X144674500Y-98295704D01*
X144654815Y-98362743D01*
X144602011Y-98408498D01*
X144532853Y-98418442D01*
X144511499Y-98413411D01*
X144502699Y-98410495D01*
X144502690Y-98410493D01*
X144399986Y-98400000D01*
X143450000Y-98400000D01*
X143450000Y-100399999D01*
X144399972Y-100399999D01*
X144399986Y-100399998D01*
X144502695Y-100389506D01*
X144586495Y-100361737D01*
X144614960Y-100360757D01*
X144643147Y-100356705D01*
X144649425Y-100359572D01*
X144656324Y-100359335D01*
X144680798Y-100373900D01*
X144706703Y-100385730D01*
X144710434Y-100391536D01*
X144716366Y-100395066D01*
X144729081Y-100420551D01*
X144744477Y-100444508D01*
X144745871Y-100454203D01*
X144747559Y-100457587D01*
X144749500Y-100479443D01*
X144749500Y-100525637D01*
X144729815Y-100592676D01*
X144713181Y-100613318D01*
X143583522Y-101742977D01*
X142963319Y-102363181D01*
X142901996Y-102396666D01*
X142875638Y-102399500D01*
X136199998Y-102399500D01*
X136199980Y-102399501D01*
X136097203Y-102410000D01*
X136097200Y-102410001D01*
X135930668Y-102465185D01*
X135930663Y-102465187D01*
X135781342Y-102557289D01*
X135657289Y-102681342D01*
X135565187Y-102830663D01*
X135565186Y-102830666D01*
X135510001Y-102997203D01*
X135510001Y-102997204D01*
X135510000Y-102997204D01*
X135499500Y-103099983D01*
X135499500Y-103700001D01*
X135499501Y-103700019D01*
X135510000Y-103802796D01*
X135510001Y-103802799D01*
X135538464Y-103888693D01*
X135565186Y-103969334D01*
X135622748Y-104062658D01*
X135657289Y-104118657D01*
X135676451Y-104137819D01*
X135709936Y-104199142D01*
X135704952Y-104268834D01*
X135663080Y-104324767D01*
X135597616Y-104349184D01*
X135588770Y-104349500D01*
X119924500Y-104349500D01*
X119857461Y-104329815D01*
X119811706Y-104277011D01*
X119800500Y-104225500D01*
X119800500Y-91172135D01*
X120799500Y-91172135D01*
X120799500Y-92967870D01*
X120799501Y-92967876D01*
X120805908Y-93027483D01*
X120856202Y-93162328D01*
X120856206Y-93162335D01*
X120942452Y-93277544D01*
X120942455Y-93277547D01*
X121057664Y-93363793D01*
X121057671Y-93363797D01*
X121189082Y-93412810D01*
X121245016Y-93454681D01*
X121269433Y-93520145D01*
X121254582Y-93588418D01*
X121233431Y-93616673D01*
X121119889Y-93730215D01*
X120994951Y-93902179D01*
X120898444Y-94091585D01*
X120832753Y-94293760D01*
X120799500Y-94503713D01*
X120799500Y-94716286D01*
X120832556Y-94924998D01*
X120832754Y-94926243D01*
X120869654Y-95039810D01*
X120898444Y-95128414D01*
X120994951Y-95317820D01*
X121119890Y-95489786D01*
X121270213Y-95640109D01*
X121442179Y-95765048D01*
X121442181Y-95765049D01*
X121442184Y-95765051D01*
X121451493Y-95769794D01*
X121502290Y-95817766D01*
X121519087Y-95885587D01*
X121496552Y-95951722D01*
X121451505Y-95990760D01*
X121442446Y-95995376D01*
X121442440Y-95995380D01*
X121388282Y-96034727D01*
X121388282Y-96034728D01*
X122020591Y-96667037D01*
X121957007Y-96684075D01*
X121842993Y-96749901D01*
X121749901Y-96842993D01*
X121684075Y-96957007D01*
X121667037Y-97020591D01*
X121034728Y-96388282D01*
X121034727Y-96388282D01*
X120995380Y-96442439D01*
X120898904Y-96631782D01*
X120833242Y-96833869D01*
X120833242Y-96833872D01*
X120800000Y-97043753D01*
X120800000Y-97256246D01*
X120833242Y-97466127D01*
X120833242Y-97466130D01*
X120898904Y-97668217D01*
X120995375Y-97857550D01*
X121034728Y-97911716D01*
X121667037Y-97279408D01*
X121684075Y-97342993D01*
X121749901Y-97457007D01*
X121842993Y-97550099D01*
X121957007Y-97615925D01*
X122020590Y-97632962D01*
X121388282Y-98265269D01*
X121388282Y-98265270D01*
X121442452Y-98304626D01*
X121442451Y-98304626D01*
X121451495Y-98309234D01*
X121502292Y-98357208D01*
X121519087Y-98425029D01*
X121496550Y-98491164D01*
X121451499Y-98530202D01*
X121442182Y-98534949D01*
X121270213Y-98659890D01*
X121119890Y-98810213D01*
X120994951Y-98982179D01*
X120898444Y-99171585D01*
X120898443Y-99171587D01*
X120898443Y-99171588D01*
X120894025Y-99185185D01*
X120832753Y-99373760D01*
X120799500Y-99583713D01*
X120799500Y-99796286D01*
X120831107Y-99995849D01*
X120832754Y-100006243D01*
X120889627Y-100181280D01*
X120898444Y-100208414D01*
X120994951Y-100397820D01*
X121119890Y-100569786D01*
X121270213Y-100720109D01*
X121442182Y-100845050D01*
X121450946Y-100849516D01*
X121501742Y-100897491D01*
X121518536Y-100965312D01*
X121495998Y-101031447D01*
X121450946Y-101070484D01*
X121442182Y-101074949D01*
X121270213Y-101199890D01*
X121119890Y-101350213D01*
X120994951Y-101522179D01*
X120898444Y-101711585D01*
X120898443Y-101711587D01*
X120898443Y-101711588D01*
X120893911Y-101725535D01*
X120832753Y-101913760D01*
X120799500Y-102123713D01*
X120799500Y-102336286D01*
X120828341Y-102518384D01*
X120832754Y-102546243D01*
X120883741Y-102703165D01*
X120898444Y-102748414D01*
X120994951Y-102937820D01*
X121119890Y-103109786D01*
X121270213Y-103260109D01*
X121442179Y-103385048D01*
X121442181Y-103385049D01*
X121442184Y-103385051D01*
X121631588Y-103481557D01*
X121833757Y-103547246D01*
X122043713Y-103580500D01*
X122043714Y-103580500D01*
X122256286Y-103580500D01*
X122256287Y-103580500D01*
X122466243Y-103547246D01*
X122668412Y-103481557D01*
X122857816Y-103385051D01*
X122879789Y-103369086D01*
X123029786Y-103260109D01*
X123029788Y-103260106D01*
X123029792Y-103260104D01*
X123180104Y-103109792D01*
X123180106Y-103109788D01*
X123180109Y-103109786D01*
X123305048Y-102937820D01*
X123305047Y-102937820D01*
X123305051Y-102937816D01*
X123401557Y-102748412D01*
X123467246Y-102546243D01*
X123500500Y-102336287D01*
X123500500Y-102123713D01*
X123467246Y-101913757D01*
X123401557Y-101711588D01*
X123305051Y-101522184D01*
X123254199Y-101452192D01*
X123188473Y-101361726D01*
X123188472Y-101361725D01*
X123180107Y-101350211D01*
X123123609Y-101293713D01*
X125149500Y-101293713D01*
X125149500Y-101506286D01*
X125182016Y-101711588D01*
X125182754Y-101716243D01*
X125246931Y-101913760D01*
X125248444Y-101918414D01*
X125344951Y-102107820D01*
X125469890Y-102279786D01*
X125620213Y-102430109D01*
X125792179Y-102555048D01*
X125792181Y-102555049D01*
X125792184Y-102555051D01*
X125981588Y-102651557D01*
X126183757Y-102717246D01*
X126393713Y-102750500D01*
X126393714Y-102750500D01*
X126606286Y-102750500D01*
X126606287Y-102750500D01*
X126816243Y-102717246D01*
X127018412Y-102651557D01*
X127207816Y-102555051D01*
X127254575Y-102521079D01*
X127379786Y-102430109D01*
X127379788Y-102430106D01*
X127379792Y-102430104D01*
X127530104Y-102279792D01*
X127530106Y-102279788D01*
X127530109Y-102279786D01*
X127655048Y-102107820D01*
X127655047Y-102107820D01*
X127655051Y-102107816D01*
X127751557Y-101918412D01*
X127817246Y-101716243D01*
X127850500Y-101506287D01*
X127850500Y-101293713D01*
X127817246Y-101083757D01*
X127751557Y-100881588D01*
X127655051Y-100692184D01*
X127608820Y-100628552D01*
X127591093Y-100604152D01*
X130575001Y-100604152D01*
X130585056Y-100702583D01*
X130637906Y-100862072D01*
X130637908Y-100862077D01*
X130726114Y-101005080D01*
X130844919Y-101123885D01*
X130987922Y-101212091D01*
X130987927Y-101212093D01*
X131147416Y-101264942D01*
X131245856Y-101274999D01*
X131262500Y-101274998D01*
X131262500Y-100550000D01*
X130575001Y-100550000D01*
X130575001Y-100604152D01*
X127591093Y-100604152D01*
X127567389Y-100571526D01*
X127567386Y-100571523D01*
X127567069Y-100571086D01*
X127530104Y-100520208D01*
X127379792Y-100369896D01*
X127379786Y-100369890D01*
X127207820Y-100244951D01*
X127018414Y-100148444D01*
X127018413Y-100148443D01*
X127018412Y-100148443D01*
X126816243Y-100082754D01*
X126816241Y-100082753D01*
X126816240Y-100082753D01*
X126654957Y-100057208D01*
X126606287Y-100049500D01*
X126393713Y-100049500D01*
X126345042Y-100057208D01*
X126183760Y-100082753D01*
X125981585Y-100148444D01*
X125792179Y-100244951D01*
X125620213Y-100369890D01*
X125469890Y-100520213D01*
X125344951Y-100692179D01*
X125248444Y-100881585D01*
X125182753Y-101083760D01*
X125149500Y-101293713D01*
X123123609Y-101293713D01*
X123029786Y-101199890D01*
X122857820Y-101074951D01*
X122857115Y-101074591D01*
X122849054Y-101070485D01*
X122798259Y-101022512D01*
X122781463Y-100954692D01*
X122803999Y-100888556D01*
X122849054Y-100849515D01*
X122857816Y-100845051D01*
X122922842Y-100797807D01*
X123029786Y-100720109D01*
X123029788Y-100720106D01*
X123029792Y-100720104D01*
X123180104Y-100569792D01*
X123180106Y-100569788D01*
X123180109Y-100569786D01*
X123305048Y-100397820D01*
X123305047Y-100397820D01*
X123305051Y-100397816D01*
X123401557Y-100208412D01*
X123467246Y-100006243D01*
X123500500Y-99796287D01*
X123500500Y-99583713D01*
X123467246Y-99373757D01*
X123401557Y-99171588D01*
X123305051Y-98982184D01*
X123305049Y-98982181D01*
X123305048Y-98982179D01*
X123180109Y-98810213D01*
X123029786Y-98659890D01*
X122857817Y-98534949D01*
X122848504Y-98530204D01*
X122797707Y-98482230D01*
X122780912Y-98414409D01*
X122803449Y-98348274D01*
X122848507Y-98309232D01*
X122857555Y-98304622D01*
X122911716Y-98265270D01*
X122911717Y-98265270D01*
X122279408Y-97632962D01*
X122342993Y-97615925D01*
X122457007Y-97550099D01*
X122550099Y-97457007D01*
X122615925Y-97342993D01*
X122632962Y-97279408D01*
X123265270Y-97911717D01*
X123265270Y-97911716D01*
X123304622Y-97857554D01*
X123401095Y-97668217D01*
X123466757Y-97466130D01*
X123466757Y-97466127D01*
X123500000Y-97256246D01*
X123500000Y-97043753D01*
X123466757Y-96833872D01*
X123466757Y-96833869D01*
X123401095Y-96631782D01*
X123304624Y-96442449D01*
X123265270Y-96388282D01*
X123265269Y-96388282D01*
X122632962Y-97020590D01*
X122615925Y-96957007D01*
X122550099Y-96842993D01*
X122457007Y-96749901D01*
X122342993Y-96684075D01*
X122279409Y-96667037D01*
X122911716Y-96034728D01*
X122857547Y-95995373D01*
X122857547Y-95995372D01*
X122848500Y-95990763D01*
X122797706Y-95942788D01*
X122780912Y-95874966D01*
X122803451Y-95808832D01*
X122848508Y-95769793D01*
X122857816Y-95765051D01*
X122937007Y-95707515D01*
X123029786Y-95640109D01*
X123029788Y-95640106D01*
X123029792Y-95640104D01*
X123180104Y-95489792D01*
X123180106Y-95489788D01*
X123180109Y-95489786D01*
X123305048Y-95317820D01*
X123305047Y-95317820D01*
X123305051Y-95317816D01*
X123401557Y-95128412D01*
X123467246Y-94926243D01*
X123500500Y-94716287D01*
X123500500Y-94503713D01*
X123467246Y-94293757D01*
X123401557Y-94091588D01*
X123305051Y-93902184D01*
X123302245Y-93898322D01*
X134725001Y-93898322D01*
X134735144Y-93997607D01*
X134788452Y-94158481D01*
X134788457Y-94158492D01*
X134877424Y-94302728D01*
X134877427Y-94302732D01*
X134997267Y-94422572D01*
X134997271Y-94422575D01*
X135141507Y-94511542D01*
X135141518Y-94511547D01*
X135302393Y-94564855D01*
X135401683Y-94574999D01*
X135425000Y-94574998D01*
X135425000Y-93850000D01*
X134725001Y-93850000D01*
X134725001Y-93898322D01*
X123302245Y-93898322D01*
X123180104Y-93730208D01*
X123066569Y-93616673D01*
X123033084Y-93555350D01*
X123038068Y-93485658D01*
X123079940Y-93429725D01*
X123110915Y-93412810D01*
X123242331Y-93363796D01*
X123357546Y-93277546D01*
X123443796Y-93162331D01*
X123494091Y-93027483D01*
X123500500Y-92967873D01*
X123500499Y-92149986D01*
X125600001Y-92149986D01*
X125610494Y-92252697D01*
X125665641Y-92419119D01*
X125665643Y-92419124D01*
X125757684Y-92568345D01*
X125881654Y-92692315D01*
X126030875Y-92784356D01*
X126030880Y-92784358D01*
X126197302Y-92839505D01*
X126197309Y-92839506D01*
X126300019Y-92849999D01*
X127249999Y-92849999D01*
X127750000Y-92849999D01*
X128699972Y-92849999D01*
X128699986Y-92849998D01*
X128802697Y-92839505D01*
X128969119Y-92784358D01*
X128969124Y-92784356D01*
X129118345Y-92692315D01*
X129242315Y-92568345D01*
X129334356Y-92419124D01*
X129334358Y-92419119D01*
X129389505Y-92252697D01*
X129389506Y-92252690D01*
X129399999Y-92149986D01*
X131400001Y-92149986D01*
X131410494Y-92252697D01*
X131465641Y-92419119D01*
X131465643Y-92419124D01*
X131557684Y-92568345D01*
X131681654Y-92692315D01*
X131830875Y-92784356D01*
X131830880Y-92784358D01*
X131997302Y-92839505D01*
X131997309Y-92839506D01*
X132100019Y-92849999D01*
X133049999Y-92849999D01*
X133050000Y-92849998D01*
X133050000Y-92100000D01*
X131400001Y-92100000D01*
X131400001Y-92149986D01*
X129399999Y-92149986D01*
X129400000Y-92149973D01*
X129400000Y-92100000D01*
X127750000Y-92100000D01*
X127750000Y-92849999D01*
X127249999Y-92849999D01*
X127250000Y-92849998D01*
X127250000Y-92100000D01*
X125600001Y-92100000D01*
X125600001Y-92149986D01*
X123500499Y-92149986D01*
X123500499Y-91550013D01*
X125600000Y-91550013D01*
X125600000Y-91600000D01*
X127250000Y-91600000D01*
X127750000Y-91600000D01*
X129399999Y-91600000D01*
X129399999Y-91550029D01*
X129399998Y-91550013D01*
X131400000Y-91550013D01*
X131400000Y-91600000D01*
X133050000Y-91600000D01*
X133050000Y-90850000D01*
X132100028Y-90850000D01*
X132100012Y-90850001D01*
X131997302Y-90860494D01*
X131830880Y-90915641D01*
X131830875Y-90915643D01*
X131681654Y-91007684D01*
X131557684Y-91131654D01*
X131465643Y-91280875D01*
X131465641Y-91280880D01*
X131410494Y-91447302D01*
X131410493Y-91447309D01*
X131400000Y-91550013D01*
X129399998Y-91550013D01*
X129399998Y-91550012D01*
X129389505Y-91447302D01*
X129334358Y-91280880D01*
X129334356Y-91280875D01*
X129242315Y-91131654D01*
X129118345Y-91007684D01*
X128969124Y-90915643D01*
X128969119Y-90915641D01*
X128802697Y-90860494D01*
X128802690Y-90860493D01*
X128699986Y-90850000D01*
X127750000Y-90850000D01*
X127750000Y-91600000D01*
X127250000Y-91600000D01*
X127250000Y-90850000D01*
X126300028Y-90850000D01*
X126300012Y-90850001D01*
X126197302Y-90860494D01*
X126030880Y-90915641D01*
X126030875Y-90915643D01*
X125881654Y-91007684D01*
X125757684Y-91131654D01*
X125665643Y-91280875D01*
X125665641Y-91280880D01*
X125610494Y-91447302D01*
X125610493Y-91447309D01*
X125600000Y-91550013D01*
X123500499Y-91550013D01*
X123500499Y-91172128D01*
X123494091Y-91112517D01*
X123492387Y-91107949D01*
X123443797Y-90977671D01*
X123443793Y-90977664D01*
X123357547Y-90862455D01*
X123357544Y-90862452D01*
X123242335Y-90776206D01*
X123242328Y-90776202D01*
X123107482Y-90725908D01*
X123107483Y-90725908D01*
X123047883Y-90719501D01*
X123047881Y-90719500D01*
X123047873Y-90719500D01*
X123047864Y-90719500D01*
X121252129Y-90719500D01*
X121252123Y-90719501D01*
X121192516Y-90725908D01*
X121057671Y-90776202D01*
X121057664Y-90776206D01*
X120942455Y-90862452D01*
X120942452Y-90862455D01*
X120856206Y-90977664D01*
X120856202Y-90977671D01*
X120805908Y-91112517D01*
X120802201Y-91147001D01*
X120799501Y-91172123D01*
X120799500Y-91172135D01*
X119800500Y-91172135D01*
X119800500Y-73159967D01*
X119820185Y-73092928D01*
X119872989Y-73047173D01*
X119942147Y-73037229D01*
X120005703Y-73066254D01*
X120019835Y-73080675D01*
X120025792Y-73087837D01*
X120069528Y-73160185D01*
X120167202Y-73257859D01*
X120170835Y-73262227D01*
X120182535Y-73289282D01*
X120196666Y-73315160D01*
X120197638Y-73324204D01*
X120198569Y-73326356D01*
X120198146Y-73328926D01*
X120199500Y-73341519D01*
X120199500Y-74356006D01*
X120199500Y-74493994D01*
X120199500Y-74493996D01*
X120199499Y-74493996D01*
X120226418Y-74629322D01*
X120226421Y-74629332D01*
X120279222Y-74756807D01*
X120355887Y-74871545D01*
X120355888Y-74871546D01*
X121213181Y-75728838D01*
X121246666Y-75790161D01*
X121249500Y-75816519D01*
X121249500Y-76596883D01*
X121229815Y-76663922D01*
X121181799Y-76707366D01*
X121163569Y-76716655D01*
X121107126Y-76757664D01*
X120972490Y-76855483D01*
X120972488Y-76855485D01*
X120972487Y-76855485D01*
X120805485Y-77022487D01*
X120805485Y-77022488D01*
X120805483Y-77022490D01*
X120772511Y-77067872D01*
X120666657Y-77213566D01*
X120559433Y-77424003D01*
X120486446Y-77648631D01*
X120449500Y-77881902D01*
X120449500Y-78118097D01*
X120486446Y-78351368D01*
X120559433Y-78575996D01*
X120602903Y-78661309D01*
X120666657Y-78786433D01*
X120805483Y-78977510D01*
X120972490Y-79144517D01*
X121163567Y-79283343D01*
X121262991Y-79334002D01*
X121374003Y-79390566D01*
X121374005Y-79390566D01*
X121374008Y-79390568D01*
X121494412Y-79429689D01*
X121598631Y-79463553D01*
X121831903Y-79500500D01*
X121831908Y-79500500D01*
X122068097Y-79500500D01*
X122301368Y-79463553D01*
X122344729Y-79449464D01*
X122525992Y-79390568D01*
X122736433Y-79283343D01*
X122927510Y-79144517D01*
X123094517Y-78977510D01*
X123233343Y-78786433D01*
X123340568Y-78575992D01*
X123413553Y-78351368D01*
X123424601Y-78281613D01*
X123450500Y-78118097D01*
X123450500Y-77881902D01*
X123413553Y-77648631D01*
X123340566Y-77424003D01*
X123284002Y-77312991D01*
X123233343Y-77213567D01*
X123094517Y-77022490D01*
X122927510Y-76855483D01*
X122736433Y-76716657D01*
X122736432Y-76716656D01*
X122736430Y-76716655D01*
X122718201Y-76707366D01*
X122667407Y-76659390D01*
X122650500Y-76596883D01*
X122650500Y-75406004D01*
X122623581Y-75270676D01*
X122623580Y-75270674D01*
X122623580Y-75270672D01*
X122619760Y-75261450D01*
X122612590Y-75244139D01*
X122612578Y-75244112D01*
X122570778Y-75143196D01*
X122570777Y-75143195D01*
X122570775Y-75143189D01*
X122494114Y-75028457D01*
X122494112Y-75028454D01*
X122267813Y-74802155D01*
X132100000Y-74802155D01*
X132100000Y-75050000D01*
X133250000Y-75050000D01*
X133750000Y-75050000D01*
X134900000Y-75050000D01*
X134900000Y-74802172D01*
X134899999Y-74802155D01*
X134893598Y-74742627D01*
X134893596Y-74742620D01*
X134843354Y-74607913D01*
X134843350Y-74607906D01*
X134757190Y-74492812D01*
X134757187Y-74492809D01*
X134642093Y-74406649D01*
X134642086Y-74406645D01*
X134507379Y-74356403D01*
X134507372Y-74356401D01*
X134447844Y-74350000D01*
X133750000Y-74350000D01*
X133750000Y-75050000D01*
X133250000Y-75050000D01*
X133250000Y-74350000D01*
X132552155Y-74350000D01*
X132492627Y-74356401D01*
X132492620Y-74356403D01*
X132357913Y-74406645D01*
X132357906Y-74406649D01*
X132242812Y-74492809D01*
X132242809Y-74492812D01*
X132156649Y-74607906D01*
X132156645Y-74607913D01*
X132106403Y-74742620D01*
X132106401Y-74742627D01*
X132100000Y-74802155D01*
X122267813Y-74802155D01*
X121636819Y-74171161D01*
X121603334Y-74109838D01*
X121600500Y-74083480D01*
X121600500Y-73848543D01*
X145999499Y-73848543D01*
X146037947Y-74041829D01*
X146037950Y-74041839D01*
X146113364Y-74223907D01*
X146113371Y-74223920D01*
X146222860Y-74387781D01*
X146222863Y-74387785D01*
X146362214Y-74527136D01*
X146362218Y-74527139D01*
X146526079Y-74636628D01*
X146526092Y-74636635D01*
X146708160Y-74712049D01*
X146708165Y-74712051D01*
X146708169Y-74712051D01*
X146708170Y-74712052D01*
X146901456Y-74750500D01*
X146901459Y-74750500D01*
X147976000Y-74750500D01*
X148043039Y-74770185D01*
X148088794Y-74822989D01*
X148100000Y-74874500D01*
X148100000Y-75050000D01*
X150900000Y-75050000D01*
X150900000Y-74874500D01*
X150919685Y-74807461D01*
X150972489Y-74761706D01*
X151024000Y-74750500D01*
X152884218Y-74750500D01*
X152951257Y-74770185D01*
X152971899Y-74786819D01*
X153505150Y-75320070D01*
X153538635Y-75381393D01*
X153533651Y-75451085D01*
X153491779Y-75507018D01*
X153454361Y-75526136D01*
X153435602Y-75531981D01*
X153290122Y-75619927D01*
X153169927Y-75740122D01*
X153081980Y-75885604D01*
X153031409Y-76047893D01*
X153025000Y-76118427D01*
X153025000Y-76125000D01*
X154974999Y-76125000D01*
X154974999Y-76118417D01*
X154968591Y-76047897D01*
X154968590Y-76047892D01*
X154918018Y-75885603D01*
X154830072Y-75740122D01*
X154822407Y-75732457D01*
X154788922Y-75671134D01*
X154793906Y-75601442D01*
X154835778Y-75545509D01*
X154841186Y-75541680D01*
X154937781Y-75477139D01*
X155077139Y-75337781D01*
X155186631Y-75173914D01*
X155262051Y-74991836D01*
X155300500Y-74798540D01*
X155300500Y-74601460D01*
X155300500Y-74601457D01*
X155300499Y-74601455D01*
X155291268Y-74555048D01*
X155262051Y-74408164D01*
X155186631Y-74226086D01*
X155186629Y-74226083D01*
X155186627Y-74226079D01*
X155077139Y-74062219D01*
X155077136Y-74062215D01*
X154391442Y-73376522D01*
X154308633Y-73293713D01*
X155849500Y-73293713D01*
X155849500Y-73506286D01*
X155872492Y-73651456D01*
X155882754Y-73716243D01*
X155925740Y-73848541D01*
X155948444Y-73918414D01*
X156044951Y-74107820D01*
X156169890Y-74279786D01*
X156320213Y-74430109D01*
X156492179Y-74555048D01*
X156492181Y-74555049D01*
X156492184Y-74555051D01*
X156681588Y-74651557D01*
X156883757Y-74717246D01*
X157093713Y-74750500D01*
X157093714Y-74750500D01*
X157306286Y-74750500D01*
X157306287Y-74750500D01*
X157516243Y-74717246D01*
X157718412Y-74651557D01*
X157907816Y-74555051D01*
X157991852Y-74493996D01*
X158079786Y-74430109D01*
X158079788Y-74430106D01*
X158079792Y-74430104D01*
X158230104Y-74279792D01*
X158230106Y-74279788D01*
X158230109Y-74279786D01*
X158355048Y-74107820D01*
X158355047Y-74107820D01*
X158355051Y-74107816D01*
X158451557Y-73918412D01*
X158517246Y-73716243D01*
X158550500Y-73506287D01*
X158550500Y-73293713D01*
X158517246Y-73083757D01*
X158451557Y-72881588D01*
X158355051Y-72692184D01*
X158355049Y-72692181D01*
X158355048Y-72692179D01*
X158230109Y-72520213D01*
X158079786Y-72369890D01*
X157907820Y-72244951D01*
X157718414Y-72148444D01*
X157718413Y-72148443D01*
X157718412Y-72148443D01*
X157516243Y-72082754D01*
X157516241Y-72082753D01*
X157516240Y-72082753D01*
X157354957Y-72057208D01*
X157306287Y-72049500D01*
X157093713Y-72049500D01*
X157045042Y-72057208D01*
X156883760Y-72082753D01*
X156681585Y-72148444D01*
X156492179Y-72244951D01*
X156320213Y-72369890D01*
X156169890Y-72520213D01*
X156044951Y-72692179D01*
X155948444Y-72881585D01*
X155882753Y-73083760D01*
X155849500Y-73293713D01*
X154308633Y-73293713D01*
X154131479Y-73116559D01*
X154127141Y-73112221D01*
X154127139Y-73112218D01*
X154051063Y-73036142D01*
X154033211Y-73013562D01*
X154022971Y-72996960D01*
X154022967Y-72996955D01*
X154013339Y-72987327D01*
X153979854Y-72926004D01*
X153984838Y-72856312D01*
X154013345Y-72811959D01*
X154022573Y-72802731D01*
X154111542Y-72658492D01*
X154111547Y-72658481D01*
X154164855Y-72497606D01*
X154174999Y-72398322D01*
X154175000Y-72398309D01*
X154175000Y-72375000D01*
X152795590Y-72375000D01*
X152754996Y-72397166D01*
X152728638Y-72400000D01*
X150725001Y-72400000D01*
X150725001Y-72423322D01*
X150735144Y-72522607D01*
X150756315Y-72586496D01*
X150758717Y-72656324D01*
X150722985Y-72716366D01*
X150660465Y-72747559D01*
X150638609Y-72749500D01*
X146901457Y-72749500D01*
X146708170Y-72787947D01*
X146708160Y-72787950D01*
X146526092Y-72863364D01*
X146526079Y-72863371D01*
X146362218Y-72972860D01*
X146362214Y-72972863D01*
X146222863Y-73112214D01*
X146222860Y-73112218D01*
X146113371Y-73276079D01*
X146113364Y-73276092D01*
X146037950Y-73458160D01*
X146037947Y-73458170D01*
X145999500Y-73651456D01*
X145999500Y-73651459D01*
X145999500Y-73848541D01*
X145999500Y-73848543D01*
X145999499Y-73848543D01*
X121600500Y-73848543D01*
X121600500Y-73341519D01*
X121620185Y-73274480D01*
X121636814Y-73253842D01*
X121730472Y-73160185D01*
X121818478Y-73014606D01*
X121869086Y-72852196D01*
X121875500Y-72781616D01*
X121875500Y-72268384D01*
X121869086Y-72197804D01*
X121818478Y-72035394D01*
X121730472Y-71889815D01*
X121717334Y-71876677D01*
X150725000Y-71876677D01*
X150725000Y-71900000D01*
X151450000Y-71900000D01*
X151450000Y-71200000D01*
X151950000Y-71200000D01*
X151950000Y-71900000D01*
X152104410Y-71900000D01*
X152145004Y-71877834D01*
X152171362Y-71875000D01*
X152950000Y-71875000D01*
X153450000Y-71875000D01*
X154174999Y-71875000D01*
X154174999Y-71851692D01*
X154174998Y-71851677D01*
X154164855Y-71752392D01*
X154111547Y-71591518D01*
X154111542Y-71591507D01*
X154022575Y-71447271D01*
X154022572Y-71447267D01*
X153902732Y-71327427D01*
X153902728Y-71327424D01*
X153758492Y-71238457D01*
X153758481Y-71238452D01*
X153597606Y-71185144D01*
X153498322Y-71175000D01*
X153450000Y-71175000D01*
X153450000Y-71875000D01*
X152950000Y-71875000D01*
X152950000Y-71175000D01*
X152949999Y-71174999D01*
X152901693Y-71175000D01*
X152901675Y-71175001D01*
X152802392Y-71185144D01*
X152641518Y-71238452D01*
X152641513Y-71238454D01*
X152494831Y-71328930D01*
X152427439Y-71347370D01*
X152364637Y-71328929D01*
X152258492Y-71263457D01*
X152258481Y-71263452D01*
X152097606Y-71210144D01*
X151998322Y-71200000D01*
X151950000Y-71200000D01*
X151450000Y-71200000D01*
X151449999Y-71199999D01*
X151401693Y-71200000D01*
X151401675Y-71200001D01*
X151302392Y-71210144D01*
X151141518Y-71263452D01*
X151141507Y-71263457D01*
X150997271Y-71352424D01*
X150997267Y-71352427D01*
X150877427Y-71472267D01*
X150877424Y-71472271D01*
X150788457Y-71616507D01*
X150788452Y-71616518D01*
X150735144Y-71777393D01*
X150725000Y-71876677D01*
X121717334Y-71876677D01*
X121624735Y-71784078D01*
X121621735Y-71780597D01*
X121609124Y-71752787D01*
X121594499Y-71726003D01*
X121594836Y-71721279D01*
X121592880Y-71716964D01*
X121597305Y-71686759D01*
X121599483Y-71656311D01*
X121602441Y-71651708D01*
X121603009Y-71647832D01*
X121610341Y-71639415D01*
X121627985Y-71611963D01*
X121730071Y-71509878D01*
X121730072Y-71509877D01*
X121818019Y-71364395D01*
X121868590Y-71202106D01*
X121875000Y-71131572D01*
X121875000Y-71125000D01*
X121024000Y-71125000D01*
X120956961Y-71105315D01*
X120911206Y-71052511D01*
X120900000Y-71001000D01*
X120900000Y-70875000D01*
X120774000Y-70875000D01*
X120706961Y-70855315D01*
X120661206Y-70802511D01*
X120650000Y-70751000D01*
X120650000Y-70625000D01*
X121150000Y-70625000D01*
X121874999Y-70625000D01*
X121874999Y-70618417D01*
X121868591Y-70547897D01*
X121868590Y-70547892D01*
X121818018Y-70385603D01*
X121730072Y-70240122D01*
X121609877Y-70119927D01*
X121464395Y-70031980D01*
X121464396Y-70031980D01*
X121302105Y-69981409D01*
X121302106Y-69981409D01*
X121231572Y-69975000D01*
X121150000Y-69975000D01*
X121150000Y-70625000D01*
X120650000Y-70625000D01*
X120650000Y-69975000D01*
X120649999Y-69974999D01*
X120568417Y-69975000D01*
X120497897Y-69981408D01*
X120497892Y-69981409D01*
X120335603Y-70031981D01*
X120190122Y-70119927D01*
X120069928Y-70240121D01*
X120069925Y-70240125D01*
X120030616Y-70305150D01*
X119979088Y-70352337D01*
X119910229Y-70364175D01*
X119845900Y-70336906D01*
X119806527Y-70279187D01*
X119800500Y-70240999D01*
X119800500Y-64597844D01*
X132050000Y-64597844D01*
X132056401Y-64657372D01*
X132056403Y-64657379D01*
X132106645Y-64792086D01*
X132106649Y-64792093D01*
X132192809Y-64907187D01*
X132192812Y-64907190D01*
X132307906Y-64993350D01*
X132307913Y-64993354D01*
X132442620Y-65043596D01*
X132442627Y-65043598D01*
X132502155Y-65049999D01*
X132502172Y-65050000D01*
X133200000Y-65050000D01*
X133700000Y-65050000D01*
X134397828Y-65050000D01*
X134397844Y-65049999D01*
X134457372Y-65043598D01*
X134457379Y-65043596D01*
X134592086Y-64993354D01*
X134592093Y-64993350D01*
X134707187Y-64907190D01*
X134707190Y-64907187D01*
X134793350Y-64792093D01*
X134793354Y-64792086D01*
X134843596Y-64657379D01*
X134843598Y-64657372D01*
X134849999Y-64597844D01*
X148050000Y-64597844D01*
X148056401Y-64657372D01*
X148056403Y-64657379D01*
X148106645Y-64792086D01*
X148106649Y-64792093D01*
X148192809Y-64907187D01*
X148192812Y-64907190D01*
X148307906Y-64993350D01*
X148307913Y-64993354D01*
X148442620Y-65043596D01*
X148442627Y-65043598D01*
X148502155Y-65049999D01*
X148502172Y-65050000D01*
X149200000Y-65050000D01*
X149700000Y-65050000D01*
X150397828Y-65050000D01*
X150397844Y-65049999D01*
X150457372Y-65043598D01*
X150457379Y-65043596D01*
X150592086Y-64993354D01*
X150592093Y-64993350D01*
X150707187Y-64907190D01*
X150707190Y-64907187D01*
X150793350Y-64792093D01*
X150793354Y-64792086D01*
X150843596Y-64657379D01*
X150843598Y-64657372D01*
X150849999Y-64597844D01*
X150850000Y-64597827D01*
X150850000Y-64350000D01*
X149700000Y-64350000D01*
X149700000Y-65050000D01*
X149200000Y-65050000D01*
X149200000Y-64350000D01*
X148050000Y-64350000D01*
X148050000Y-64597844D01*
X134849999Y-64597844D01*
X134850000Y-64597827D01*
X134850000Y-64350000D01*
X133700000Y-64350000D01*
X133700000Y-65050000D01*
X133200000Y-65050000D01*
X133200000Y-64350000D01*
X132050000Y-64350000D01*
X132050000Y-64597844D01*
X119800500Y-64597844D01*
X119800500Y-62893713D01*
X122799500Y-62893713D01*
X122799500Y-63106287D01*
X122832754Y-63316243D01*
X122889653Y-63491360D01*
X122898444Y-63518414D01*
X122994951Y-63707820D01*
X123119890Y-63879786D01*
X123270213Y-64030109D01*
X123442179Y-64155048D01*
X123442181Y-64155049D01*
X123442184Y-64155051D01*
X123631588Y-64251557D01*
X123833757Y-64317246D01*
X124043713Y-64350500D01*
X124043714Y-64350500D01*
X124256286Y-64350500D01*
X124256287Y-64350500D01*
X124466243Y-64317246D01*
X124668412Y-64251557D01*
X124857816Y-64155051D01*
X124973392Y-64071081D01*
X125029786Y-64030109D01*
X125029788Y-64030106D01*
X125029792Y-64030104D01*
X125180104Y-63879792D01*
X125180106Y-63879788D01*
X125180109Y-63879786D01*
X125305048Y-63707820D01*
X125305047Y-63707820D01*
X125305051Y-63707816D01*
X125401557Y-63518412D01*
X125463477Y-63327844D01*
X132050000Y-63327844D01*
X132056401Y-63387372D01*
X132056404Y-63387383D01*
X132069191Y-63421668D01*
X132074175Y-63491360D01*
X132069191Y-63508332D01*
X132056404Y-63542616D01*
X132056401Y-63542627D01*
X132050000Y-63602155D01*
X132050000Y-63850000D01*
X133200000Y-63850000D01*
X133700000Y-63850000D01*
X134850000Y-63850000D01*
X134850000Y-63602172D01*
X134849999Y-63602155D01*
X134843598Y-63542627D01*
X134843597Y-63542624D01*
X134830808Y-63508335D01*
X134825822Y-63438644D01*
X134830808Y-63421665D01*
X134843597Y-63387375D01*
X134843598Y-63387372D01*
X134849999Y-63327844D01*
X134850000Y-63327827D01*
X134850000Y-63080000D01*
X133700000Y-63080000D01*
X133700000Y-63850000D01*
X133200000Y-63850000D01*
X133200000Y-63080000D01*
X132050000Y-63080000D01*
X132050000Y-63327844D01*
X125463477Y-63327844D01*
X125467246Y-63316243D01*
X125500500Y-63106287D01*
X125500500Y-62893713D01*
X125467246Y-62683757D01*
X125401557Y-62481588D01*
X125305051Y-62292184D01*
X125305049Y-62292181D01*
X125305048Y-62292179D01*
X125180109Y-62120213D01*
X125117740Y-62057844D01*
X132050000Y-62057844D01*
X132056401Y-62117372D01*
X132056404Y-62117383D01*
X132069191Y-62151668D01*
X132074175Y-62221360D01*
X132069191Y-62238332D01*
X132056404Y-62272616D01*
X132056401Y-62272627D01*
X132050000Y-62332155D01*
X132050000Y-62580000D01*
X133200000Y-62580000D01*
X133700000Y-62580000D01*
X134850000Y-62580000D01*
X134850000Y-62332172D01*
X134849999Y-62332155D01*
X134843598Y-62272627D01*
X134843597Y-62272624D01*
X134830808Y-62238335D01*
X134825822Y-62168644D01*
X134830808Y-62151665D01*
X134843597Y-62117375D01*
X134843598Y-62117372D01*
X134849999Y-62057844D01*
X134850000Y-62057827D01*
X134850000Y-61810000D01*
X133700000Y-61810000D01*
X133700000Y-62580000D01*
X133200000Y-62580000D01*
X133200000Y-61810000D01*
X132050000Y-61810000D01*
X132050000Y-62057844D01*
X125117740Y-62057844D01*
X125029786Y-61969890D01*
X124877096Y-61858956D01*
X124857819Y-61844951D01*
X124857818Y-61844950D01*
X124857816Y-61844949D01*
X124668412Y-61748443D01*
X124466243Y-61682754D01*
X124466241Y-61682753D01*
X124466240Y-61682753D01*
X124304423Y-61657124D01*
X124256287Y-61649500D01*
X124043713Y-61649500D01*
X123995577Y-61657124D01*
X123833760Y-61682753D01*
X123631585Y-61748444D01*
X123442179Y-61844951D01*
X123270213Y-61969890D01*
X123119890Y-62120213D01*
X122994951Y-62292179D01*
X122898444Y-62481585D01*
X122832753Y-62683760D01*
X122799500Y-62893713D01*
X119800500Y-62893713D01*
X119800500Y-61062155D01*
X132050000Y-61062155D01*
X132050000Y-61310000D01*
X133200000Y-61310000D01*
X133700000Y-61310000D01*
X134850000Y-61310000D01*
X134850000Y-61062172D01*
X134849999Y-61062155D01*
X148050000Y-61062155D01*
X148050000Y-61310000D01*
X149200000Y-61310000D01*
X149700000Y-61310000D01*
X150850000Y-61310000D01*
X150850000Y-61062172D01*
X150849999Y-61062158D01*
X150846596Y-61030512D01*
X150790745Y-60864426D01*
X150707190Y-60752812D01*
X150707187Y-60752809D01*
X150592093Y-60666649D01*
X150592086Y-60666645D01*
X150457379Y-60616403D01*
X150457372Y-60616401D01*
X150397844Y-60610000D01*
X149700000Y-60610000D01*
X149700000Y-61310000D01*
X149200000Y-61310000D01*
X149200000Y-60610000D01*
X148502155Y-60610000D01*
X148442627Y-60616401D01*
X148442620Y-60616403D01*
X148307913Y-60666645D01*
X148307906Y-60666649D01*
X148192812Y-60752809D01*
X148192809Y-60752812D01*
X148106649Y-60867906D01*
X148106645Y-60867913D01*
X148056403Y-61002620D01*
X148056401Y-61002627D01*
X148050000Y-61062155D01*
X134849999Y-61062155D01*
X134843598Y-61002627D01*
X134843596Y-61002620D01*
X134793354Y-60867913D01*
X134793350Y-60867906D01*
X134707190Y-60752812D01*
X134707187Y-60752809D01*
X134592093Y-60666649D01*
X134592086Y-60666645D01*
X134457379Y-60616403D01*
X134457372Y-60616401D01*
X134397844Y-60610000D01*
X133700000Y-60610000D01*
X133700000Y-61310000D01*
X133200000Y-61310000D01*
X133200000Y-60610000D01*
X132502155Y-60610000D01*
X132442627Y-60616401D01*
X132442620Y-60616403D01*
X132307913Y-60666645D01*
X132307906Y-60666649D01*
X132192812Y-60752809D01*
X132192809Y-60752812D01*
X132106649Y-60867906D01*
X132106645Y-60867913D01*
X132056403Y-61002620D01*
X132056401Y-61002627D01*
X132050000Y-61062155D01*
X119800500Y-61062155D01*
X119800500Y-58974500D01*
X119820185Y-58907461D01*
X119872989Y-58861706D01*
X119924500Y-58850500D01*
X150884108Y-58850500D01*
X151394557Y-58850500D01*
X151461596Y-58870185D01*
G37*
%TD.AperFunction*%
%TA.AperFunction,Conductor*%
G36*
X160940665Y-81875531D02*
G01*
X160987356Y-81927510D01*
X160999500Y-81981028D01*
X160999500Y-104225500D01*
X160979815Y-104292539D01*
X160927011Y-104338294D01*
X160875500Y-104349500D01*
X158496139Y-104349500D01*
X158429100Y-104329815D01*
X158383345Y-104277011D01*
X158373401Y-104207853D01*
X158393037Y-104156609D01*
X158451628Y-104068920D01*
X158451628Y-104068919D01*
X158451632Y-104068914D01*
X158527051Y-103886835D01*
X158561966Y-103711309D01*
X158565500Y-103693543D01*
X158565500Y-102896456D01*
X158527052Y-102703170D01*
X158527051Y-102703169D01*
X158527051Y-102703165D01*
X158518012Y-102681342D01*
X158451635Y-102521092D01*
X158451628Y-102521079D01*
X158342139Y-102357218D01*
X158342136Y-102357214D01*
X158202785Y-102217863D01*
X158202781Y-102217860D01*
X158038920Y-102108371D01*
X158038907Y-102108364D01*
X157856839Y-102032950D01*
X157856829Y-102032947D01*
X157663543Y-101994500D01*
X157663541Y-101994500D01*
X157466459Y-101994500D01*
X157466457Y-101994500D01*
X157273170Y-102032947D01*
X157273160Y-102032950D01*
X157091092Y-102108364D01*
X157091079Y-102108371D01*
X156927218Y-102217860D01*
X156927214Y-102217863D01*
X156787863Y-102357214D01*
X156787860Y-102357218D01*
X156678371Y-102521079D01*
X156678364Y-102521092D01*
X156602950Y-102703160D01*
X156602947Y-102703170D01*
X156564500Y-102896456D01*
X156564500Y-102896459D01*
X156564500Y-103693541D01*
X156564500Y-103693543D01*
X156564499Y-103693543D01*
X156602947Y-103886829D01*
X156602950Y-103886839D01*
X156678364Y-104068907D01*
X156678371Y-104068920D01*
X156736963Y-104156609D01*
X156757841Y-104223287D01*
X156739356Y-104290667D01*
X156687377Y-104337357D01*
X156633861Y-104349500D01*
X149856139Y-104349500D01*
X149789100Y-104329815D01*
X149743345Y-104277011D01*
X149733401Y-104207853D01*
X149753037Y-104156609D01*
X149811628Y-104068920D01*
X149811628Y-104068919D01*
X149811632Y-104068914D01*
X149887051Y-103886835D01*
X149921966Y-103711309D01*
X149925500Y-103693543D01*
X149925500Y-102896456D01*
X149887052Y-102703170D01*
X149887051Y-102703169D01*
X149887051Y-102703165D01*
X149878012Y-102681342D01*
X149811635Y-102521092D01*
X149811628Y-102521079D01*
X149702139Y-102357218D01*
X149702136Y-102357214D01*
X149562785Y-102217863D01*
X149562781Y-102217860D01*
X149398920Y-102108371D01*
X149398907Y-102108364D01*
X149216839Y-102032950D01*
X149216829Y-102032947D01*
X149023543Y-101994500D01*
X149023541Y-101994500D01*
X148826459Y-101994500D01*
X148826457Y-101994500D01*
X148633170Y-102032947D01*
X148633160Y-102032950D01*
X148451092Y-102108364D01*
X148451079Y-102108371D01*
X148287218Y-102217860D01*
X148287214Y-102217863D01*
X148147863Y-102357214D01*
X148147860Y-102357218D01*
X148038371Y-102521079D01*
X148038364Y-102521092D01*
X147962950Y-102703160D01*
X147962947Y-102703170D01*
X147924500Y-102896456D01*
X147924500Y-102896459D01*
X147924500Y-103693541D01*
X147924500Y-103693543D01*
X147924499Y-103693543D01*
X147962947Y-103886829D01*
X147962950Y-103886839D01*
X148038364Y-104068907D01*
X148038371Y-104068920D01*
X148096963Y-104156609D01*
X148117841Y-104223287D01*
X148099356Y-104290667D01*
X148047377Y-104337357D01*
X147993861Y-104349500D01*
X146582663Y-104349500D01*
X146515624Y-104329815D01*
X146469869Y-104277011D01*
X146459925Y-104207853D01*
X146468102Y-104178048D01*
X146492702Y-104118656D01*
X146515894Y-104062666D01*
X146550500Y-103888691D01*
X146550500Y-103711309D01*
X146550500Y-103328912D01*
X146566396Y-103271893D01*
X146565400Y-103271445D01*
X146568345Y-103264900D01*
X146568384Y-103264760D01*
X146568478Y-103264606D01*
X146619086Y-103102196D01*
X146625500Y-103031616D01*
X146625500Y-102518384D01*
X146619086Y-102447804D01*
X146568478Y-102285394D01*
X146480472Y-102139815D01*
X146480470Y-102139813D01*
X146480469Y-102139811D01*
X146378339Y-102037681D01*
X146344854Y-101976358D01*
X146349838Y-101906666D01*
X146378339Y-101862319D01*
X146480468Y-101760189D01*
X146480469Y-101760188D01*
X146480472Y-101760185D01*
X146568478Y-101614606D01*
X146619086Y-101452196D01*
X146625500Y-101381616D01*
X146625500Y-100868384D01*
X146619086Y-100797804D01*
X146568478Y-100635394D01*
X146568379Y-100635230D01*
X146568337Y-100635082D01*
X146565399Y-100628552D01*
X146566392Y-100628104D01*
X146563848Y-100618975D01*
X146555523Y-100606021D01*
X146550500Y-100571086D01*
X146550500Y-100328912D01*
X146566396Y-100271893D01*
X146565400Y-100271445D01*
X146568345Y-100264900D01*
X146568384Y-100264760D01*
X146568478Y-100264606D01*
X146619086Y-100102196D01*
X146625500Y-100031616D01*
X146625500Y-99518384D01*
X146619086Y-99447804D01*
X146568478Y-99285394D01*
X146480472Y-99139815D01*
X146480470Y-99139813D01*
X146480469Y-99139811D01*
X146378338Y-99037680D01*
X146373940Y-99029626D01*
X146366603Y-99024111D01*
X146357457Y-98999440D01*
X146344853Y-98976357D01*
X146345507Y-98967204D01*
X146342317Y-98958598D01*
X146347960Y-98932903D01*
X146349837Y-98906665D01*
X146355734Y-98897507D01*
X146357306Y-98890355D01*
X146378509Y-98862147D01*
X146378763Y-98861893D01*
X146379014Y-98861644D01*
X146440404Y-98828281D01*
X146466520Y-98825500D01*
X146893996Y-98825500D01*
X146992513Y-98805903D01*
X147029328Y-98798580D01*
X147122022Y-98760185D01*
X147156807Y-98745777D01*
X147156808Y-98745776D01*
X147156811Y-98745775D01*
X147271543Y-98669114D01*
X147747265Y-98193392D01*
X147808588Y-98159907D01*
X147878279Y-98164891D01*
X147934213Y-98206762D01*
X147958630Y-98272227D01*
X147956563Y-98305264D01*
X147924500Y-98466454D01*
X147924500Y-98466459D01*
X147924500Y-99763541D01*
X147924500Y-99763543D01*
X147924499Y-99763543D01*
X147962947Y-99956829D01*
X147962950Y-99956839D01*
X148038364Y-100138907D01*
X148038371Y-100138920D01*
X148147860Y-100302781D01*
X148147863Y-100302785D01*
X148287214Y-100442136D01*
X148287218Y-100442139D01*
X148451079Y-100551628D01*
X148451092Y-100551635D01*
X148633160Y-100627049D01*
X148633165Y-100627051D01*
X148633169Y-100627051D01*
X148633170Y-100627052D01*
X148826456Y-100665500D01*
X148826459Y-100665500D01*
X149023543Y-100665500D01*
X149176461Y-100635082D01*
X149216835Y-100627051D01*
X149398914Y-100551632D01*
X149562782Y-100442139D01*
X149702139Y-100302782D01*
X149811632Y-100138914D01*
X149811631Y-100138914D01*
X149815017Y-100133848D01*
X149816474Y-100134821D01*
X149859595Y-100090903D01*
X149927729Y-100075426D01*
X149993414Y-100099242D01*
X149995502Y-100100809D01*
X150001632Y-100105512D01*
X150001635Y-100105515D01*
X150132865Y-100181281D01*
X150279234Y-100220500D01*
X150279236Y-100220500D01*
X150430764Y-100220500D01*
X150430766Y-100220500D01*
X150577135Y-100181281D01*
X150708365Y-100105515D01*
X150794289Y-100019590D01*
X150855608Y-99986108D01*
X150925300Y-99991092D01*
X150969648Y-100019593D01*
X151305326Y-100355272D01*
X151305333Y-100355278D01*
X151378338Y-100404058D01*
X151378339Y-100404058D01*
X151411874Y-100426465D01*
X151530257Y-100475501D01*
X151530261Y-100475501D01*
X151530262Y-100475502D01*
X151655929Y-100500500D01*
X151655932Y-100500500D01*
X154834070Y-100500500D01*
X154918614Y-100483682D01*
X154959743Y-100475501D01*
X155078126Y-100426465D01*
X155111661Y-100404058D01*
X155111662Y-100404058D01*
X155166292Y-100367555D01*
X155184668Y-100355277D01*
X155520351Y-100019592D01*
X155581674Y-99986108D01*
X155651365Y-99991092D01*
X155695713Y-100019593D01*
X155781635Y-100105515D01*
X155912865Y-100181281D01*
X156059234Y-100220500D01*
X156059236Y-100220500D01*
X156210764Y-100220500D01*
X156210766Y-100220500D01*
X156357135Y-100181281D01*
X156488365Y-100105515D01*
X156488374Y-100105505D01*
X156494488Y-100100815D01*
X156559656Y-100075617D01*
X156628101Y-100089650D01*
X156674025Y-100134488D01*
X156674983Y-100133849D01*
X156678009Y-100138378D01*
X156678094Y-100138461D01*
X156678228Y-100138706D01*
X156787860Y-100302781D01*
X156787863Y-100302785D01*
X156927214Y-100442136D01*
X156927218Y-100442139D01*
X157091079Y-100551628D01*
X157091092Y-100551635D01*
X157273160Y-100627049D01*
X157273165Y-100627051D01*
X157273169Y-100627051D01*
X157273170Y-100627052D01*
X157466456Y-100665500D01*
X157466459Y-100665500D01*
X157663543Y-100665500D01*
X157816461Y-100635082D01*
X157856835Y-100627051D01*
X158038914Y-100551632D01*
X158202782Y-100442139D01*
X158342139Y-100302782D01*
X158451632Y-100138914D01*
X158527051Y-99956835D01*
X158539632Y-99893582D01*
X158565500Y-99763543D01*
X158565500Y-98466456D01*
X158527052Y-98273170D01*
X158527051Y-98273169D01*
X158527051Y-98273165D01*
X158527049Y-98273160D01*
X158451635Y-98091092D01*
X158451628Y-98091079D01*
X158342139Y-97927218D01*
X158342136Y-97927214D01*
X158202785Y-97787863D01*
X158202781Y-97787860D01*
X158038920Y-97678371D01*
X158038907Y-97678364D01*
X157856839Y-97602950D01*
X157856829Y-97602947D01*
X157663543Y-97564500D01*
X157663541Y-97564500D01*
X157466459Y-97564500D01*
X157424697Y-97572806D01*
X157355106Y-97566579D01*
X157299929Y-97523715D01*
X157281431Y-97485784D01*
X157246283Y-97364806D01*
X157246282Y-97364803D01*
X157162685Y-97223447D01*
X157162678Y-97223438D01*
X157046561Y-97107321D01*
X157046552Y-97107314D01*
X156905196Y-97023717D01*
X156905193Y-97023716D01*
X156747495Y-96977900D01*
X156747489Y-96977899D01*
X156710649Y-96975000D01*
X156619500Y-96975000D01*
X156552461Y-96955315D01*
X156506706Y-96902511D01*
X156495500Y-96851000D01*
X156495500Y-94651679D01*
X156513961Y-94586584D01*
X156562003Y-94508697D01*
X156615349Y-94347708D01*
X156625500Y-94248345D01*
X156625499Y-93651656D01*
X156622080Y-93618189D01*
X156615349Y-93552292D01*
X156615348Y-93552289D01*
X156605643Y-93523002D01*
X156562003Y-93391303D01*
X156513960Y-93313414D01*
X156509264Y-93296855D01*
X156500523Y-93283253D01*
X156495500Y-93248318D01*
X156495500Y-93111150D01*
X156513962Y-93046052D01*
X156537001Y-93008700D01*
X156537000Y-93008700D01*
X156537003Y-93008697D01*
X156590349Y-92847708D01*
X156600500Y-92748345D01*
X156600499Y-92151656D01*
X156600328Y-92149986D01*
X156590349Y-92052292D01*
X156590348Y-92052289D01*
X156537003Y-91891303D01*
X156533014Y-91884835D01*
X156513961Y-91853945D01*
X156495500Y-91788849D01*
X156495500Y-91398322D01*
X157175001Y-91398322D01*
X157185144Y-91497607D01*
X157238452Y-91658481D01*
X157238457Y-91658492D01*
X157327424Y-91802728D01*
X157327427Y-91802732D01*
X157447267Y-91922572D01*
X157447271Y-91922575D01*
X157591507Y-92011542D01*
X157591518Y-92011547D01*
X157752393Y-92064855D01*
X157851683Y-92074999D01*
X157875000Y-92074998D01*
X157875000Y-91350000D01*
X157175001Y-91350000D01*
X157175001Y-91398322D01*
X156495500Y-91398322D01*
X156495500Y-91303897D01*
X156495500Y-91293198D01*
X156495271Y-91292049D01*
X156464737Y-91138543D01*
X156464735Y-91138539D01*
X156464733Y-91138531D01*
X156453958Y-91112519D01*
X156453957Y-91112517D01*
X156404397Y-90992867D01*
X156404390Y-90992854D01*
X156326679Y-90876551D01*
X156326675Y-90876547D01*
X156316789Y-90861751D01*
X156256715Y-90801677D01*
X157175000Y-90801677D01*
X157175000Y-90850000D01*
X157875000Y-90850000D01*
X157875000Y-90124999D01*
X157851693Y-90125000D01*
X157851674Y-90125001D01*
X157752392Y-90135144D01*
X157591518Y-90188452D01*
X157591507Y-90188457D01*
X157447271Y-90277424D01*
X157447267Y-90277427D01*
X157327427Y-90397267D01*
X157327424Y-90397271D01*
X157238457Y-90541507D01*
X157238452Y-90541518D01*
X157185144Y-90702393D01*
X157175000Y-90801677D01*
X156256715Y-90801677D01*
X156205289Y-90750251D01*
X154386818Y-88931780D01*
X154353333Y-88870457D01*
X154350499Y-88844099D01*
X154350499Y-88548877D01*
X154350498Y-88548876D01*
X154347600Y-88506111D01*
X154301641Y-88321307D01*
X154220667Y-88158037D01*
X154217032Y-88150707D01*
X154217030Y-88150704D01*
X154097722Y-88002278D01*
X154097721Y-88002277D01*
X154028514Y-87946647D01*
X153988595Y-87889304D01*
X153986015Y-87819482D01*
X154021594Y-87759349D01*
X154028514Y-87753353D01*
X154037909Y-87745800D01*
X154097722Y-87697722D01*
X154217030Y-87549296D01*
X154301641Y-87378693D01*
X154347600Y-87193889D01*
X154350500Y-87151123D01*
X154350499Y-86248878D01*
X154347600Y-86206111D01*
X154301641Y-86021307D01*
X154255574Y-85928421D01*
X154217032Y-85850707D01*
X154217030Y-85850704D01*
X154097724Y-85702280D01*
X154097722Y-85702278D01*
X154028112Y-85646324D01*
X153988196Y-85588985D01*
X153985616Y-85519163D01*
X154021194Y-85459030D01*
X154028115Y-85453033D01*
X154097366Y-85397367D01*
X154097367Y-85397366D01*
X154216607Y-85249025D01*
X154216609Y-85249022D01*
X154301168Y-85078523D01*
X154347102Y-84893824D01*
X154350000Y-84851096D01*
X154350000Y-84650000D01*
X152974000Y-84650000D01*
X152906961Y-84630315D01*
X152861206Y-84577511D01*
X152850000Y-84526000D01*
X152850000Y-84274000D01*
X152869685Y-84206961D01*
X152922489Y-84161206D01*
X152974000Y-84150000D01*
X154350000Y-84150000D01*
X154350000Y-83948903D01*
X154347101Y-83906169D01*
X154315141Y-83777658D01*
X154318063Y-83707850D01*
X154358264Y-83650703D01*
X154411281Y-83626115D01*
X154462666Y-83615894D01*
X154626547Y-83548013D01*
X154774035Y-83449464D01*
X154899464Y-83324035D01*
X154978594Y-83205608D01*
X155032206Y-83160804D01*
X155081696Y-83150500D01*
X155748097Y-83150500D01*
X155748102Y-83150500D01*
X155836564Y-83139877D01*
X155977342Y-83084361D01*
X155988595Y-83075827D01*
X156053904Y-83051004D01*
X156122268Y-83065429D01*
X156132407Y-83071525D01*
X156139801Y-83076465D01*
X156258184Y-83125501D01*
X156258188Y-83125501D01*
X156258189Y-83125502D01*
X156383856Y-83150500D01*
X156383859Y-83150500D01*
X156511997Y-83150500D01*
X156571898Y-83150500D01*
X156835931Y-83150500D01*
X156929190Y-83150500D01*
X156996229Y-83170185D01*
X157016871Y-83186819D01*
X157069724Y-83239672D01*
X157444722Y-83614668D01*
X158106276Y-84276222D01*
X158139761Y-84337545D01*
X158134777Y-84407237D01*
X158096956Y-84460005D01*
X157938890Y-84588890D01*
X157858205Y-84687844D01*
X157810302Y-84746593D01*
X157763196Y-84836772D01*
X157716089Y-84926954D01*
X157660114Y-85122583D01*
X157660113Y-85122586D01*
X157649500Y-85241966D01*
X157649500Y-88158028D01*
X157649501Y-88158034D01*
X157660113Y-88277415D01*
X157716089Y-88473045D01*
X157716090Y-88473048D01*
X157716091Y-88473049D01*
X157810302Y-88653407D01*
X157844977Y-88695933D01*
X157938890Y-88811109D01*
X158032803Y-88887684D01*
X158096593Y-88939698D01*
X158276951Y-89033909D01*
X158472582Y-89089886D01*
X158591963Y-89100500D01*
X158600492Y-89100499D01*
X158667530Y-89120178D01*
X158713290Y-89172978D01*
X158724500Y-89224499D01*
X158724500Y-90038608D01*
X158704815Y-90105647D01*
X158652011Y-90151402D01*
X158582853Y-90161346D01*
X158561497Y-90156314D01*
X158497608Y-90135144D01*
X158398322Y-90125000D01*
X158375000Y-90125000D01*
X158375000Y-92074999D01*
X158398308Y-92074999D01*
X158398322Y-92074998D01*
X158497607Y-92064855D01*
X158658481Y-92011547D01*
X158658492Y-92011542D01*
X158802731Y-91922573D01*
X158811959Y-91913345D01*
X158873279Y-91879856D01*
X158942971Y-91884835D01*
X158987327Y-91913339D01*
X158996955Y-91922967D01*
X158996959Y-91922970D01*
X159141294Y-92011998D01*
X159141297Y-92011999D01*
X159141303Y-92012003D01*
X159302292Y-92065349D01*
X159401655Y-92075500D01*
X159948344Y-92075499D01*
X159948352Y-92075498D01*
X159948355Y-92075498D01*
X160002760Y-92069940D01*
X160047708Y-92065349D01*
X160208697Y-92012003D01*
X160353044Y-91922968D01*
X160472968Y-91803044D01*
X160562003Y-91658697D01*
X160615349Y-91497708D01*
X160625500Y-91398345D01*
X160625500Y-91107949D01*
X160625500Y-88345086D01*
X160630284Y-88310974D01*
X160639886Y-88277418D01*
X160650500Y-88158037D01*
X160650499Y-85241964D01*
X160639886Y-85122582D01*
X160583909Y-84926951D01*
X160489698Y-84746593D01*
X160410937Y-84650000D01*
X160361109Y-84588890D01*
X160274216Y-84518039D01*
X160203407Y-84460302D01*
X160203404Y-84460300D01*
X160067088Y-84389094D01*
X160016781Y-84340608D01*
X160000500Y-84279186D01*
X160000500Y-82816715D01*
X160020185Y-82749676D01*
X160060349Y-82710598D01*
X160110185Y-82680472D01*
X160230472Y-82560185D01*
X160318478Y-82414606D01*
X160369086Y-82252196D01*
X160375500Y-82181616D01*
X160375500Y-82114833D01*
X160395185Y-82047794D01*
X160447989Y-82002039D01*
X160475307Y-81993216D01*
X160536583Y-81981028D01*
X160612658Y-81965896D01*
X160612661Y-81965894D01*
X160612666Y-81965894D01*
X160776547Y-81898013D01*
X160806608Y-81877926D01*
X160873285Y-81857048D01*
X160940665Y-81875531D01*
G37*
%TD.AperFunction*%
%TA.AperFunction,Conductor*%
G36*
X149689792Y-93358963D02*
G01*
X149697956Y-93366430D01*
X150088181Y-93756655D01*
X150121666Y-93817978D01*
X150124500Y-93844336D01*
X150124500Y-94281613D01*
X150130913Y-94352192D01*
X150130913Y-94352194D01*
X150130914Y-94352196D01*
X150181522Y-94514606D01*
X150227903Y-94591330D01*
X150269530Y-94660188D01*
X150371661Y-94762319D01*
X150405146Y-94823642D01*
X150400162Y-94893334D01*
X150371661Y-94937681D01*
X150269531Y-95039810D01*
X150269530Y-95039811D01*
X150181522Y-95185393D01*
X150130913Y-95347807D01*
X150125782Y-95404275D01*
X150124500Y-95418384D01*
X150124500Y-95931616D01*
X150125515Y-95942788D01*
X150130913Y-96002192D01*
X150181522Y-96164606D01*
X150269530Y-96310188D01*
X150389811Y-96430469D01*
X150389813Y-96430470D01*
X150389815Y-96430472D01*
X150535394Y-96518478D01*
X150697804Y-96569086D01*
X150768384Y-96575500D01*
X151029192Y-96575500D01*
X151030246Y-96575809D01*
X151031306Y-96575518D01*
X151063690Y-96585630D01*
X151096231Y-96595185D01*
X151097294Y-96596122D01*
X151098000Y-96596343D01*
X151116873Y-96611819D01*
X151297358Y-96792304D01*
X151330843Y-96853627D01*
X151325859Y-96923319D01*
X151283987Y-96979252D01*
X151257130Y-96994546D01*
X151235296Y-97003590D01*
X151210130Y-97006295D01*
X151185729Y-97013011D01*
X151175981Y-97009967D01*
X151165827Y-97011059D01*
X151153253Y-97008106D01*
X151092218Y-96990374D01*
X151047570Y-96977402D01*
X151047567Y-96977401D01*
X151010701Y-96974500D01*
X151010694Y-96974500D01*
X150579306Y-96974500D01*
X150579298Y-96974500D01*
X150542432Y-96977401D01*
X150542426Y-96977402D01*
X150428699Y-97010444D01*
X150359509Y-97010444D01*
X150247494Y-96977900D01*
X150247497Y-96977900D01*
X150245000Y-96977703D01*
X150245000Y-97053691D01*
X150225315Y-97120730D01*
X150208681Y-97141372D01*
X150126923Y-97223129D01*
X150126917Y-97223137D01*
X150043255Y-97364603D01*
X150043254Y-97364606D01*
X149997402Y-97522426D01*
X149997401Y-97522432D01*
X149994500Y-97559298D01*
X149994500Y-97955994D01*
X149984957Y-97988492D01*
X149975994Y-98021163D01*
X149975138Y-98021931D01*
X149974815Y-98023033D01*
X149949234Y-98045198D01*
X149924014Y-98067852D01*
X149922878Y-98068035D01*
X149922011Y-98068788D01*
X149888488Y-98073608D01*
X149855044Y-98079027D01*
X149853990Y-98078568D01*
X149852853Y-98078732D01*
X149822038Y-98064659D01*
X149790981Y-98051140D01*
X149789969Y-98050014D01*
X149789297Y-98049707D01*
X149767398Y-98024885D01*
X149765895Y-98022636D01*
X149745020Y-97955960D01*
X149745000Y-97953749D01*
X149745000Y-96977703D01*
X149742503Y-96977900D01*
X149584806Y-97023716D01*
X149584803Y-97023717D01*
X149443447Y-97107314D01*
X149443438Y-97107321D01*
X149327321Y-97223438D01*
X149327314Y-97223447D01*
X149243717Y-97364803D01*
X149243716Y-97364804D01*
X149208568Y-97485785D01*
X149170961Y-97544670D01*
X149107489Y-97573876D01*
X149065301Y-97572806D01*
X149023545Y-97564500D01*
X149023541Y-97564500D01*
X148826459Y-97564500D01*
X148826454Y-97564500D01*
X148665264Y-97596563D01*
X148595673Y-97590336D01*
X148540495Y-97547473D01*
X148517251Y-97481583D01*
X148533319Y-97413586D01*
X148553392Y-97387265D01*
X149494112Y-96446545D01*
X149494114Y-96446543D01*
X149570775Y-96331811D01*
X149623580Y-96204328D01*
X149634385Y-96150008D01*
X149650500Y-96068996D01*
X149650500Y-93881004D01*
X149650499Y-93881002D01*
X149623583Y-93745682D01*
X149623581Y-93745677D01*
X149623580Y-93745672D01*
X149621214Y-93739961D01*
X149601707Y-93692866D01*
X149584640Y-93651662D01*
X149570778Y-93618194D01*
X149570771Y-93618183D01*
X149507173Y-93523002D01*
X149486295Y-93456325D01*
X149504779Y-93388945D01*
X149556758Y-93342254D01*
X149625728Y-93331078D01*
X149689792Y-93358963D01*
G37*
%TD.AperFunction*%
%TA.AperFunction,Conductor*%
G36*
X148187598Y-85006714D02*
G01*
X148252522Y-85011357D01*
X148283499Y-85028272D01*
X148357669Y-85083796D01*
X148357671Y-85083797D01*
X148492517Y-85134091D01*
X148492516Y-85134091D01*
X148499444Y-85134835D01*
X148552127Y-85140500D01*
X150447872Y-85140499D01*
X150507483Y-85134091D01*
X150532165Y-85124884D01*
X150601856Y-85119899D01*
X150663180Y-85153384D01*
X150696666Y-85214706D01*
X150698165Y-85222917D01*
X150699500Y-85231940D01*
X150699500Y-85264069D01*
X150717454Y-85354328D01*
X150718053Y-85357341D01*
X150718055Y-85357352D01*
X150724497Y-85389737D01*
X150724498Y-85389742D01*
X150733994Y-85412666D01*
X150773535Y-85508127D01*
X150827562Y-85588985D01*
X150844726Y-85614673D01*
X151030240Y-85800187D01*
X151063725Y-85861510D01*
X151058741Y-85931202D01*
X151030240Y-85975549D01*
X150401701Y-86604087D01*
X150353031Y-86634110D01*
X150341305Y-86637996D01*
X150341297Y-86637999D01*
X150196956Y-86727031D01*
X150196953Y-86727033D01*
X150187324Y-86736663D01*
X150126000Y-86770146D01*
X150056308Y-86765159D01*
X150011965Y-86736660D01*
X150002732Y-86727427D01*
X150002728Y-86727424D01*
X149858492Y-86638457D01*
X149858481Y-86638452D01*
X149697606Y-86585144D01*
X149598322Y-86575000D01*
X149575000Y-86575000D01*
X149575000Y-88524999D01*
X149598308Y-88524999D01*
X149598322Y-88524998D01*
X149697607Y-88514855D01*
X149858481Y-88461547D01*
X149858492Y-88461542D01*
X150002731Y-88372573D01*
X150011959Y-88363345D01*
X150073279Y-88329856D01*
X150142971Y-88334835D01*
X150187327Y-88363339D01*
X150196955Y-88372967D01*
X150196959Y-88372970D01*
X150341294Y-88461998D01*
X150341297Y-88461999D01*
X150341303Y-88462003D01*
X150502292Y-88515349D01*
X150601655Y-88525500D01*
X151148344Y-88525499D01*
X151212900Y-88518904D01*
X151281590Y-88531673D01*
X151332475Y-88579553D01*
X151349500Y-88642262D01*
X151349500Y-89451122D01*
X151349501Y-89451125D01*
X151352399Y-89493886D01*
X151352399Y-89493887D01*
X151398360Y-89678696D01*
X151482967Y-89849292D01*
X151482969Y-89849295D01*
X151602277Y-89997721D01*
X151602278Y-89997722D01*
X151750704Y-90117030D01*
X151750707Y-90117032D01*
X151921302Y-90201639D01*
X151921303Y-90201639D01*
X151921307Y-90201641D01*
X152106111Y-90247600D01*
X152148877Y-90250500D01*
X153390019Y-90250499D01*
X153457058Y-90270184D01*
X153477700Y-90286818D01*
X154454201Y-91263319D01*
X154487686Y-91324642D01*
X154482702Y-91394334D01*
X154440830Y-91450267D01*
X154375366Y-91474684D01*
X154366520Y-91475000D01*
X154350000Y-91475000D01*
X154350000Y-92854410D01*
X154372166Y-92895004D01*
X154375000Y-92921362D01*
X154375000Y-94924999D01*
X154398308Y-94924999D01*
X154398322Y-94924998D01*
X154497607Y-94914855D01*
X154658481Y-94861547D01*
X154658488Y-94861544D01*
X154705402Y-94832607D01*
X154772795Y-94814166D01*
X154839458Y-94835088D01*
X154884228Y-94888730D01*
X154894500Y-94938145D01*
X154894500Y-96864146D01*
X154894333Y-96864713D01*
X154894495Y-96865283D01*
X154884497Y-96898209D01*
X154874815Y-96931185D01*
X154874368Y-96931572D01*
X154874196Y-96932139D01*
X154847964Y-96954451D01*
X154822011Y-96976940D01*
X154821275Y-96977152D01*
X154820975Y-96977408D01*
X154794773Y-96984802D01*
X154787021Y-96987041D01*
X154786994Y-96987044D01*
X154769764Y-96989313D01*
X154769592Y-96989383D01*
X154761521Y-96990469D01*
X154741477Y-96987399D01*
X154728684Y-96987399D01*
X154728292Y-96990374D01*
X154720237Y-96989313D01*
X154720236Y-96989313D01*
X154685972Y-96984802D01*
X154607727Y-96974500D01*
X154607720Y-96974500D01*
X154427507Y-96974500D01*
X154398066Y-96965855D01*
X154368080Y-96959332D01*
X154363064Y-96955577D01*
X154360468Y-96954815D01*
X154339826Y-96938181D01*
X154215000Y-96813355D01*
X154214998Y-96813352D01*
X154096127Y-96694481D01*
X154096126Y-96694480D01*
X153979487Y-96627139D01*
X153959195Y-96615423D01*
X153806467Y-96574499D01*
X153769500Y-96574499D01*
X153702461Y-96554814D01*
X153656706Y-96502010D01*
X153645500Y-96450499D01*
X153645500Y-96005928D01*
X153620502Y-95880261D01*
X153620501Y-95880260D01*
X153620501Y-95880256D01*
X153612756Y-95861557D01*
X153584939Y-95794400D01*
X153575500Y-95746948D01*
X153575500Y-95418386D01*
X153569086Y-95347807D01*
X153569086Y-95347804D01*
X153518478Y-95185394D01*
X153430472Y-95039815D01*
X153430469Y-95039812D01*
X153428019Y-95035759D01*
X153410183Y-94968205D01*
X153431700Y-94901731D01*
X153485740Y-94857443D01*
X153555146Y-94849402D01*
X153586538Y-94859226D01*
X153591511Y-94861545D01*
X153752393Y-94914855D01*
X153851683Y-94924999D01*
X153875000Y-94924998D01*
X153875000Y-93545589D01*
X153852834Y-93504996D01*
X153850000Y-93478638D01*
X153850000Y-92700000D01*
X153150001Y-92700000D01*
X153150001Y-92748322D01*
X153160144Y-92847607D01*
X153207059Y-92989188D01*
X153209461Y-93059017D01*
X153173729Y-93119058D01*
X153111208Y-93150251D01*
X153052464Y-93146578D01*
X153002196Y-93130914D01*
X152931616Y-93124500D01*
X152931613Y-93124500D01*
X152812230Y-93124500D01*
X152745191Y-93104815D01*
X152724549Y-93088181D01*
X151872577Y-92236209D01*
X151788045Y-92151677D01*
X153150000Y-92151677D01*
X153150000Y-92200000D01*
X153850000Y-92200000D01*
X153850000Y-91474999D01*
X153826693Y-91475000D01*
X153826674Y-91475001D01*
X153727392Y-91485144D01*
X153566518Y-91538452D01*
X153566507Y-91538457D01*
X153422271Y-91627424D01*
X153422267Y-91627427D01*
X153302427Y-91747267D01*
X153302424Y-91747271D01*
X153213457Y-91891507D01*
X153213452Y-91891518D01*
X153160144Y-92052393D01*
X153150000Y-92151677D01*
X151788045Y-92151677D01*
X149328421Y-89692052D01*
X149328414Y-89692046D01*
X149238130Y-89631721D01*
X149238129Y-89631721D01*
X149205500Y-89609919D01*
X149205488Y-89609912D01*
X149068917Y-89553343D01*
X149068907Y-89553340D01*
X148923920Y-89524500D01*
X148923918Y-89524500D01*
X148699499Y-89524500D01*
X148632460Y-89504815D01*
X148586705Y-89452011D01*
X148575499Y-89400500D01*
X148575499Y-89286848D01*
X148575498Y-89286824D01*
X148575221Y-89283310D01*
X148572709Y-89251373D01*
X148528618Y-89099610D01*
X148448170Y-88963580D01*
X148448168Y-88963578D01*
X148448165Y-88963574D01*
X148336425Y-88851834D01*
X148336416Y-88851827D01*
X148200390Y-88771382D01*
X148200385Y-88771380D01*
X148048633Y-88727292D01*
X148048620Y-88727290D01*
X148013170Y-88724500D01*
X148013163Y-88724500D01*
X147398920Y-88724500D01*
X147398918Y-88724500D01*
X146824500Y-88724500D01*
X146757461Y-88704815D01*
X146711706Y-88652011D01*
X146700500Y-88600500D01*
X146700500Y-88016093D01*
X146700499Y-88016079D01*
X146700499Y-87848322D01*
X148375001Y-87848322D01*
X148385144Y-87947607D01*
X148438452Y-88108481D01*
X148438457Y-88108492D01*
X148527424Y-88252728D01*
X148527427Y-88252732D01*
X148647267Y-88372572D01*
X148647271Y-88372575D01*
X148791507Y-88461542D01*
X148791518Y-88461547D01*
X148952393Y-88514855D01*
X149051683Y-88524999D01*
X149075000Y-88524998D01*
X149075000Y-87800000D01*
X148375001Y-87800000D01*
X148375001Y-87848322D01*
X146700499Y-87848322D01*
X146700499Y-87411849D01*
X146700498Y-87411824D01*
X146697892Y-87378697D01*
X146697709Y-87376373D01*
X146670617Y-87283121D01*
X146670617Y-87283119D01*
X146661482Y-87251677D01*
X148375000Y-87251677D01*
X148375000Y-87300000D01*
X149075000Y-87300000D01*
X149075000Y-86574999D01*
X149051693Y-86575000D01*
X149051674Y-86575001D01*
X148952392Y-86585144D01*
X148791518Y-86638452D01*
X148791507Y-86638457D01*
X148647271Y-86727424D01*
X148647267Y-86727427D01*
X148527427Y-86847267D01*
X148527424Y-86847271D01*
X148438457Y-86991507D01*
X148438452Y-86991518D01*
X148385144Y-87152393D01*
X148375000Y-87251677D01*
X146661482Y-87251677D01*
X146653619Y-87224614D01*
X146653618Y-87224610D01*
X146573170Y-87088580D01*
X146573168Y-87088578D01*
X146573165Y-87088574D01*
X146461425Y-86976834D01*
X146461417Y-86976828D01*
X146425030Y-86955309D01*
X146377347Y-86904240D01*
X146364843Y-86835499D01*
X146391488Y-86770909D01*
X146400461Y-86760905D01*
X148121511Y-85039854D01*
X148161172Y-85018199D01*
X148182830Y-85006373D01*
X148182831Y-85006373D01*
X148187598Y-85006714D01*
G37*
%TD.AperFunction*%
%TA.AperFunction,Conductor*%
G36*
X144115882Y-89344661D02*
G01*
X144174765Y-89382265D01*
X144203972Y-89445738D01*
X144202903Y-89487926D01*
X144198459Y-89510268D01*
X144198459Y-89687654D01*
X144233062Y-89861617D01*
X144233065Y-89861626D01*
X144300942Y-90025499D01*
X144300949Y-90025512D01*
X144399494Y-90172993D01*
X144399497Y-90172997D01*
X144524920Y-90298420D01*
X144524924Y-90298423D01*
X144672405Y-90396968D01*
X144672418Y-90396975D01*
X144836291Y-90464852D01*
X144836293Y-90464853D01*
X144875145Y-90472581D01*
X144937054Y-90504965D01*
X144965513Y-90546746D01*
X145032159Y-90707647D01*
X145032166Y-90707660D01*
X145130711Y-90855141D01*
X145130714Y-90855145D01*
X145256137Y-90980568D01*
X145256141Y-90980571D01*
X145403622Y-91079116D01*
X145403635Y-91079123D01*
X145473229Y-91107949D01*
X145567510Y-91147001D01*
X145567512Y-91147001D01*
X145567517Y-91147003D01*
X145741480Y-91181606D01*
X145741483Y-91181607D01*
X145741485Y-91181607D01*
X145918868Y-91181607D01*
X145922996Y-91180785D01*
X145928915Y-91179608D01*
X145998507Y-91185832D01*
X146053686Y-91228692D01*
X146072933Y-91269305D01*
X146075843Y-91280232D01*
X146077291Y-91298627D01*
X146118854Y-91441690D01*
X146119225Y-91443081D01*
X146118481Y-91472540D01*
X146118481Y-91509594D01*
X146077291Y-91651373D01*
X146077290Y-91651379D01*
X146074500Y-91686829D01*
X146074500Y-92063150D01*
X146074501Y-92063175D01*
X146077290Y-92098624D01*
X146118481Y-92240406D01*
X146118481Y-92309594D01*
X146077291Y-92451373D01*
X146077290Y-92451379D01*
X146074500Y-92486829D01*
X146074500Y-92863150D01*
X146074501Y-92863175D01*
X146077290Y-92898624D01*
X146118481Y-93040406D01*
X146118481Y-93109594D01*
X146077291Y-93251373D01*
X146077290Y-93251379D01*
X146074500Y-93286829D01*
X146074500Y-93663150D01*
X146074501Y-93663175D01*
X146077290Y-93698624D01*
X146118481Y-93840406D01*
X146118481Y-93909594D01*
X146077291Y-94051373D01*
X146077290Y-94051379D01*
X146074500Y-94086829D01*
X146074500Y-94463150D01*
X146074501Y-94463175D01*
X146077290Y-94498624D01*
X146118481Y-94640406D01*
X146118481Y-94709594D01*
X146077291Y-94851373D01*
X146077290Y-94851379D01*
X146074500Y-94886829D01*
X146074500Y-95075500D01*
X146054815Y-95142539D01*
X146002011Y-95188294D01*
X145950501Y-95199500D01*
X145761850Y-95199500D01*
X145761824Y-95199501D01*
X145726375Y-95202290D01*
X145584594Y-95243481D01*
X145515406Y-95243481D01*
X145433728Y-95219751D01*
X145373627Y-95202291D01*
X145373625Y-95202290D01*
X145373620Y-95202290D01*
X145338163Y-95199500D01*
X144961849Y-95199500D01*
X144961824Y-95199501D01*
X144926375Y-95202290D01*
X144784594Y-95243481D01*
X144715406Y-95243481D01*
X144633728Y-95219751D01*
X144573627Y-95202291D01*
X144573625Y-95202290D01*
X144573620Y-95202290D01*
X144538163Y-95199500D01*
X144161849Y-95199500D01*
X144161824Y-95199501D01*
X144126375Y-95202290D01*
X143984594Y-95243481D01*
X143915406Y-95243481D01*
X143833728Y-95219751D01*
X143773627Y-95202291D01*
X143773625Y-95202290D01*
X143773620Y-95202290D01*
X143738163Y-95199500D01*
X143361849Y-95199500D01*
X143361824Y-95199501D01*
X143326375Y-95202290D01*
X143184594Y-95243481D01*
X143115406Y-95243481D01*
X143033728Y-95219751D01*
X142973627Y-95202291D01*
X142973625Y-95202290D01*
X142973620Y-95202290D01*
X142938163Y-95199500D01*
X142561849Y-95199500D01*
X142561824Y-95199501D01*
X142526375Y-95202290D01*
X142384594Y-95243481D01*
X142315406Y-95243481D01*
X142233728Y-95219751D01*
X142173627Y-95202291D01*
X142173625Y-95202290D01*
X142173620Y-95202290D01*
X142138163Y-95199500D01*
X141761849Y-95199500D01*
X141761824Y-95199501D01*
X141726375Y-95202290D01*
X141584594Y-95243481D01*
X141515406Y-95243481D01*
X141433728Y-95219751D01*
X141373627Y-95202291D01*
X141373625Y-95202290D01*
X141373620Y-95202290D01*
X141338163Y-95199500D01*
X140961849Y-95199500D01*
X140961824Y-95199501D01*
X140926375Y-95202290D01*
X140784594Y-95243481D01*
X140715406Y-95243481D01*
X140633728Y-95219751D01*
X140573627Y-95202291D01*
X140573625Y-95202290D01*
X140573620Y-95202290D01*
X140538170Y-95199500D01*
X140538163Y-95199500D01*
X140349499Y-95199500D01*
X140282460Y-95179815D01*
X140236705Y-95127011D01*
X140225499Y-95075500D01*
X140225499Y-94886849D01*
X140225498Y-94886824D01*
X140223509Y-94861544D01*
X140222709Y-94851373D01*
X140183463Y-94716286D01*
X140181519Y-94709595D01*
X140181519Y-94691944D01*
X140176596Y-94675354D01*
X140181519Y-94640405D01*
X140219128Y-94510953D01*
X140256734Y-94452068D01*
X140320206Y-94422861D01*
X140338204Y-94421548D01*
X140495569Y-94421548D01*
X140495570Y-94421547D01*
X140553558Y-94410012D01*
X140669534Y-94386944D01*
X140669537Y-94386942D01*
X140669542Y-94386942D01*
X140833423Y-94319061D01*
X140980911Y-94220512D01*
X141106340Y-94095083D01*
X141204889Y-93947595D01*
X141272770Y-93783714D01*
X141275820Y-93768384D01*
X141299038Y-93651655D01*
X141307376Y-93609739D01*
X141307376Y-93432357D01*
X141307376Y-93432354D01*
X141307375Y-93432352D01*
X141272772Y-93258389D01*
X141272769Y-93258380D01*
X141204892Y-93094507D01*
X141204885Y-93094494D01*
X141106340Y-92947013D01*
X141106337Y-92947009D01*
X140980914Y-92821586D01*
X140980910Y-92821583D01*
X140833429Y-92723038D01*
X140833416Y-92723031D01*
X140669543Y-92655154D01*
X140669534Y-92655151D01*
X140495570Y-92620548D01*
X140495567Y-92620548D01*
X140349000Y-92620548D01*
X140281961Y-92600863D01*
X140236206Y-92548059D01*
X140227910Y-92523255D01*
X140179244Y-92302604D01*
X140181258Y-92273258D01*
X140181258Y-92241302D01*
X140222709Y-92098627D01*
X140225500Y-92063163D01*
X140225499Y-91686838D01*
X140222709Y-91651373D01*
X140181519Y-91509594D01*
X140181519Y-91440405D01*
X140222707Y-91298633D01*
X140222709Y-91298627D01*
X140225500Y-91263163D01*
X140225499Y-90886838D01*
X140222709Y-90851373D01*
X140181519Y-90709595D01*
X140181519Y-90640405D01*
X140210251Y-90541507D01*
X140222709Y-90498627D01*
X140225500Y-90463163D01*
X140225499Y-90086838D01*
X140222709Y-90051373D01*
X140181519Y-89909595D01*
X140181519Y-89840405D01*
X140211367Y-89737666D01*
X140222709Y-89698627D01*
X140225500Y-89663163D01*
X140225499Y-89474498D01*
X140245183Y-89407460D01*
X140297987Y-89361705D01*
X140349499Y-89350499D01*
X140538150Y-89350499D01*
X140538162Y-89350499D01*
X140573627Y-89347709D01*
X140715405Y-89306519D01*
X140784595Y-89306519D01*
X140926373Y-89347709D01*
X140961837Y-89350500D01*
X141338162Y-89350499D01*
X141373627Y-89347709D01*
X141515405Y-89306519D01*
X141584595Y-89306519D01*
X141726373Y-89347709D01*
X141761837Y-89350500D01*
X142138162Y-89350499D01*
X142173627Y-89347709D01*
X142315405Y-89306519D01*
X142384595Y-89306519D01*
X142526373Y-89347709D01*
X142561837Y-89350500D01*
X142938162Y-89350499D01*
X142973627Y-89347709D01*
X143115405Y-89306519D01*
X143184595Y-89306519D01*
X143326373Y-89347709D01*
X143361837Y-89350500D01*
X143738162Y-89350499D01*
X143773627Y-89347709D01*
X143915405Y-89306519D01*
X143984591Y-89306518D01*
X144115882Y-89344661D01*
G37*
%TD.AperFunction*%
%TA.AperFunction,Conductor*%
G36*
X133443039Y-83959685D02*
G01*
X133488794Y-84012489D01*
X133500000Y-84064000D01*
X133500000Y-84190000D01*
X133626000Y-84190000D01*
X133693039Y-84209685D01*
X133738794Y-84262489D01*
X133750000Y-84314000D01*
X133750000Y-85140000D01*
X134447828Y-85140000D01*
X134447844Y-85139999D01*
X134507372Y-85133598D01*
X134507379Y-85133596D01*
X134642086Y-85083354D01*
X134642093Y-85083350D01*
X134757187Y-84997190D01*
X134757190Y-84997187D01*
X134843350Y-84882093D01*
X134843354Y-84882086D01*
X134893596Y-84747379D01*
X134893598Y-84747372D01*
X134899999Y-84687844D01*
X134900000Y-84687827D01*
X134900000Y-84652150D01*
X134919685Y-84585111D01*
X134972489Y-84539356D01*
X135041647Y-84529412D01*
X135105203Y-84558437D01*
X135111681Y-84564469D01*
X135663181Y-85115969D01*
X135696666Y-85177292D01*
X135699500Y-85203650D01*
X135699500Y-85238695D01*
X135734103Y-85412658D01*
X135734106Y-85412667D01*
X135801983Y-85576540D01*
X135801990Y-85576553D01*
X135900535Y-85724034D01*
X135900538Y-85724038D01*
X136025961Y-85849461D01*
X136025965Y-85849464D01*
X136173446Y-85948009D01*
X136173459Y-85948016D01*
X136296363Y-85998923D01*
X136337334Y-86015894D01*
X136337336Y-86015894D01*
X136337341Y-86015896D01*
X136511304Y-86050499D01*
X136511307Y-86050500D01*
X136511309Y-86050500D01*
X136688693Y-86050500D01*
X136688694Y-86050499D01*
X136746682Y-86038964D01*
X136862658Y-86015896D01*
X136862661Y-86015894D01*
X136862666Y-86015894D01*
X137026547Y-85948013D01*
X137174035Y-85849464D01*
X137299464Y-85724035D01*
X137361000Y-85631940D01*
X137414611Y-85587136D01*
X137483935Y-85578429D01*
X137546963Y-85608583D01*
X137551782Y-85613151D01*
X139563181Y-87624550D01*
X139596666Y-87685873D01*
X139599500Y-87712231D01*
X139599500Y-88600500D01*
X139579815Y-88667539D01*
X139527011Y-88713294D01*
X139475500Y-88724500D01*
X137510270Y-88724500D01*
X137443231Y-88704815D01*
X137441378Y-88703601D01*
X137401552Y-88676989D01*
X137401547Y-88676987D01*
X137237667Y-88609106D01*
X137237658Y-88609103D01*
X137063694Y-88574500D01*
X137063691Y-88574500D01*
X136886309Y-88574500D01*
X136886306Y-88574500D01*
X136712341Y-88609103D01*
X136712332Y-88609106D01*
X136548459Y-88676983D01*
X136548446Y-88676990D01*
X136400965Y-88775535D01*
X136400961Y-88775538D01*
X136275538Y-88900961D01*
X136275535Y-88900965D01*
X136176990Y-89048446D01*
X136176983Y-89048459D01*
X136109106Y-89212332D01*
X136109103Y-89212341D01*
X136074500Y-89386304D01*
X136074500Y-89563695D01*
X136109103Y-89737658D01*
X136109106Y-89737667D01*
X136176983Y-89901540D01*
X136176990Y-89901553D01*
X136275535Y-90049034D01*
X136275538Y-90049038D01*
X136339319Y-90112819D01*
X136372804Y-90174142D01*
X136367820Y-90243834D01*
X136325948Y-90299767D01*
X136260484Y-90324184D01*
X136251638Y-90324500D01*
X135787229Y-90324500D01*
X135720190Y-90304815D01*
X135699548Y-90288181D01*
X130896952Y-85485584D01*
X130863467Y-85424261D01*
X130868451Y-85354569D01*
X130910323Y-85298636D01*
X130975787Y-85274219D01*
X130997245Y-85274546D01*
X131001684Y-85274999D01*
X131049999Y-85274998D01*
X131050000Y-85274998D01*
X131050000Y-84575000D01*
X131550000Y-84575000D01*
X131550000Y-85274999D01*
X131598308Y-85274999D01*
X131598322Y-85274998D01*
X131697607Y-85264855D01*
X131858481Y-85211547D01*
X131858492Y-85211542D01*
X132002727Y-85122576D01*
X132101240Y-85024063D01*
X132162563Y-84990578D01*
X132232255Y-84995562D01*
X132263233Y-85012477D01*
X132357911Y-85083352D01*
X132357913Y-85083354D01*
X132492620Y-85133596D01*
X132492627Y-85133598D01*
X132552155Y-85139999D01*
X132552172Y-85140000D01*
X133250000Y-85140000D01*
X133250000Y-84440000D01*
X132405000Y-84440000D01*
X132405000Y-84451000D01*
X132385315Y-84518039D01*
X132332511Y-84563794D01*
X132281000Y-84575000D01*
X131550000Y-84575000D01*
X131050000Y-84575000D01*
X131050000Y-84449000D01*
X131069685Y-84381961D01*
X131122489Y-84336206D01*
X131174000Y-84325000D01*
X131300000Y-84325000D01*
X131300000Y-84199000D01*
X131319685Y-84131961D01*
X131372489Y-84086206D01*
X131424000Y-84075000D01*
X131970000Y-84075000D01*
X131970000Y-84064000D01*
X131989685Y-83996961D01*
X132042489Y-83951206D01*
X132094000Y-83940000D01*
X133376000Y-83940000D01*
X133443039Y-83959685D01*
G37*
%TD.AperFunction*%
%TA.AperFunction,Conductor*%
G36*
X156541596Y-58870185D02*
G01*
X156587351Y-58922989D01*
X156597295Y-58992147D01*
X156568270Y-59055703D01*
X156562238Y-59062181D01*
X156471081Y-59153338D01*
X156331392Y-59335382D01*
X156216657Y-59534109D01*
X156216650Y-59534123D01*
X156128842Y-59746112D01*
X156069453Y-59967759D01*
X156069451Y-59967770D01*
X156039500Y-60195258D01*
X156039500Y-60424741D01*
X156063891Y-60610000D01*
X156069452Y-60652238D01*
X156102441Y-60775357D01*
X156128842Y-60873887D01*
X156128842Y-60873888D01*
X156192697Y-61028048D01*
X156200166Y-61097517D01*
X156168891Y-61159996D01*
X156108801Y-61195648D01*
X156078136Y-61199500D01*
X154421864Y-61199500D01*
X154354825Y-61179815D01*
X154309070Y-61127011D01*
X154299126Y-61057853D01*
X154307303Y-61028048D01*
X154344220Y-60938920D01*
X154371158Y-60873887D01*
X154430548Y-60652238D01*
X154460500Y-60424734D01*
X154460500Y-60195266D01*
X154430548Y-59967762D01*
X154371158Y-59746113D01*
X154283344Y-59534112D01*
X154168611Y-59335388D01*
X154168608Y-59335385D01*
X154168607Y-59335382D01*
X154028918Y-59153338D01*
X154028911Y-59153330D01*
X153937762Y-59062181D01*
X153904277Y-59000858D01*
X153909261Y-58931166D01*
X153951133Y-58875233D01*
X154016597Y-58850816D01*
X154025443Y-58850500D01*
X156474557Y-58850500D01*
X156541596Y-58870185D01*
G37*
%TD.AperFunction*%
%TD*%
M02*
