%TF.GenerationSoftware,KiCad,Pcbnew,10.0.1*%
%TF.CreationDate,2026-04-30T19:11:56-05:00*%
%TF.ProjectId,KC_proj,4b435f70-726f-46a2-9e6b-696361645f70,rev?*%
%TF.SameCoordinates,Original*%
%TF.FileFunction,Soldermask,Top*%
%TF.FilePolarity,Negative*%
%FSLAX46Y46*%
G04 Gerber Fmt 4.6, Leading zero omitted, Abs format (unit mm)*
G04 Created by KiCad (PCBNEW 10.0.1) date 2026-04-30 19:11:56*
%MOMM*%
%LPD*%
G01*
G04 APERTURE LIST*
G04 Aperture macros list*
%AMRoundRect*
0 Rectangle with rounded corners*
0 $1 Rounding radius*
0 $2 $3 $4 $5 $6 $7 $8 $9 X,Y pos of 4 corners*
0 Add a 4 corners polygon primitive as box body*
4,1,4,$2,$3,$4,$5,$6,$7,$8,$9,$2,$3,0*
0 Add four circle primitives for the rounded corners*
1,1,$1+$1,$2,$3*
1,1,$1+$1,$4,$5*
1,1,$1+$1,$6,$7*
1,1,$1+$1,$8,$9*
0 Add four rect primitives between the rounded corners*
20,1,$1+$1,$2,$3,$4,$5,0*
20,1,$1+$1,$4,$5,$6,$7,0*
20,1,$1+$1,$6,$7,$8,$9,0*
20,1,$1+$1,$8,$9,$2,$3,0*%
G04 Aperture macros list end*
%ADD10R,1.800000X0.900000*%
%ADD11RoundRect,0.200000X0.275000X-0.200000X0.275000X0.200000X-0.275000X0.200000X-0.275000X-0.200000X0*%
%ADD12RoundRect,0.375000X-0.625000X-0.375000X0.625000X-0.375000X0.625000X0.375000X-0.625000X0.375000X0*%
%ADD13RoundRect,0.500000X-0.500000X-1.400000X0.500000X-1.400000X0.500000X1.400000X-0.500000X1.400000X0*%
%ADD14R,2.000000X2.000000*%
%ADD15C,2.000000*%
%ADD16RoundRect,0.250000X-1.150000X-0.250000X1.150000X-0.250000X1.150000X0.250000X-1.150000X0.250000X0*%
%ADD17RoundRect,0.150000X-0.150000X-0.575000X0.150000X-0.575000X0.150000X0.575000X-0.150000X0.575000X0*%
%ADD18RoundRect,0.075000X-0.075000X-0.650000X0.075000X-0.650000X0.075000X0.650000X-0.075000X0.650000X0*%
%ADD19O,1.000000X2.100000*%
%ADD20O,1.000000X1.600000*%
%ADD21RoundRect,0.050000X-0.285000X-0.100000X0.285000X-0.100000X0.285000X0.100000X-0.285000X0.100000X0*%
%ADD22RoundRect,0.200000X-0.200000X-0.275000X0.200000X-0.275000X0.200000X0.275000X-0.200000X0.275000X0*%
%ADD23RoundRect,0.225000X0.225000X0.250000X-0.225000X0.250000X-0.225000X-0.250000X0.225000X-0.250000X0*%
%ADD24RoundRect,0.200100X-0.949900X-0.949900X0.949900X-0.949900X0.949900X0.949900X-0.949900X0.949900X0*%
%ADD25C,2.500000*%
%ADD26RoundRect,0.200000X-0.275000X0.200000X-0.275000X-0.200000X0.275000X-0.200000X0.275000X0.200000X0*%
%ADD27RoundRect,0.250000X-0.375000X-0.625000X0.375000X-0.625000X0.375000X0.625000X-0.375000X0.625000X0*%
%ADD28R,1.700000X1.700000*%
%ADD29C,1.700000*%
%ADD30RoundRect,0.225000X-0.225000X-0.250000X0.225000X-0.250000X0.225000X0.250000X-0.225000X0.250000X0*%
%ADD31RoundRect,0.125000X-0.625000X-0.125000X0.625000X-0.125000X0.625000X0.125000X-0.625000X0.125000X0*%
%ADD32RoundRect,0.125000X-0.125000X-0.625000X0.125000X-0.625000X0.125000X0.625000X-0.125000X0.625000X0*%
%ADD33RoundRect,0.225000X-0.250000X0.225000X-0.250000X-0.225000X0.250000X-0.225000X0.250000X0.225000X0*%
G04 APERTURE END LIST*
D10*
%TO.C,U3*%
X149500000Y-84190000D03*
X149500000Y-82920000D03*
X149500000Y-81650000D03*
X149500000Y-80380000D03*
X149500000Y-79110000D03*
X149500000Y-77840000D03*
X149500000Y-76570000D03*
X149500000Y-75300000D03*
X149450000Y-64100000D03*
X149450000Y-62830000D03*
X149450000Y-61560000D03*
X133450000Y-61560000D03*
X133450000Y-62830000D03*
X133450000Y-64100000D03*
X133500000Y-75300000D03*
X133500000Y-76570000D03*
X133500000Y-77840000D03*
X133500000Y-79110000D03*
X133500000Y-80380000D03*
X133500000Y-81650000D03*
X133500000Y-82920000D03*
X133500000Y-84190000D03*
%TD*%
D11*
%TO.C,R5*%
X134950000Y-100325000D03*
X134950000Y-98675000D03*
%TD*%
D12*
%TO.C,U2*%
X152850000Y-84400000D03*
X152850000Y-86700000D03*
D13*
X159150000Y-86700000D03*
D12*
X152850000Y-89000000D03*
%TD*%
D14*
%TO.C,BZ1*%
X129600000Y-76350000D03*
D15*
X122000000Y-76350000D03*
%TD*%
D16*
%TO.C,SW1*%
X127500000Y-91850000D03*
X133300000Y-91850000D03*
X127500000Y-95850000D03*
X133300000Y-95850000D03*
%TD*%
D17*
%TO.C,J3*%
X149995000Y-98200000D03*
X150795000Y-98200000D03*
D18*
X151995000Y-98200000D03*
X152995000Y-98200000D03*
X153495000Y-98200000D03*
X154495000Y-98200000D03*
D17*
X155695000Y-98200000D03*
X156495000Y-98200000D03*
X156495000Y-98200000D03*
X155695000Y-98200000D03*
D18*
X154995000Y-98200000D03*
X153995000Y-98200000D03*
X152495000Y-98200000D03*
X151495000Y-98200000D03*
D17*
X150795000Y-98200000D03*
X149995000Y-98200000D03*
D19*
X148925000Y-99115000D03*
D20*
X148925000Y-103295000D03*
D19*
X157565000Y-99115000D03*
D20*
X157565000Y-103295000D03*
%TD*%
D21*
%TO.C,U4*%
X155420000Y-81000000D03*
X155420000Y-81500000D03*
X155420000Y-82000000D03*
X155420000Y-82500000D03*
X156900000Y-82500000D03*
X156900000Y-82000000D03*
X156900000Y-81500000D03*
X156900000Y-81000000D03*
%TD*%
D22*
%TO.C,R1*%
X130875000Y-98190000D03*
X132525000Y-98190000D03*
%TD*%
D11*
%TO.C,R6*%
X121300000Y-70162500D03*
X121300000Y-68512500D03*
%TD*%
%TO.C,R4*%
X145650000Y-99775000D03*
X145650000Y-98125000D03*
%TD*%
D23*
%TO.C,C3*%
X155675000Y-93950000D03*
X154125000Y-93950000D03*
%TD*%
D24*
%TO.C,AE1*%
X155250000Y-62850000D03*
D25*
X152710000Y-60310000D03*
X152710000Y-65390000D03*
X157790000Y-60310000D03*
X157790000Y-65390000D03*
%TD*%
D23*
%TO.C,C2*%
X155650000Y-92450000D03*
X154100000Y-92450000D03*
%TD*%
D26*
%TO.C,R9*%
X159400000Y-80275000D03*
X159400000Y-81925000D03*
%TD*%
D27*
%TO.C,D1*%
X130200000Y-100150000D03*
X133000000Y-100150000D03*
%TD*%
D23*
%TO.C,C6*%
X159675000Y-91100000D03*
X158125000Y-91100000D03*
%TD*%
D11*
%TO.C,R7*%
X154000000Y-81050000D03*
X154000000Y-79400000D03*
%TD*%
%TO.C,R8*%
X154000000Y-78025000D03*
X154000000Y-76375000D03*
%TD*%
D28*
%TO.C,J1*%
X122150000Y-92070000D03*
D29*
X122150000Y-94610000D03*
X122150000Y-97150000D03*
X122150000Y-99690000D03*
X122150000Y-102230000D03*
%TD*%
D30*
%TO.C,C4*%
X135675000Y-92100000D03*
X137225000Y-92100000D03*
%TD*%
D16*
%TO.C,SW2*%
X137400000Y-99400000D03*
X143200000Y-99400000D03*
X137400000Y-103400000D03*
X143200000Y-103400000D03*
%TD*%
D11*
%TO.C,R3*%
X145650000Y-102775000D03*
X145650000Y-101125000D03*
%TD*%
D31*
%TO.C,U1*%
X138975000Y-89475000D03*
X138975000Y-90275000D03*
X138975000Y-91075000D03*
X138975000Y-91875000D03*
X138975000Y-92675000D03*
X138975000Y-93475000D03*
X138975000Y-94275000D03*
X138975000Y-95075000D03*
D32*
X140350000Y-96450000D03*
X141150000Y-96450000D03*
X141950000Y-96450000D03*
X142750000Y-96450000D03*
X143550000Y-96450000D03*
X144350000Y-96450000D03*
X145150000Y-96450000D03*
X145950000Y-96450000D03*
D31*
X147325000Y-95075000D03*
X147325000Y-94275000D03*
X147325000Y-93475000D03*
X147325000Y-92675000D03*
X147325000Y-91875000D03*
X147325000Y-91075000D03*
X147325000Y-90275000D03*
X147325000Y-89475000D03*
D32*
X145950000Y-88100000D03*
X145150000Y-88100000D03*
X144350000Y-88100000D03*
X143550000Y-88100000D03*
X142750000Y-88100000D03*
X141950000Y-88100000D03*
X141150000Y-88100000D03*
X140350000Y-88100000D03*
%TD*%
D30*
%TO.C,C5*%
X135675000Y-93600000D03*
X137225000Y-93600000D03*
%TD*%
D33*
%TO.C,C1*%
X131300000Y-82775000D03*
X131300000Y-84325000D03*
%TD*%
D22*
%TO.C,R2*%
X127875000Y-98200000D03*
X129525000Y-98200000D03*
%TD*%
D23*
%TO.C,C7*%
X150875000Y-87550000D03*
X149325000Y-87550000D03*
%TD*%
M02*
