%TF.GenerationSoftware,KiCad,Pcbnew,10.0.1*%
%TF.CreationDate,2026-04-30T19:03:56-05:00*%
%TF.ProjectId,KC_proj,4b435f70-726f-46a2-9e6b-696361645f70,rev?*%
%TF.SameCoordinates,Original*%
%TF.FileFunction,Copper,L2,Inr*%
%TF.FilePolarity,Positive*%
%FSLAX46Y46*%
G04 Gerber Fmt 4.6, Leading zero omitted, Abs format (unit mm)*
G04 Created by KiCad (PCBNEW 10.0.1) date 2026-04-30 19:03:56*
%MOMM*%
%LPD*%
G01*
G04 APERTURE LIST*
%TA.AperFunction,ComponentPad*%
%ADD10O,1.000000X2.100000*%
%TD*%
%TA.AperFunction,ComponentPad*%
%ADD11O,1.000000X1.600000*%
%TD*%
%TA.AperFunction,ComponentPad*%
%ADD12R,2.000000X2.000000*%
%TD*%
%TA.AperFunction,ComponentPad*%
%ADD13C,2.000000*%
%TD*%
%TA.AperFunction,ComponentPad*%
%ADD14R,1.700000X1.700000*%
%TD*%
%TA.AperFunction,ComponentPad*%
%ADD15C,1.700000*%
%TD*%
%TA.AperFunction,ViaPad*%
%ADD16C,0.800000*%
%TD*%
%TA.AperFunction,ViaPad*%
%ADD17C,1.000000*%
%TD*%
G04 APERTURE END LIST*
D10*
%TO.N,unconnected-(J3-SHIELD-PadSH)*%
%TO.C,J3*%
X148925000Y-99115000D03*
D11*
X148925000Y-103295000D03*
D10*
X157565000Y-99115000D03*
D11*
X157565000Y-103295000D03*
%TD*%
D12*
%TO.N,/BZR*%
%TO.C,BZ1*%
X129600000Y-76350000D03*
D13*
%TO.N,Net-(BZ1--)*%
X122000000Y-76350000D03*
%TD*%
D14*
%TO.N,/STLink_3v3*%
%TO.C,J1*%
X122150000Y-92070000D03*
D15*
%TO.N,/SWCLK*%
X122150000Y-94610000D03*
%TO.N,GND*%
X122150000Y-97150000D03*
%TO.N,/SWDIO*%
X122150000Y-99690000D03*
%TO.N,/MCU_NRST*%
X122150000Y-102230000D03*
%TD*%
D16*
%TO.N,/STLink_3v3*%
X158060659Y-82250000D03*
%TO.N,GND*%
X156500000Y-79800000D03*
%TO.N,+3V3*%
X160350000Y-81100000D03*
%TO.N,Net-(U4-PR1)*%
X155350000Y-78750000D03*
X154200000Y-82750000D03*
%TO.N,/SWDIO*%
X145830176Y-90281107D03*
%TO.N,/SWCLK*%
X145098959Y-89598959D03*
%TO.N,/MCU_NRST*%
X133800000Y-97900000D03*
D17*
%TO.N,GND*%
X155250000Y-60300000D03*
X147350000Y-100750000D03*
X150600000Y-95650000D03*
X155200000Y-88500000D03*
X155300000Y-84000000D03*
X137100000Y-86700000D03*
X134050000Y-93750000D03*
D16*
%TO.N,+3V3*%
X136850000Y-95200000D03*
D17*
%TO.N,GND*%
X140850000Y-92150000D03*
D16*
%TO.N,/MCU_NRST*%
X136650000Y-96600000D03*
X140406876Y-93521048D03*
%TO.N,/USR_LED*%
X135650000Y-97550000D03*
X136975000Y-89475000D03*
D17*
%TO.N,GND*%
X122350000Y-82650000D03*
X123900000Y-87300000D03*
D16*
%TO.N,+3V3*%
X131350000Y-81500000D03*
D17*
%TO.N,GND*%
X128500000Y-81700000D03*
X128500000Y-99650000D03*
X129550000Y-87300000D03*
X127000000Y-66300000D03*
X121300000Y-66837500D03*
X129400000Y-61800000D03*
X131450000Y-75400000D03*
X130900000Y-69350000D03*
X141350000Y-67400000D03*
X137200000Y-72450000D03*
X145750000Y-72450000D03*
X141400000Y-77550000D03*
X145550000Y-82300000D03*
D16*
%TO.N,+3V3*%
X126650000Y-98100000D03*
X145650000Y-103800000D03*
D17*
%TO.N,GND*%
X151900000Y-79750000D03*
X158300000Y-76900000D03*
X152650000Y-74850000D03*
X157850000Y-69650000D03*
X152900000Y-69700000D03*
X134450000Y-101550000D03*
X157050000Y-96450000D03*
X159550000Y-93600000D03*
X150750000Y-90350000D03*
%TD*%
%TA.AperFunction,Conductor*%
%TO.N,GND*%
G36*
X160942539Y-58870185D02*
G01*
X160988294Y-58922989D01*
X160999500Y-58974500D01*
X160999500Y-80600902D01*
X160979815Y-80667941D01*
X160927011Y-80713696D01*
X160857853Y-80723640D01*
X160794297Y-80694615D01*
X160787819Y-80688583D01*
X160718717Y-80619481D01*
X160718709Y-80619475D01*
X160581790Y-80540426D01*
X160581786Y-80540424D01*
X160581784Y-80540423D01*
X160429057Y-80499500D01*
X160270943Y-80499500D01*
X160118216Y-80540423D01*
X160118209Y-80540426D01*
X159981290Y-80619475D01*
X159981282Y-80619481D01*
X159869481Y-80731282D01*
X159869475Y-80731290D01*
X159790426Y-80868209D01*
X159790423Y-80868216D01*
X159749500Y-81020943D01*
X159749500Y-81179056D01*
X159790423Y-81331783D01*
X159790426Y-81331790D01*
X159869475Y-81468709D01*
X159869479Y-81468714D01*
X159869480Y-81468716D01*
X159981284Y-81580520D01*
X159981286Y-81580521D01*
X159981290Y-81580524D01*
X159998140Y-81590252D01*
X160118216Y-81659577D01*
X160270943Y-81700500D01*
X160270945Y-81700500D01*
X160429055Y-81700500D01*
X160429057Y-81700500D01*
X160581784Y-81659577D01*
X160718716Y-81580520D01*
X160787819Y-81511417D01*
X160849142Y-81477932D01*
X160918834Y-81482916D01*
X160974767Y-81524788D01*
X160999184Y-81590252D01*
X160999500Y-81599098D01*
X160999500Y-104075500D01*
X160979815Y-104142539D01*
X160927011Y-104188294D01*
X160875500Y-104199500D01*
X158235558Y-104199500D01*
X158168519Y-104179815D01*
X158122764Y-104127011D01*
X158112820Y-104057853D01*
X158132456Y-104006609D01*
X158185771Y-103926817D01*
X158185771Y-103926816D01*
X158185775Y-103926811D01*
X158238580Y-103799328D01*
X158247389Y-103755041D01*
X158265500Y-103663995D01*
X158265500Y-102926004D01*
X158238581Y-102790677D01*
X158238580Y-102790676D01*
X158238580Y-102790672D01*
X158208166Y-102717246D01*
X158185778Y-102663195D01*
X158185771Y-102663182D01*
X158109114Y-102548458D01*
X158109111Y-102548454D01*
X158011545Y-102450888D01*
X158011541Y-102450885D01*
X157896817Y-102374228D01*
X157896804Y-102374221D01*
X157769332Y-102321421D01*
X157769322Y-102321418D01*
X157633995Y-102294500D01*
X157633993Y-102294500D01*
X157496007Y-102294500D01*
X157496005Y-102294500D01*
X157360677Y-102321418D01*
X157360667Y-102321421D01*
X157233195Y-102374221D01*
X157233182Y-102374228D01*
X157118458Y-102450885D01*
X157118454Y-102450888D01*
X157020888Y-102548454D01*
X157020885Y-102548458D01*
X156944228Y-102663182D01*
X156944221Y-102663195D01*
X156891421Y-102790667D01*
X156891418Y-102790677D01*
X156864500Y-102926004D01*
X156864500Y-102926007D01*
X156864500Y-103663993D01*
X156864500Y-103663995D01*
X156864499Y-103663995D01*
X156891418Y-103799322D01*
X156891421Y-103799332D01*
X156944221Y-103926804D01*
X156944228Y-103926817D01*
X156997544Y-104006609D01*
X157018422Y-104073286D01*
X156999938Y-104140667D01*
X156947959Y-104187357D01*
X156894442Y-104199500D01*
X149595558Y-104199500D01*
X149528519Y-104179815D01*
X149482764Y-104127011D01*
X149472820Y-104057853D01*
X149492456Y-104006609D01*
X149545771Y-103926817D01*
X149545771Y-103926816D01*
X149545775Y-103926811D01*
X149598580Y-103799328D01*
X149607389Y-103755041D01*
X149625500Y-103663995D01*
X149625500Y-102926004D01*
X149598581Y-102790677D01*
X149598580Y-102790676D01*
X149598580Y-102790672D01*
X149568166Y-102717246D01*
X149545778Y-102663195D01*
X149545771Y-102663182D01*
X149469114Y-102548458D01*
X149469111Y-102548454D01*
X149371545Y-102450888D01*
X149371541Y-102450885D01*
X149256817Y-102374228D01*
X149256804Y-102374221D01*
X149129332Y-102321421D01*
X149129322Y-102321418D01*
X148993995Y-102294500D01*
X148993993Y-102294500D01*
X148856007Y-102294500D01*
X148856005Y-102294500D01*
X148720677Y-102321418D01*
X148720667Y-102321421D01*
X148593195Y-102374221D01*
X148593182Y-102374228D01*
X148478458Y-102450885D01*
X148478454Y-102450888D01*
X148380888Y-102548454D01*
X148380885Y-102548458D01*
X148304228Y-102663182D01*
X148304221Y-102663195D01*
X148251421Y-102790667D01*
X148251418Y-102790677D01*
X148224500Y-102926004D01*
X148224500Y-102926007D01*
X148224500Y-103663993D01*
X148224500Y-103663995D01*
X148224499Y-103663995D01*
X148251418Y-103799322D01*
X148251421Y-103799332D01*
X148304221Y-103926804D01*
X148304228Y-103926817D01*
X148357544Y-104006609D01*
X148378422Y-104073286D01*
X148359938Y-104140667D01*
X148307959Y-104187357D01*
X148254442Y-104199500D01*
X146325686Y-104199500D01*
X146258647Y-104179815D01*
X146212892Y-104127011D01*
X146202948Y-104057853D01*
X146207912Y-104039752D01*
X146207473Y-104039635D01*
X146209577Y-104031784D01*
X146250500Y-103879057D01*
X146250500Y-103720943D01*
X146209577Y-103568216D01*
X146209573Y-103568209D01*
X146130524Y-103431290D01*
X146130518Y-103431282D01*
X146018717Y-103319481D01*
X146018709Y-103319475D01*
X145881790Y-103240426D01*
X145881786Y-103240424D01*
X145881784Y-103240423D01*
X145729057Y-103199500D01*
X145570943Y-103199500D01*
X145418216Y-103240423D01*
X145418209Y-103240426D01*
X145281290Y-103319475D01*
X145281282Y-103319481D01*
X145169481Y-103431282D01*
X145169475Y-103431290D01*
X145090426Y-103568209D01*
X145090423Y-103568216D01*
X145049500Y-103720943D01*
X145049500Y-103879057D01*
X145083677Y-104006609D01*
X145092527Y-104039635D01*
X145090190Y-104040260D01*
X145096342Y-104097528D01*
X145065061Y-104160004D01*
X145004969Y-104195651D01*
X144974314Y-104199500D01*
X119924500Y-104199500D01*
X119857461Y-104179815D01*
X119811706Y-104127011D01*
X119800500Y-104075500D01*
X119800500Y-102126530D01*
X121099500Y-102126530D01*
X121099500Y-102333469D01*
X121139868Y-102536412D01*
X121139870Y-102536420D01*
X121219058Y-102727596D01*
X121334024Y-102899657D01*
X121480342Y-103045975D01*
X121480345Y-103045977D01*
X121652402Y-103160941D01*
X121843580Y-103240130D01*
X122046530Y-103280499D01*
X122046534Y-103280500D01*
X122046535Y-103280500D01*
X122253466Y-103280500D01*
X122253467Y-103280499D01*
X122456420Y-103240130D01*
X122647598Y-103160941D01*
X122819655Y-103045977D01*
X122965977Y-102899655D01*
X123080941Y-102727598D01*
X123160130Y-102536420D01*
X123200500Y-102333465D01*
X123200500Y-102126535D01*
X123160130Y-101923580D01*
X123080941Y-101732402D01*
X122965977Y-101560345D01*
X122965975Y-101560342D01*
X122819657Y-101414024D01*
X122786611Y-101391944D01*
X122647598Y-101299059D01*
X122634692Y-101293713D01*
X125149500Y-101293713D01*
X125149500Y-101506287D01*
X125182754Y-101716243D01*
X125188004Y-101732402D01*
X125248444Y-101918414D01*
X125344951Y-102107820D01*
X125469890Y-102279786D01*
X125620213Y-102430109D01*
X125792179Y-102555048D01*
X125792181Y-102555049D01*
X125792184Y-102555051D01*
X125981588Y-102651557D01*
X126183757Y-102717246D01*
X126393713Y-102750500D01*
X126393714Y-102750500D01*
X126606286Y-102750500D01*
X126606287Y-102750500D01*
X126816243Y-102717246D01*
X127018412Y-102651557D01*
X127207816Y-102555051D01*
X127233471Y-102536412D01*
X127379786Y-102430109D01*
X127379788Y-102430106D01*
X127379792Y-102430104D01*
X127530104Y-102279792D01*
X127530106Y-102279788D01*
X127530109Y-102279786D01*
X127655048Y-102107820D01*
X127655047Y-102107820D01*
X127655051Y-102107816D01*
X127751557Y-101918412D01*
X127817246Y-101716243D01*
X127850500Y-101506287D01*
X127850500Y-101293713D01*
X127817246Y-101083757D01*
X127751557Y-100881588D01*
X127655051Y-100692184D01*
X127655049Y-100692181D01*
X127655048Y-100692179D01*
X127530109Y-100520213D01*
X127379786Y-100369890D01*
X127207820Y-100244951D01*
X127018414Y-100148444D01*
X127018413Y-100148443D01*
X127018412Y-100148443D01*
X126816243Y-100082754D01*
X126816241Y-100082753D01*
X126816240Y-100082753D01*
X126654957Y-100057208D01*
X126606287Y-100049500D01*
X126393713Y-100049500D01*
X126345042Y-100057208D01*
X126183760Y-100082753D01*
X125981585Y-100148444D01*
X125792179Y-100244951D01*
X125620213Y-100369890D01*
X125469890Y-100520213D01*
X125344951Y-100692179D01*
X125248444Y-100881585D01*
X125182753Y-101083760D01*
X125149500Y-101293713D01*
X122634692Y-101293713D01*
X122456420Y-101219870D01*
X122456412Y-101219868D01*
X122253469Y-101179500D01*
X122253465Y-101179500D01*
X122046535Y-101179500D01*
X122046530Y-101179500D01*
X121843587Y-101219868D01*
X121843579Y-101219870D01*
X121652403Y-101299058D01*
X121480342Y-101414024D01*
X121334024Y-101560342D01*
X121219058Y-101732403D01*
X121139870Y-101923579D01*
X121139868Y-101923587D01*
X121099500Y-102126530D01*
X119800500Y-102126530D01*
X119800500Y-97043753D01*
X120800000Y-97043753D01*
X120800000Y-97256246D01*
X120833242Y-97466127D01*
X120833242Y-97466130D01*
X120898904Y-97668217D01*
X120995375Y-97857550D01*
X121034728Y-97911716D01*
X121667037Y-97279408D01*
X121684075Y-97342993D01*
X121749901Y-97457007D01*
X121842993Y-97550099D01*
X121957007Y-97615925D01*
X122020590Y-97632962D01*
X121388282Y-98265269D01*
X121388282Y-98265270D01*
X121442449Y-98304624D01*
X121631782Y-98401095D01*
X121807973Y-98458343D01*
X121865648Y-98497780D01*
X121892847Y-98562139D01*
X121880932Y-98630985D01*
X121833688Y-98682461D01*
X121817108Y-98690835D01*
X121652403Y-98759057D01*
X121480342Y-98874024D01*
X121334024Y-99020342D01*
X121219058Y-99192403D01*
X121139870Y-99383579D01*
X121139868Y-99383587D01*
X121099500Y-99586530D01*
X121099500Y-99793469D01*
X121139868Y-99996412D01*
X121139870Y-99996420D01*
X121175630Y-100082753D01*
X121219059Y-100187598D01*
X121257381Y-100244951D01*
X121334024Y-100359657D01*
X121480342Y-100505975D01*
X121480345Y-100505977D01*
X121652402Y-100620941D01*
X121843580Y-100700130D01*
X122046530Y-100740499D01*
X122046534Y-100740500D01*
X122046535Y-100740500D01*
X122253466Y-100740500D01*
X122253467Y-100740499D01*
X122456420Y-100700130D01*
X122647598Y-100620941D01*
X122819655Y-100505977D01*
X122965977Y-100359655D01*
X123080941Y-100187598D01*
X123160130Y-99996420D01*
X123200500Y-99793465D01*
X123200500Y-99733995D01*
X148224499Y-99733995D01*
X148251418Y-99869322D01*
X148251421Y-99869332D01*
X148304221Y-99996804D01*
X148304228Y-99996817D01*
X148380885Y-100111541D01*
X148380888Y-100111545D01*
X148478454Y-100209111D01*
X148478458Y-100209114D01*
X148593182Y-100285771D01*
X148593195Y-100285778D01*
X148720667Y-100338578D01*
X148720672Y-100338580D01*
X148720676Y-100338580D01*
X148720677Y-100338581D01*
X148856004Y-100365500D01*
X148856007Y-100365500D01*
X148993995Y-100365500D01*
X149085041Y-100347389D01*
X149129328Y-100338580D01*
X149256811Y-100285775D01*
X149371542Y-100209114D01*
X149469114Y-100111542D01*
X149545775Y-99996811D01*
X149594844Y-99878346D01*
X149638684Y-99823943D01*
X149704978Y-99801878D01*
X149772678Y-99819157D01*
X149816792Y-99863798D01*
X149825192Y-99878347D01*
X149894485Y-99998365D01*
X150001635Y-100105515D01*
X150132865Y-100181281D01*
X150279234Y-100220500D01*
X150279236Y-100220500D01*
X150430764Y-100220500D01*
X150430766Y-100220500D01*
X150577135Y-100181281D01*
X150708365Y-100105515D01*
X150815515Y-99998365D01*
X150891281Y-99867135D01*
X150930500Y-99720766D01*
X150930500Y-99569234D01*
X155559500Y-99569234D01*
X155559500Y-99720765D01*
X155598719Y-99867136D01*
X155605192Y-99878347D01*
X155674485Y-99998365D01*
X155781635Y-100105515D01*
X155912865Y-100181281D01*
X156059234Y-100220500D01*
X156059236Y-100220500D01*
X156210764Y-100220500D01*
X156210766Y-100220500D01*
X156357135Y-100181281D01*
X156488365Y-100105515D01*
X156595515Y-99998365D01*
X156671281Y-99867135D01*
X156671281Y-99867134D01*
X156673207Y-99863799D01*
X156723774Y-99815583D01*
X156792381Y-99802361D01*
X156857246Y-99828329D01*
X156895155Y-99878346D01*
X156944223Y-99996808D01*
X156944228Y-99996817D01*
X157020885Y-100111541D01*
X157020888Y-100111545D01*
X157118454Y-100209111D01*
X157118458Y-100209114D01*
X157233182Y-100285771D01*
X157233195Y-100285778D01*
X157360667Y-100338578D01*
X157360672Y-100338580D01*
X157360676Y-100338580D01*
X157360677Y-100338581D01*
X157496004Y-100365500D01*
X157496007Y-100365500D01*
X157633995Y-100365500D01*
X157725041Y-100347389D01*
X157769328Y-100338580D01*
X157896811Y-100285775D01*
X158011542Y-100209114D01*
X158109114Y-100111542D01*
X158185775Y-99996811D01*
X158238580Y-99869328D01*
X158251997Y-99801878D01*
X158265500Y-99733995D01*
X158265500Y-98496004D01*
X158238581Y-98360677D01*
X158238580Y-98360676D01*
X158238580Y-98360672D01*
X158226614Y-98331783D01*
X158185778Y-98233195D01*
X158185771Y-98233182D01*
X158109114Y-98118458D01*
X158109111Y-98118454D01*
X158011545Y-98020888D01*
X158011541Y-98020885D01*
X157896817Y-97944228D01*
X157896804Y-97944221D01*
X157769332Y-97891421D01*
X157769322Y-97891418D01*
X157633995Y-97864500D01*
X157633993Y-97864500D01*
X157496007Y-97864500D01*
X157496005Y-97864500D01*
X157360677Y-97891418D01*
X157360667Y-97891421D01*
X157233195Y-97944221D01*
X157233182Y-97944228D01*
X157118458Y-98020885D01*
X157118454Y-98020888D01*
X157020888Y-98118454D01*
X157020885Y-98118458D01*
X156944228Y-98233182D01*
X156944221Y-98233195D01*
X156891421Y-98360667D01*
X156891418Y-98360677D01*
X156864500Y-98496004D01*
X156864500Y-99294755D01*
X156844815Y-99361794D01*
X156792011Y-99407549D01*
X156722853Y-99417493D01*
X156659297Y-99388468D01*
X156633113Y-99356756D01*
X156620731Y-99335310D01*
X156595515Y-99291635D01*
X156488365Y-99184485D01*
X156422750Y-99146602D01*
X156357136Y-99108719D01*
X156283950Y-99089109D01*
X156210766Y-99069500D01*
X156059234Y-99069500D01*
X155912863Y-99108719D01*
X155781635Y-99184485D01*
X155781632Y-99184487D01*
X155674487Y-99291632D01*
X155674485Y-99291635D01*
X155598719Y-99422863D01*
X155559500Y-99569234D01*
X150930500Y-99569234D01*
X150891281Y-99422865D01*
X150888179Y-99417493D01*
X150856021Y-99361794D01*
X150815515Y-99291635D01*
X150708365Y-99184485D01*
X150642750Y-99146602D01*
X150577136Y-99108719D01*
X150503950Y-99089109D01*
X150430766Y-99069500D01*
X150279234Y-99069500D01*
X150132863Y-99108719D01*
X150001635Y-99184485D01*
X150001632Y-99184487D01*
X149894487Y-99291632D01*
X149894485Y-99291635D01*
X149856887Y-99356756D01*
X149806319Y-99404971D01*
X149737712Y-99418193D01*
X149672847Y-99392225D01*
X149632319Y-99335310D01*
X149625500Y-99294755D01*
X149625500Y-98496004D01*
X149598581Y-98360677D01*
X149598580Y-98360676D01*
X149598580Y-98360672D01*
X149586614Y-98331783D01*
X149545778Y-98233195D01*
X149545771Y-98233182D01*
X149469114Y-98118458D01*
X149469111Y-98118454D01*
X149371545Y-98020888D01*
X149371541Y-98020885D01*
X149256817Y-97944228D01*
X149256804Y-97944221D01*
X149129332Y-97891421D01*
X149129322Y-97891418D01*
X148993995Y-97864500D01*
X148993993Y-97864500D01*
X148856007Y-97864500D01*
X148856005Y-97864500D01*
X148720677Y-97891418D01*
X148720667Y-97891421D01*
X148593195Y-97944221D01*
X148593182Y-97944228D01*
X148478458Y-98020885D01*
X148478454Y-98020888D01*
X148380888Y-98118454D01*
X148380885Y-98118458D01*
X148304228Y-98233182D01*
X148304221Y-98233195D01*
X148251421Y-98360667D01*
X148251418Y-98360677D01*
X148224500Y-98496004D01*
X148224500Y-98496007D01*
X148224500Y-99733993D01*
X148224500Y-99733995D01*
X148224499Y-99733995D01*
X123200500Y-99733995D01*
X123200500Y-99586535D01*
X123160130Y-99383580D01*
X123080941Y-99192402D01*
X122965977Y-99020345D01*
X122965975Y-99020342D01*
X122819657Y-98874024D01*
X122733626Y-98816541D01*
X122647598Y-98759059D01*
X122647593Y-98759057D01*
X122585891Y-98733499D01*
X122482890Y-98690834D01*
X122428488Y-98646994D01*
X122406423Y-98580700D01*
X122423702Y-98513001D01*
X122474839Y-98465390D01*
X122492026Y-98458343D01*
X122668217Y-98401095D01*
X122857554Y-98304622D01*
X122911716Y-98265270D01*
X122911717Y-98265270D01*
X122667390Y-98020943D01*
X126049500Y-98020943D01*
X126049500Y-98179057D01*
X126073525Y-98268717D01*
X126090423Y-98331783D01*
X126090426Y-98331790D01*
X126169475Y-98468709D01*
X126169479Y-98468714D01*
X126169480Y-98468716D01*
X126281284Y-98580520D01*
X126281286Y-98580521D01*
X126281290Y-98580524D01*
X126383441Y-98639500D01*
X126418216Y-98659577D01*
X126570943Y-98700500D01*
X126570945Y-98700500D01*
X126729055Y-98700500D01*
X126729057Y-98700500D01*
X126881784Y-98659577D01*
X127018716Y-98580520D01*
X127130520Y-98468716D01*
X127209577Y-98331784D01*
X127250500Y-98179057D01*
X127250500Y-98020943D01*
X127209577Y-97868216D01*
X127203421Y-97857554D01*
X127182284Y-97820943D01*
X133199500Y-97820943D01*
X133199500Y-97979057D01*
X133236853Y-98118458D01*
X133240423Y-98131783D01*
X133240426Y-98131790D01*
X133319475Y-98268709D01*
X133319479Y-98268714D01*
X133319480Y-98268716D01*
X133431284Y-98380520D01*
X133431286Y-98380521D01*
X133431290Y-98380524D01*
X133466921Y-98401095D01*
X133568216Y-98459577D01*
X133720943Y-98500500D01*
X133720945Y-98500500D01*
X133879055Y-98500500D01*
X133879057Y-98500500D01*
X134031784Y-98459577D01*
X134165240Y-98382527D01*
X134165242Y-98382526D01*
X134168709Y-98380524D01*
X134168708Y-98380524D01*
X134168716Y-98380520D01*
X134280520Y-98268716D01*
X134359577Y-98131784D01*
X134400500Y-97979057D01*
X134400500Y-97820943D01*
X134359577Y-97668216D01*
X134336969Y-97629057D01*
X134280524Y-97531289D01*
X134280518Y-97531282D01*
X134220179Y-97470943D01*
X135049500Y-97470943D01*
X135049500Y-97629057D01*
X135076893Y-97731287D01*
X135090423Y-97781783D01*
X135090426Y-97781790D01*
X135169475Y-97918709D01*
X135169479Y-97918714D01*
X135169480Y-97918716D01*
X135281284Y-98030520D01*
X135281286Y-98030521D01*
X135281290Y-98030524D01*
X135418209Y-98109573D01*
X135418216Y-98109577D01*
X135570943Y-98150500D01*
X135570945Y-98150500D01*
X135729055Y-98150500D01*
X135729057Y-98150500D01*
X135881784Y-98109577D01*
X136018716Y-98030520D01*
X136130520Y-97918716D01*
X136209577Y-97781784D01*
X136250500Y-97629057D01*
X136250500Y-97470943D01*
X136209577Y-97318216D01*
X136199258Y-97300343D01*
X136182786Y-97232446D01*
X136205638Y-97166419D01*
X136260559Y-97123228D01*
X136330112Y-97116586D01*
X136368645Y-97130957D01*
X136418216Y-97159577D01*
X136570943Y-97200500D01*
X136570945Y-97200500D01*
X136729055Y-97200500D01*
X136729057Y-97200500D01*
X136881784Y-97159577D01*
X137018716Y-97080520D01*
X137130520Y-96968716D01*
X137209577Y-96831784D01*
X137250500Y-96679057D01*
X137250500Y-96520943D01*
X137209577Y-96368216D01*
X137209573Y-96368209D01*
X137130524Y-96231290D01*
X137130518Y-96231282D01*
X137018717Y-96119481D01*
X137018709Y-96119475D01*
X136881788Y-96040424D01*
X136878498Y-96039062D01*
X136876148Y-96037168D01*
X136874746Y-96036359D01*
X136874872Y-96036140D01*
X136824093Y-95995222D01*
X136802027Y-95928928D01*
X136819305Y-95861229D01*
X136870441Y-95813617D01*
X136921010Y-95801666D01*
X136920997Y-95801561D01*
X136922038Y-95801423D01*
X136925948Y-95800500D01*
X136929055Y-95800500D01*
X136929057Y-95800500D01*
X137081784Y-95759577D01*
X137218716Y-95680520D01*
X137330520Y-95568716D01*
X137409577Y-95431784D01*
X137450500Y-95279057D01*
X137450500Y-95120943D01*
X137409577Y-94968216D01*
X137379668Y-94916412D01*
X137330524Y-94831290D01*
X137330518Y-94831282D01*
X137218717Y-94719481D01*
X137218709Y-94719475D01*
X137081790Y-94640426D01*
X137081786Y-94640424D01*
X137081784Y-94640423D01*
X136929057Y-94599500D01*
X136770943Y-94599500D01*
X136618216Y-94640423D01*
X136618209Y-94640426D01*
X136481290Y-94719475D01*
X136481282Y-94719481D01*
X136369481Y-94831282D01*
X136369475Y-94831290D01*
X136290426Y-94968209D01*
X136290423Y-94968216D01*
X136249500Y-95120943D01*
X136249500Y-95279057D01*
X136288867Y-95425975D01*
X136290423Y-95431783D01*
X136290426Y-95431790D01*
X136369475Y-95568709D01*
X136369479Y-95568714D01*
X136369480Y-95568716D01*
X136481284Y-95680520D01*
X136481286Y-95680521D01*
X136481290Y-95680524D01*
X136618211Y-95759575D01*
X136621502Y-95760938D01*
X136623851Y-95762831D01*
X136625254Y-95763641D01*
X136625127Y-95763859D01*
X136675907Y-95804778D01*
X136697973Y-95871072D01*
X136680695Y-95938771D01*
X136629559Y-95986383D01*
X136578989Y-95998333D01*
X136579003Y-95998439D01*
X136577961Y-95998576D01*
X136574052Y-95999500D01*
X136570943Y-95999500D01*
X136418216Y-96040423D01*
X136418209Y-96040426D01*
X136281290Y-96119475D01*
X136281282Y-96119481D01*
X136169481Y-96231282D01*
X136169475Y-96231290D01*
X136090426Y-96368209D01*
X136090423Y-96368216D01*
X136049500Y-96520943D01*
X136049500Y-96679057D01*
X136090423Y-96831784D01*
X136096894Y-96842993D01*
X136100741Y-96849655D01*
X136117213Y-96917555D01*
X136094360Y-96983582D01*
X136039438Y-97026772D01*
X135969885Y-97033413D01*
X135931354Y-97019042D01*
X135881784Y-96990423D01*
X135856253Y-96983582D01*
X135729057Y-96949500D01*
X135570943Y-96949500D01*
X135418216Y-96990423D01*
X135418209Y-96990426D01*
X135281290Y-97069475D01*
X135281282Y-97069481D01*
X135169481Y-97181282D01*
X135169475Y-97181290D01*
X135090426Y-97318209D01*
X135090423Y-97318216D01*
X135049500Y-97470943D01*
X134220179Y-97470943D01*
X134168717Y-97419481D01*
X134168709Y-97419475D01*
X134031790Y-97340426D01*
X134031786Y-97340424D01*
X134031784Y-97340423D01*
X133879057Y-97299500D01*
X133720943Y-97299500D01*
X133568216Y-97340423D01*
X133568209Y-97340426D01*
X133431290Y-97419475D01*
X133431282Y-97419481D01*
X133319481Y-97531282D01*
X133319475Y-97531290D01*
X133240426Y-97668209D01*
X133240423Y-97668216D01*
X133199500Y-97820943D01*
X127182284Y-97820943D01*
X127130522Y-97731287D01*
X127130518Y-97731282D01*
X127018717Y-97619481D01*
X127018709Y-97619475D01*
X126881790Y-97540426D01*
X126881786Y-97540424D01*
X126881784Y-97540423D01*
X126729057Y-97499500D01*
X126570943Y-97499500D01*
X126418216Y-97540423D01*
X126418209Y-97540426D01*
X126281290Y-97619475D01*
X126281282Y-97619481D01*
X126169481Y-97731282D01*
X126169475Y-97731290D01*
X126090426Y-97868209D01*
X126090426Y-97868210D01*
X126090423Y-97868216D01*
X126049500Y-98020943D01*
X122667390Y-98020943D01*
X122279408Y-97632962D01*
X122342993Y-97615925D01*
X122457007Y-97550099D01*
X122550099Y-97457007D01*
X122615925Y-97342993D01*
X122632962Y-97279408D01*
X123265270Y-97911717D01*
X123265271Y-97911716D01*
X123304622Y-97857554D01*
X123401095Y-97668217D01*
X123466757Y-97466130D01*
X123466757Y-97466127D01*
X123500000Y-97256246D01*
X123500000Y-97043753D01*
X123466757Y-96833872D01*
X123466757Y-96833869D01*
X123401095Y-96631782D01*
X123304624Y-96442449D01*
X123265270Y-96388282D01*
X123265269Y-96388282D01*
X122632962Y-97020590D01*
X122615925Y-96957007D01*
X122550099Y-96842993D01*
X122457007Y-96749901D01*
X122342993Y-96684075D01*
X122279409Y-96667037D01*
X122911716Y-96034728D01*
X122857550Y-95995375D01*
X122668216Y-95898904D01*
X122492026Y-95841656D01*
X122434350Y-95802218D01*
X122407152Y-95737860D01*
X122419067Y-95669013D01*
X122466311Y-95617538D01*
X122482882Y-95609168D01*
X122647598Y-95540941D01*
X122819655Y-95425977D01*
X122965977Y-95279655D01*
X123080941Y-95107598D01*
X123160130Y-94916420D01*
X123200500Y-94713465D01*
X123200500Y-94506535D01*
X123160130Y-94303580D01*
X123080941Y-94112402D01*
X122965977Y-93940345D01*
X122965975Y-93940342D01*
X122819657Y-93794024D01*
X122733626Y-93736541D01*
X122647598Y-93679059D01*
X122456420Y-93599870D01*
X122456412Y-93599868D01*
X122253469Y-93559500D01*
X122253465Y-93559500D01*
X122046535Y-93559500D01*
X122046530Y-93559500D01*
X121843587Y-93599868D01*
X121843579Y-93599870D01*
X121652403Y-93679058D01*
X121480342Y-93794024D01*
X121334024Y-93940342D01*
X121219058Y-94112403D01*
X121139870Y-94303579D01*
X121139868Y-94303587D01*
X121099500Y-94506530D01*
X121099500Y-94713469D01*
X121139868Y-94916412D01*
X121139870Y-94916420D01*
X121219058Y-95107596D01*
X121334024Y-95279657D01*
X121480342Y-95425975D01*
X121652405Y-95540943D01*
X121755043Y-95583456D01*
X121817108Y-95609164D01*
X121871511Y-95653005D01*
X121893576Y-95719299D01*
X121876297Y-95786998D01*
X121825160Y-95834609D01*
X121807974Y-95841656D01*
X121631781Y-95898905D01*
X121442439Y-95995380D01*
X121388282Y-96034727D01*
X121388282Y-96034728D01*
X122020591Y-96667037D01*
X121957007Y-96684075D01*
X121842993Y-96749901D01*
X121749901Y-96842993D01*
X121684075Y-96957007D01*
X121667037Y-97020591D01*
X121034728Y-96388282D01*
X121034727Y-96388282D01*
X120995380Y-96442439D01*
X120898904Y-96631782D01*
X120833242Y-96833869D01*
X120833242Y-96833872D01*
X120800000Y-97043753D01*
X119800500Y-97043753D01*
X119800500Y-93441991D01*
X139806376Y-93441991D01*
X139806376Y-93600105D01*
X139827532Y-93679058D01*
X139847299Y-93752831D01*
X139847302Y-93752838D01*
X139926351Y-93889757D01*
X139926355Y-93889762D01*
X139926356Y-93889764D01*
X140038160Y-94001568D01*
X140038162Y-94001569D01*
X140038166Y-94001572D01*
X140175085Y-94080621D01*
X140175092Y-94080625D01*
X140327819Y-94121548D01*
X140327821Y-94121548D01*
X140485931Y-94121548D01*
X140485933Y-94121548D01*
X140638660Y-94080625D01*
X140775592Y-94001568D01*
X140887396Y-93889764D01*
X140966453Y-93752832D01*
X141007376Y-93600105D01*
X141007376Y-93441991D01*
X140966453Y-93289264D01*
X140966449Y-93289257D01*
X140887400Y-93152338D01*
X140887394Y-93152330D01*
X140775593Y-93040529D01*
X140775585Y-93040523D01*
X140638666Y-92961474D01*
X140638662Y-92961472D01*
X140638660Y-92961471D01*
X140485933Y-92920548D01*
X140327819Y-92920548D01*
X140175092Y-92961471D01*
X140175085Y-92961474D01*
X140038166Y-93040523D01*
X140038158Y-93040529D01*
X139926357Y-93152330D01*
X139926351Y-93152338D01*
X139847302Y-93289257D01*
X139847299Y-93289264D01*
X139806376Y-93441991D01*
X119800500Y-93441991D01*
X119800500Y-91200247D01*
X121099500Y-91200247D01*
X121099500Y-92939752D01*
X121111131Y-92998229D01*
X121111132Y-92998230D01*
X121155447Y-93064552D01*
X121221769Y-93108867D01*
X121221770Y-93108868D01*
X121280247Y-93120499D01*
X121280250Y-93120500D01*
X121280252Y-93120500D01*
X123019750Y-93120500D01*
X123019751Y-93120499D01*
X123034568Y-93117552D01*
X123078229Y-93108868D01*
X123078229Y-93108867D01*
X123078231Y-93108867D01*
X123144552Y-93064552D01*
X123188867Y-92998231D01*
X123188867Y-92998229D01*
X123188868Y-92998229D01*
X123200499Y-92939752D01*
X123200500Y-92939750D01*
X123200500Y-91200249D01*
X123200499Y-91200247D01*
X123188868Y-91141770D01*
X123188867Y-91141769D01*
X123144552Y-91075447D01*
X123078230Y-91031132D01*
X123078229Y-91031131D01*
X123019752Y-91019500D01*
X123019748Y-91019500D01*
X121280252Y-91019500D01*
X121280247Y-91019500D01*
X121221770Y-91031131D01*
X121221769Y-91031132D01*
X121155447Y-91075447D01*
X121111132Y-91141769D01*
X121111131Y-91141770D01*
X121099500Y-91200247D01*
X119800500Y-91200247D01*
X119800500Y-89395943D01*
X136374500Y-89395943D01*
X136374500Y-89554057D01*
X136412459Y-89695720D01*
X136415423Y-89706783D01*
X136415426Y-89706790D01*
X136494475Y-89843709D01*
X136494479Y-89843714D01*
X136494480Y-89843716D01*
X136606284Y-89955520D01*
X136606286Y-89955521D01*
X136606290Y-89955524D01*
X136743209Y-90034573D01*
X136743216Y-90034577D01*
X136895943Y-90075500D01*
X136895945Y-90075500D01*
X137054055Y-90075500D01*
X137054057Y-90075500D01*
X137206784Y-90034577D01*
X137343716Y-89955520D01*
X137455520Y-89843716D01*
X137534577Y-89706784D01*
X137575500Y-89554057D01*
X137575500Y-89519902D01*
X144498459Y-89519902D01*
X144498459Y-89678016D01*
X144531301Y-89800582D01*
X144539382Y-89830742D01*
X144539385Y-89830749D01*
X144618434Y-89967668D01*
X144618438Y-89967673D01*
X144618439Y-89967675D01*
X144730243Y-90079479D01*
X144730245Y-90079480D01*
X144730249Y-90079483D01*
X144867168Y-90158532D01*
X144867175Y-90158536D01*
X145019902Y-90199459D01*
X145019904Y-90199459D01*
X145105676Y-90199459D01*
X145172715Y-90219144D01*
X145218470Y-90271948D01*
X145229676Y-90323459D01*
X145229676Y-90360163D01*
X145270599Y-90512890D01*
X145270602Y-90512897D01*
X145349651Y-90649816D01*
X145349655Y-90649821D01*
X145349656Y-90649823D01*
X145461460Y-90761627D01*
X145461462Y-90761628D01*
X145461466Y-90761631D01*
X145598385Y-90840680D01*
X145598392Y-90840684D01*
X145751119Y-90881607D01*
X145751121Y-90881607D01*
X145909231Y-90881607D01*
X145909233Y-90881607D01*
X146061960Y-90840684D01*
X146198892Y-90761627D01*
X146310696Y-90649823D01*
X146389753Y-90512891D01*
X146430676Y-90360164D01*
X146430676Y-90202050D01*
X146389753Y-90049323D01*
X146389749Y-90049316D01*
X146310700Y-89912397D01*
X146310694Y-89912389D01*
X146198893Y-89800588D01*
X146198885Y-89800582D01*
X146061966Y-89721533D01*
X146061962Y-89721531D01*
X146061960Y-89721530D01*
X145909233Y-89680607D01*
X145823459Y-89680607D01*
X145756420Y-89660922D01*
X145710665Y-89608118D01*
X145699459Y-89556607D01*
X145699459Y-89519904D01*
X145699459Y-89519902D01*
X145658536Y-89367175D01*
X145586965Y-89243209D01*
X145579483Y-89230249D01*
X145579477Y-89230241D01*
X145467676Y-89118440D01*
X145467668Y-89118434D01*
X145330749Y-89039385D01*
X145330745Y-89039383D01*
X145330743Y-89039382D01*
X145178016Y-88998459D01*
X145019902Y-88998459D01*
X144867175Y-89039382D01*
X144867168Y-89039385D01*
X144730249Y-89118434D01*
X144730241Y-89118440D01*
X144618440Y-89230241D01*
X144618434Y-89230249D01*
X144539385Y-89367168D01*
X144539382Y-89367175D01*
X144498459Y-89519902D01*
X137575500Y-89519902D01*
X137575500Y-89395943D01*
X137534577Y-89243216D01*
X137527086Y-89230241D01*
X137455524Y-89106290D01*
X137455518Y-89106282D01*
X137343717Y-88994481D01*
X137343709Y-88994475D01*
X137206790Y-88915426D01*
X137206786Y-88915424D01*
X137206784Y-88915423D01*
X137054057Y-88874500D01*
X136895943Y-88874500D01*
X136743216Y-88915423D01*
X136743209Y-88915426D01*
X136606290Y-88994475D01*
X136606282Y-88994481D01*
X136494481Y-89106282D01*
X136494475Y-89106290D01*
X136415426Y-89243209D01*
X136415423Y-89243216D01*
X136374500Y-89395943D01*
X119800500Y-89395943D01*
X119800500Y-82670943D01*
X153599500Y-82670943D01*
X153599500Y-82829057D01*
X153605246Y-82850499D01*
X153640423Y-82981783D01*
X153640426Y-82981790D01*
X153719475Y-83118709D01*
X153719479Y-83118714D01*
X153719480Y-83118716D01*
X153831284Y-83230520D01*
X153831286Y-83230521D01*
X153831290Y-83230524D01*
X153968209Y-83309573D01*
X153968216Y-83309577D01*
X154120943Y-83350500D01*
X154120945Y-83350500D01*
X154279055Y-83350500D01*
X154279057Y-83350500D01*
X154431784Y-83309577D01*
X154568716Y-83230520D01*
X154680520Y-83118716D01*
X154759577Y-82981784D01*
X154800500Y-82829057D01*
X154800500Y-82670943D01*
X154759577Y-82518216D01*
X154738543Y-82481783D01*
X154680524Y-82381290D01*
X154680518Y-82381282D01*
X154568717Y-82269481D01*
X154568716Y-82269480D01*
X154431784Y-82190423D01*
X154359084Y-82170943D01*
X157460159Y-82170943D01*
X157460159Y-82329056D01*
X157501082Y-82481783D01*
X157501085Y-82481790D01*
X157580134Y-82618709D01*
X157580138Y-82618714D01*
X157580139Y-82618716D01*
X157691943Y-82730520D01*
X157691945Y-82730521D01*
X157691949Y-82730524D01*
X157828868Y-82809573D01*
X157828875Y-82809577D01*
X157981602Y-82850500D01*
X157981604Y-82850500D01*
X158139714Y-82850500D01*
X158139716Y-82850500D01*
X158292443Y-82809577D01*
X158429375Y-82730520D01*
X158541179Y-82618716D01*
X158620236Y-82481784D01*
X158661159Y-82329057D01*
X158661159Y-82170943D01*
X158620236Y-82018216D01*
X158598475Y-81980524D01*
X158541183Y-81881290D01*
X158541177Y-81881282D01*
X158429376Y-81769481D01*
X158429368Y-81769475D01*
X158292449Y-81690426D01*
X158292445Y-81690424D01*
X158292443Y-81690423D01*
X158139716Y-81649500D01*
X157981602Y-81649500D01*
X157828875Y-81690423D01*
X157828868Y-81690426D01*
X157691949Y-81769475D01*
X157691941Y-81769481D01*
X157580140Y-81881282D01*
X157580134Y-81881290D01*
X157501085Y-82018209D01*
X157501082Y-82018216D01*
X157460159Y-82170943D01*
X154359084Y-82170943D01*
X154279057Y-82149500D01*
X154120943Y-82149500D01*
X153968216Y-82190423D01*
X153968209Y-82190426D01*
X153831290Y-82269475D01*
X153831282Y-82269481D01*
X153719481Y-82381282D01*
X153719475Y-82381290D01*
X153640426Y-82518209D01*
X153640423Y-82518216D01*
X153599500Y-82670943D01*
X119800500Y-82670943D01*
X119800500Y-81420943D01*
X130749500Y-81420943D01*
X130749500Y-81579057D01*
X130782041Y-81700500D01*
X130790423Y-81731783D01*
X130790426Y-81731790D01*
X130869475Y-81868709D01*
X130869479Y-81868714D01*
X130869480Y-81868716D01*
X130981284Y-81980520D01*
X130981286Y-81980521D01*
X130981290Y-81980524D01*
X131118209Y-82059573D01*
X131118216Y-82059577D01*
X131270943Y-82100500D01*
X131270945Y-82100500D01*
X131429055Y-82100500D01*
X131429057Y-82100500D01*
X131581784Y-82059577D01*
X131718716Y-81980520D01*
X131830520Y-81868716D01*
X131909577Y-81731784D01*
X131950500Y-81579057D01*
X131950500Y-81420943D01*
X131909577Y-81268216D01*
X131858101Y-81179056D01*
X131830524Y-81131290D01*
X131830518Y-81131282D01*
X131718717Y-81019481D01*
X131718709Y-81019475D01*
X131581790Y-80940426D01*
X131581786Y-80940424D01*
X131581784Y-80940423D01*
X131429057Y-80899500D01*
X131270943Y-80899500D01*
X131118216Y-80940423D01*
X131118209Y-80940426D01*
X130981290Y-81019475D01*
X130981282Y-81019481D01*
X130869481Y-81131282D01*
X130869475Y-81131290D01*
X130790426Y-81268209D01*
X130790423Y-81268216D01*
X130749500Y-81420943D01*
X119800500Y-81420943D01*
X119800500Y-78670943D01*
X154749500Y-78670943D01*
X154749500Y-78829056D01*
X154790423Y-78981783D01*
X154790426Y-78981790D01*
X154869475Y-79118709D01*
X154869479Y-79118714D01*
X154869480Y-79118716D01*
X154981284Y-79230520D01*
X154981286Y-79230521D01*
X154981290Y-79230524D01*
X155118209Y-79309573D01*
X155118216Y-79309577D01*
X155270943Y-79350500D01*
X155270945Y-79350500D01*
X155429055Y-79350500D01*
X155429057Y-79350500D01*
X155581784Y-79309577D01*
X155718716Y-79230520D01*
X155830520Y-79118716D01*
X155909577Y-78981784D01*
X155950500Y-78829057D01*
X155950500Y-78670943D01*
X155909577Y-78518216D01*
X155909573Y-78518209D01*
X155830524Y-78381290D01*
X155830518Y-78381282D01*
X155718717Y-78269481D01*
X155718709Y-78269475D01*
X155581790Y-78190426D01*
X155581786Y-78190424D01*
X155581784Y-78190423D01*
X155429057Y-78149500D01*
X155270943Y-78149500D01*
X155118216Y-78190423D01*
X155118209Y-78190426D01*
X154981290Y-78269475D01*
X154981282Y-78269481D01*
X154869481Y-78381282D01*
X154869475Y-78381290D01*
X154790426Y-78518209D01*
X154790423Y-78518216D01*
X154749500Y-78670943D01*
X119800500Y-78670943D01*
X119800500Y-76255513D01*
X120799500Y-76255513D01*
X120799500Y-76444486D01*
X120829059Y-76631118D01*
X120887454Y-76810836D01*
X120973240Y-76979199D01*
X121084310Y-77132073D01*
X121217927Y-77265690D01*
X121370801Y-77376760D01*
X121450347Y-77417290D01*
X121539163Y-77462545D01*
X121539165Y-77462545D01*
X121539168Y-77462547D01*
X121635497Y-77493846D01*
X121718881Y-77520940D01*
X121905514Y-77550500D01*
X121905519Y-77550500D01*
X122094486Y-77550500D01*
X122281118Y-77520940D01*
X122460832Y-77462547D01*
X122629199Y-77376760D01*
X122782073Y-77265690D01*
X122915690Y-77132073D01*
X123026760Y-76979199D01*
X123112547Y-76810832D01*
X123170940Y-76631118D01*
X123200500Y-76444486D01*
X123200500Y-76255513D01*
X123170940Y-76068881D01*
X123112545Y-75889163D01*
X123026759Y-75720800D01*
X122915690Y-75567927D01*
X122782073Y-75434310D01*
X122638843Y-75330247D01*
X128399500Y-75330247D01*
X128399500Y-77369752D01*
X128411131Y-77428229D01*
X128411132Y-77428230D01*
X128455447Y-77494552D01*
X128521769Y-77538867D01*
X128521770Y-77538868D01*
X128580247Y-77550499D01*
X128580250Y-77550500D01*
X128580252Y-77550500D01*
X130619750Y-77550500D01*
X130619751Y-77550499D01*
X130634568Y-77547552D01*
X130678229Y-77538868D01*
X130678229Y-77538867D01*
X130678231Y-77538867D01*
X130744552Y-77494552D01*
X130788867Y-77428231D01*
X130788867Y-77428229D01*
X130788868Y-77428229D01*
X130800499Y-77369752D01*
X130800500Y-77369750D01*
X130800500Y-75330249D01*
X130800499Y-75330247D01*
X130788868Y-75271770D01*
X130788867Y-75271769D01*
X130744552Y-75205447D01*
X130678230Y-75161132D01*
X130678229Y-75161131D01*
X130619752Y-75149500D01*
X130619748Y-75149500D01*
X128580252Y-75149500D01*
X128580247Y-75149500D01*
X128521770Y-75161131D01*
X128521769Y-75161132D01*
X128455447Y-75205447D01*
X128411132Y-75271769D01*
X128411131Y-75271770D01*
X128399500Y-75330247D01*
X122638843Y-75330247D01*
X122629199Y-75323240D01*
X122460836Y-75237454D01*
X122281118Y-75179059D01*
X122094486Y-75149500D01*
X122094481Y-75149500D01*
X121905519Y-75149500D01*
X121905514Y-75149500D01*
X121718881Y-75179059D01*
X121539163Y-75237454D01*
X121370800Y-75323240D01*
X121283579Y-75386610D01*
X121217927Y-75434310D01*
X121217925Y-75434312D01*
X121217924Y-75434312D01*
X121084312Y-75567924D01*
X121084312Y-75567925D01*
X121084310Y-75567927D01*
X121036610Y-75633579D01*
X120973240Y-75720800D01*
X120887454Y-75889163D01*
X120829059Y-76068881D01*
X120799500Y-76255513D01*
X119800500Y-76255513D01*
X119800500Y-73293713D01*
X155849500Y-73293713D01*
X155849500Y-73506286D01*
X155882753Y-73716239D01*
X155948444Y-73918414D01*
X156044951Y-74107820D01*
X156169890Y-74279786D01*
X156320213Y-74430109D01*
X156492179Y-74555048D01*
X156492181Y-74555049D01*
X156492184Y-74555051D01*
X156681588Y-74651557D01*
X156883757Y-74717246D01*
X157093713Y-74750500D01*
X157093714Y-74750500D01*
X157306286Y-74750500D01*
X157306287Y-74750500D01*
X157516243Y-74717246D01*
X157718412Y-74651557D01*
X157907816Y-74555051D01*
X157929789Y-74539086D01*
X158079786Y-74430109D01*
X158079788Y-74430106D01*
X158079792Y-74430104D01*
X158230104Y-74279792D01*
X158230106Y-74279788D01*
X158230109Y-74279786D01*
X158355048Y-74107820D01*
X158355047Y-74107820D01*
X158355051Y-74107816D01*
X158451557Y-73918412D01*
X158517246Y-73716243D01*
X158550500Y-73506287D01*
X158550500Y-73293713D01*
X158517246Y-73083757D01*
X158451557Y-72881588D01*
X158355051Y-72692184D01*
X158355049Y-72692181D01*
X158355048Y-72692179D01*
X158230109Y-72520213D01*
X158079786Y-72369890D01*
X157907820Y-72244951D01*
X157718414Y-72148444D01*
X157718413Y-72148443D01*
X157718412Y-72148443D01*
X157516243Y-72082754D01*
X157516241Y-72082753D01*
X157516240Y-72082753D01*
X157354957Y-72057208D01*
X157306287Y-72049500D01*
X157093713Y-72049500D01*
X157045042Y-72057208D01*
X156883760Y-72082753D01*
X156681585Y-72148444D01*
X156492179Y-72244951D01*
X156320213Y-72369890D01*
X156169890Y-72520213D01*
X156044951Y-72692179D01*
X155948444Y-72881585D01*
X155882753Y-73083760D01*
X155849500Y-73293713D01*
X119800500Y-73293713D01*
X119800500Y-65303389D01*
X151609500Y-65303389D01*
X151609500Y-65476611D01*
X151636598Y-65647701D01*
X151690127Y-65812445D01*
X151768768Y-65966788D01*
X151870586Y-66106928D01*
X151993072Y-66229414D01*
X152133212Y-66331232D01*
X152287555Y-66409873D01*
X152452299Y-66463402D01*
X152623389Y-66490500D01*
X152623390Y-66490500D01*
X152796610Y-66490500D01*
X152796611Y-66490500D01*
X152967701Y-66463402D01*
X153132445Y-66409873D01*
X153286788Y-66331232D01*
X153426928Y-66229414D01*
X153549414Y-66106928D01*
X153651232Y-65966788D01*
X153729873Y-65812445D01*
X153783402Y-65647701D01*
X153810500Y-65476611D01*
X153810500Y-65303389D01*
X156689500Y-65303389D01*
X156689500Y-65476611D01*
X156716598Y-65647701D01*
X156770127Y-65812445D01*
X156848768Y-65966788D01*
X156950586Y-66106928D01*
X157073072Y-66229414D01*
X157213212Y-66331232D01*
X157367555Y-66409873D01*
X157532299Y-66463402D01*
X157703389Y-66490500D01*
X157703390Y-66490500D01*
X157876610Y-66490500D01*
X157876611Y-66490500D01*
X158047701Y-66463402D01*
X158212445Y-66409873D01*
X158366788Y-66331232D01*
X158506928Y-66229414D01*
X158629414Y-66106928D01*
X158731232Y-65966788D01*
X158809873Y-65812445D01*
X158863402Y-65647701D01*
X158890500Y-65476611D01*
X158890500Y-65303389D01*
X158863402Y-65132299D01*
X158809873Y-64967555D01*
X158731232Y-64813212D01*
X158629414Y-64673072D01*
X158506928Y-64550586D01*
X158366788Y-64448768D01*
X158212445Y-64370127D01*
X158047701Y-64316598D01*
X158047699Y-64316597D01*
X158047698Y-64316597D01*
X157916271Y-64295781D01*
X157876611Y-64289500D01*
X157703389Y-64289500D01*
X157663728Y-64295781D01*
X157532302Y-64316597D01*
X157367552Y-64370128D01*
X157213211Y-64448768D01*
X157133256Y-64506859D01*
X157073072Y-64550586D01*
X157073070Y-64550588D01*
X157073069Y-64550588D01*
X156950588Y-64673069D01*
X156950588Y-64673070D01*
X156950586Y-64673072D01*
X156906859Y-64733256D01*
X156848768Y-64813211D01*
X156770128Y-64967552D01*
X156716597Y-65132302D01*
X156689500Y-65303389D01*
X153810500Y-65303389D01*
X153783402Y-65132299D01*
X153729873Y-64967555D01*
X153651232Y-64813212D01*
X153549414Y-64673072D01*
X153426928Y-64550586D01*
X153286788Y-64448768D01*
X153132445Y-64370127D01*
X152967701Y-64316598D01*
X152967699Y-64316597D01*
X152967698Y-64316597D01*
X152836271Y-64295781D01*
X152796611Y-64289500D01*
X152623389Y-64289500D01*
X152583728Y-64295781D01*
X152452302Y-64316597D01*
X152287552Y-64370128D01*
X152133211Y-64448768D01*
X152053256Y-64506859D01*
X151993072Y-64550586D01*
X151993070Y-64550588D01*
X151993069Y-64550588D01*
X151870588Y-64673069D01*
X151870588Y-64673070D01*
X151870586Y-64673072D01*
X151826859Y-64733256D01*
X151768768Y-64813211D01*
X151690128Y-64967552D01*
X151636597Y-65132302D01*
X151609500Y-65303389D01*
X119800500Y-65303389D01*
X119800500Y-62893712D01*
X122799500Y-62893712D01*
X122799500Y-62893713D01*
X122799500Y-63106287D01*
X122832754Y-63316243D01*
X122888490Y-63487781D01*
X122898444Y-63518414D01*
X122994951Y-63707820D01*
X123119890Y-63879786D01*
X123270213Y-64030109D01*
X123442179Y-64155048D01*
X123442181Y-64155049D01*
X123442184Y-64155051D01*
X123631588Y-64251557D01*
X123833757Y-64317246D01*
X124043713Y-64350500D01*
X124043714Y-64350500D01*
X124256286Y-64350500D01*
X124256287Y-64350500D01*
X124466243Y-64317246D01*
X124668412Y-64251557D01*
X124857816Y-64155051D01*
X124879789Y-64139086D01*
X125029786Y-64030109D01*
X125029788Y-64030106D01*
X125029792Y-64030104D01*
X125180104Y-63879792D01*
X125180106Y-63879788D01*
X125180109Y-63879786D01*
X125305048Y-63707820D01*
X125305047Y-63707820D01*
X125305051Y-63707816D01*
X125401557Y-63518412D01*
X125467246Y-63316243D01*
X125500500Y-63106287D01*
X125500500Y-62948543D01*
X154249499Y-62948543D01*
X154287947Y-63141829D01*
X154287950Y-63141839D01*
X154363364Y-63323907D01*
X154363371Y-63323920D01*
X154472860Y-63487781D01*
X154472863Y-63487785D01*
X154612214Y-63627136D01*
X154612218Y-63627139D01*
X154776079Y-63736628D01*
X154776092Y-63736635D01*
X154958160Y-63812049D01*
X154958165Y-63812051D01*
X154958169Y-63812051D01*
X154958170Y-63812052D01*
X155151456Y-63850500D01*
X155151459Y-63850500D01*
X155348543Y-63850500D01*
X155478582Y-63824632D01*
X155541835Y-63812051D01*
X155723914Y-63736632D01*
X155887782Y-63627139D01*
X156027139Y-63487782D01*
X156136632Y-63323914D01*
X156212051Y-63141835D01*
X156250500Y-62948541D01*
X156250500Y-62751459D01*
X156250500Y-62751456D01*
X156212052Y-62558170D01*
X156212051Y-62558169D01*
X156212051Y-62558165D01*
X156180331Y-62481585D01*
X156136635Y-62376092D01*
X156136628Y-62376079D01*
X156027139Y-62212218D01*
X156027136Y-62212214D01*
X155887785Y-62072863D01*
X155887781Y-62072860D01*
X155723920Y-61963371D01*
X155723907Y-61963364D01*
X155541839Y-61887950D01*
X155541829Y-61887947D01*
X155348543Y-61849500D01*
X155348541Y-61849500D01*
X155151459Y-61849500D01*
X155151457Y-61849500D01*
X154958170Y-61887947D01*
X154958160Y-61887950D01*
X154776092Y-61963364D01*
X154776079Y-61963371D01*
X154612218Y-62072860D01*
X154612214Y-62072863D01*
X154472863Y-62212214D01*
X154472860Y-62212218D01*
X154363371Y-62376079D01*
X154363364Y-62376092D01*
X154287950Y-62558160D01*
X154287947Y-62558170D01*
X154249500Y-62751456D01*
X154249500Y-62751459D01*
X154249500Y-62948541D01*
X154249500Y-62948543D01*
X154249499Y-62948543D01*
X125500500Y-62948543D01*
X125500500Y-62893713D01*
X125500500Y-62893712D01*
X125480077Y-62764764D01*
X125467246Y-62683760D01*
X125467246Y-62683757D01*
X125401557Y-62481588D01*
X125305051Y-62292184D01*
X125305049Y-62292181D01*
X125305048Y-62292179D01*
X125180109Y-62120213D01*
X125029786Y-61969890D01*
X124857820Y-61844951D01*
X124668414Y-61748444D01*
X124668413Y-61748443D01*
X124668412Y-61748443D01*
X124466243Y-61682754D01*
X124466241Y-61682753D01*
X124466240Y-61682753D01*
X124304957Y-61657208D01*
X124256287Y-61649500D01*
X124043713Y-61649500D01*
X123995042Y-61657208D01*
X123833760Y-61682753D01*
X123631585Y-61748444D01*
X123442179Y-61844951D01*
X123270213Y-61969890D01*
X123119890Y-62120213D01*
X122994951Y-62292179D01*
X122898444Y-62481585D01*
X122832753Y-62683760D01*
X122799500Y-62893712D01*
X119800500Y-62893712D01*
X119800500Y-60223389D01*
X151609500Y-60223389D01*
X151609500Y-60396611D01*
X151636598Y-60567701D01*
X151690127Y-60732445D01*
X151768768Y-60886788D01*
X151870586Y-61026928D01*
X151993072Y-61149414D01*
X152133212Y-61251232D01*
X152287555Y-61329873D01*
X152452299Y-61383402D01*
X152623389Y-61410500D01*
X152623390Y-61410500D01*
X152796610Y-61410500D01*
X152796611Y-61410500D01*
X152967701Y-61383402D01*
X153132445Y-61329873D01*
X153286788Y-61251232D01*
X153426928Y-61149414D01*
X153549414Y-61026928D01*
X153651232Y-60886788D01*
X153729873Y-60732445D01*
X153783402Y-60567701D01*
X153810500Y-60396611D01*
X153810500Y-60223389D01*
X156689500Y-60223389D01*
X156689500Y-60396611D01*
X156716598Y-60567701D01*
X156770127Y-60732445D01*
X156848768Y-60886788D01*
X156950586Y-61026928D01*
X157073072Y-61149414D01*
X157213212Y-61251232D01*
X157367555Y-61329873D01*
X157532299Y-61383402D01*
X157703389Y-61410500D01*
X157703390Y-61410500D01*
X157876610Y-61410500D01*
X157876611Y-61410500D01*
X158047701Y-61383402D01*
X158212445Y-61329873D01*
X158366788Y-61251232D01*
X158506928Y-61149414D01*
X158629414Y-61026928D01*
X158731232Y-60886788D01*
X158809873Y-60732445D01*
X158863402Y-60567701D01*
X158890500Y-60396611D01*
X158890500Y-60223389D01*
X158863402Y-60052299D01*
X158809873Y-59887555D01*
X158731232Y-59733212D01*
X158629414Y-59593072D01*
X158506928Y-59470586D01*
X158366788Y-59368768D01*
X158212445Y-59290127D01*
X158047701Y-59236598D01*
X158047699Y-59236597D01*
X158047698Y-59236597D01*
X157916271Y-59215781D01*
X157876611Y-59209500D01*
X157703389Y-59209500D01*
X157663728Y-59215781D01*
X157532302Y-59236597D01*
X157367552Y-59290128D01*
X157213211Y-59368768D01*
X157133256Y-59426859D01*
X157073072Y-59470586D01*
X157073070Y-59470588D01*
X157073069Y-59470588D01*
X156950588Y-59593069D01*
X156950588Y-59593070D01*
X156950586Y-59593072D01*
X156906859Y-59653256D01*
X156848768Y-59733211D01*
X156770128Y-59887552D01*
X156716597Y-60052302D01*
X156689500Y-60223389D01*
X153810500Y-60223389D01*
X153783402Y-60052299D01*
X153729873Y-59887555D01*
X153651232Y-59733212D01*
X153549414Y-59593072D01*
X153426928Y-59470586D01*
X153286788Y-59368768D01*
X153132445Y-59290127D01*
X152967701Y-59236598D01*
X152967699Y-59236597D01*
X152967698Y-59236597D01*
X152836271Y-59215781D01*
X152796611Y-59209500D01*
X152623389Y-59209500D01*
X152583728Y-59215781D01*
X152452302Y-59236597D01*
X152287552Y-59290128D01*
X152133211Y-59368768D01*
X152053256Y-59426859D01*
X151993072Y-59470586D01*
X151993070Y-59470588D01*
X151993069Y-59470588D01*
X151870588Y-59593069D01*
X151870588Y-59593070D01*
X151870586Y-59593072D01*
X151826859Y-59653256D01*
X151768768Y-59733211D01*
X151690128Y-59887552D01*
X151636597Y-60052302D01*
X151609500Y-60223389D01*
X119800500Y-60223389D01*
X119800500Y-58974500D01*
X119820185Y-58907461D01*
X119872989Y-58861706D01*
X119924500Y-58850500D01*
X150884108Y-58850500D01*
X159615892Y-58850500D01*
X160875500Y-58850500D01*
X160942539Y-58870185D01*
G37*
%TD.AperFunction*%
%TD*%
M02*
